<?xml version="1.0" encoding="UTF-8"?>
<svg version="1.1" xmlns="http://www.w3.org/2000/svg" width="256" height="256">
<path d="M0 0 C71.94 0 143.88 0 218 0 C218 63.69 218 127.38 218 193 C146.06 193 74.12 193 0 193 C0 129.31 0 65.62 0 0 Z " fill="#FAFAFA" transform="translate(19,31)"/>
<path d="M0 0 C14.95060549 -1.21084769 14.95060549 -1.21084769 19.30078125 1.359375 C21.06033292 3.47258346 22.49937997 5.69573038 24 8 C25.72531675 9.94988178 27.46489016 11.85739043 29.25 13.75 C30.2017885 14.78268725 31.15229531 15.81655714 32.1015625 16.8515625 C32.58012695 17.37137695 33.05869141 17.89119141 33.55175781 18.42675781 C35.91191723 20.9906262 38.26894725 23.55735798 40.625 26.125 C41.08213379 26.62265869 41.53926758 27.12031738 42.01025391 27.63305664 C44.90928504 30.79398594 47.77310315 33.98406725 50.625 37.1875 C52.0791159 38.7954906 53.53732755 40.39978873 55 42 C55.68191406 42.74894531 56.36382812 43.49789062 57.06640625 44.26953125 C69.71373736 57.56902677 84.80306783 66.43900987 102.98046875 69.359375 C106 70 106 70 108 72 C101.98003345 76.01331103 92.78933251 74.59780295 85.83984375 73.3125 C73.45950594 70.64716574 63.6115161 65.15217596 54 57 C53.20980469 56.33226562 52.41960937 55.66453125 51.60546875 54.9765625 C46.80263102 50.78637021 42.32683288 46.36050806 38 41.6875 C37.53094238 41.18387939 37.06188477 40.68025879 36.57861328 40.16137695 C34.72221005 38.11837825 33.12983352 36.27255493 31.9375 33.76953125 C30.69931305 31.43245338 29.36810508 31.10396124 27 30 C21.08003278 24.84974171 16.16627507 18.83872187 11.28515625 12.7265625 C8.28576518 9.14780187 5.01724967 5.91229797 1.65234375 2.6796875 C0 1 0 1 0 0 Z " fill="#080808" transform="translate(80,105)"/>
<path d="M0 0 C5.18291833 -1.23839642 9.93267475 -1.80559865 15 0 C21.97391384 4.8307532 27.49900641 11.60898211 33 18 C36.8808378 22.47605832 40.75166421 26.86346252 45 31 C47.99314112 33.95697023 50.88378551 36.93317491 53.625 40.125 C54.7478154 41.41856613 55.87278973 42.71026174 57 44 C57.55429688 44.63421875 58.10859375 45.2684375 58.6796875 45.921875 C70.50076756 58.6054373 85.97027624 66.52096957 102.91015625 69.32421875 C106 70 106 70 108 72 C98.48829203 76.28792559 86.69928584 74.09793425 77.03125 71.0703125 C60.9640448 64.93940525 47.90397136 52.9283547 36.81689453 40.08178711 C33.75760792 36.57647444 30.56685689 33.19681288 27.375 29.8125 C26.68422363 29.07781494 25.99344727 28.34312988 25.28173828 27.58618164 C20.89835696 22.94551708 16.42801672 18.41117728 11.875 13.9375 C7.43741265 9.57439808 3.52565395 5.13738147 0 0 Z " fill="#090909" transform="translate(121,105)"/>
<path d="M0 0 C11.22 0 22.44 0 34 0 C29 5 29 5 26.24536133 6.23364258 C23.87605477 7.73747292 23.87605477 7.73747292 23.4949646 9.84017944 C23.22505528 12.32242844 23.1250373 14.76530583 23.07421875 17.26171875 C23.0369014 18.16751175 22.99958405 19.07330475 22.96113586 20.00654602 C22.84716772 22.89987743 22.76694837 25.79303491 22.6875 28.6875 C22.61615182 30.64917053 22.54261087 32.61076262 22.46679688 34.57226562 C22.28574114 39.38096996 22.1349425 44.18978966 22 49 C18.7 49 15.4 49 12 49 C11.98541748 47.8447583 11.97083496 46.6895166 11.95581055 45.49926758 C11.89773178 41.20322088 11.8204995 36.90769306 11.73754883 32.61206055 C11.70434451 30.7547245 11.67629859 28.89728863 11.65356445 27.03979492 C11.61993558 24.36594202 11.56761626 21.69300007 11.51171875 19.01953125 C11.50532883 18.19226028 11.4989389 17.36498932 11.49235535 16.51264954 C11.3746155 11.87047677 10.98447507 8.78082215 8 5 C6.0062203 3.58544106 6.0062203 3.58544106 3.8125 2.6875 C3.09707031 2.36136719 2.38164063 2.03523438 1.64453125 1.69921875 C1.10183594 1.46847656 0.55914062 1.23773438 0 1 C0 0.67 0 0.34 0 0 Z " fill="#040404" transform="translate(38,31)"/>
<path d="M0 0 C10.89 0 21.78 0 33 0 C30.31419082 2.01435689 28.25245659 3.48890753 25.35546875 4.9453125 C15.16463871 10.23914153 15.16463871 10.23914153 7.55859375 18.6875 C5.77912549 21.32771355 3.77259996 23.58798893 1.625 25.9375 C0.86703125 26.77023438 0.1090625 27.60296875 -0.671875 28.4609375 C-3 31 -3 31 -5.328125 33.5390625 C-6.08609375 34.37179688 -6.8440625 35.20453125 -7.625 36.0625 C-8.74068359 37.28259766 -8.74068359 37.28259766 -9.87890625 38.52734375 C-11.96614396 40.96053247 -13.74315259 43.48880273 -15.5625 46.125 C-18.33852045 49.83287707 -18.33852045 49.83287707 -21.2109375 50.55859375 C-23.4375 50.5625 -23.4375 50.5625 -27 50 C-25.31480874 46.10891232 -22.75413681 42.97070578 -20.125 39.6875 C-19.64321289 39.07938477 -19.16142578 38.47126953 -18.66503906 37.84472656 C-16.07649481 34.58279411 -13.4677678 31.33742571 -10.8515625 28.09765625 C-0.97017911 16.88879427 -0.97017911 16.88879427 6 4 C5.195625 3.71125 4.39125 3.4225 3.5625 3.125 C1 2 1 2 0 0 Z " fill="#090909" transform="translate(143,31)"/>
<path d="M0 0 C10.89 0 21.78 0 33 0 C28.6079002 3.29407485 24.07379507 5.60796959 19.19140625 8.0859375 C14.5029727 10.89784991 11.16753902 14.70833894 7.625 18.8125 C7.02300781 19.50730469 6.42101562 20.20210937 5.80078125 20.91796875 C5.20652344 21.60503906 4.61226562 22.29210937 4 23 C2.93803552 24.20880401 1.87552803 25.41713117 0.8125 26.625 C-2.54259853 30.46048764 -5.86751218 34.32163005 -9.1875 38.1875 C-9.69885498 38.78191895 -10.21020996 39.37633789 -10.73706055 39.98876953 C-11.22988525 40.56353027 -11.72270996 41.13829102 -12.23046875 41.73046875 C-12.70758301 42.28307373 -13.18469727 42.83567871 -13.67626953 43.4050293 C-14.87586743 44.85043192 -15.97794497 46.37540843 -17.06640625 47.90625 C-19 50 -19 50 -21.359375 50.48828125 C-22.54273437 50.40126953 -22.54273437 50.40126953 -23.75 50.3125 C-24.54921875 50.26738281 -25.3484375 50.22226563 -26.171875 50.17578125 C-27.07679687 50.08876953 -27.07679687 50.08876953 -28 50 C-25.25711286 45.72338711 -22.27357452 41.83501646 -18.9375 38 C-13.49280856 31.65325138 -8.29364024 25.13845423 -3.18212891 18.52148438 C-2.13734486 17.17677265 -1.07575859 15.84515219 -0.01171875 14.515625 C3.70285906 9.80607914 3.70285906 9.80607914 5 4 C3.35 2.68 1.7 1.36 0 0 Z " fill="#0B0B0B" transform="translate(102,31)"/>
<path d="M0 0 C3.63 0 7.26 0 11 0 C11.02505615 1.06959961 11.0501123 2.13919922 11.07592773 3.24121094 C11.17019528 7.21463727 11.27036858 11.18789668 11.37231445 15.16113281 C11.41559016 16.87984305 11.45727041 18.59859424 11.49731445 20.31738281 C11.55519565 22.789839 11.61883836 25.26209047 11.68359375 27.734375 C11.70030624 28.50118591 11.71701874 29.26799683 11.73423767 30.05804443 C11.8496504 35.11535089 11.8496504 35.11535089 13 40 C15.37625345 41.18391223 15.37625345 41.18391223 18 42 C18.99 42.66 19.98 43.32 21 44 C10.44 44 -0.12 44 -11 44 C-7.85132448 40.85132448 -5.67466905 39.18493836 -2 37 C-0.44504302 33.89008604 -0.75923044 30.56655951 -0.68359375 27.1484375 C-0.66281265 26.37440582 -0.64203156 25.60037415 -0.62062073 24.80288696 C-0.55516552 22.32701608 -0.49625913 19.85103798 -0.4375 17.375 C-0.39431093 15.69790552 -0.35069652 14.02082193 -0.30664062 12.34375 C-0.19948829 8.22927692 -0.09820955 4.11469586 0 0 Z " fill="#080808" transform="translate(50,105)"/>
<path d="M0 0 C27.06 0 54.12 0 82 0 C82 1.65 82 3.3 82 5 C54.94 5 27.88 5 0 5 C0 3.35 0 1.7 0 0 Z " fill="#070707" transform="translate(36,159)"/>
<path d="M0 0 C0.66 0 1.32 0 2 0 C2.33 1.65 2.66 3.3 3 5 C4.32 4.34 5.64 3.68 7 3 C7.103125 3.639375 7.20625 4.27875 7.3125 4.9375 C7.6528125 5.9584375 7.6528125 5.9584375 8 7 C8.99 7.33 9.98 7.66 11 8 C10.125 11.875 10.125 11.875 9 13 C6.13732433 13.07325168 3.299281 13.09238205 0.4375 13.0625 C-0.36880859 13.05798828 -1.17511719 13.05347656 -2.00585938 13.04882812 C-4.00393756 13.03700518 -6.00197783 13.01906914 -8 13 C-8 12.34 -8 11.68 -8 11 C-7.01 11 -6.02 11 -5 11 C-5.66 9.02 -6.32 7.04 -7 5 C-7.99 5 -8.98 5 -10 5 C-10.33 6.32 -10.66 7.64 -11 9 C-11 7.02 -11 5.04 -11 3 C-7.7 3 -4.4 3 -1 3 C-0.67 2.01 -0.34 1.02 0 0 Z " fill="#BBBBBB" transform="translate(152,211)"/>
<path d="M0 0 C3.46464111 0.27173656 4.68165104 0.93690865 7.1875 3.25 C6.8575 5.23 6.5275 7.21 6.1875 9.25 C5.1975 9.58 4.2075 9.91 3.1875 10.25 C3.93 11.178125 3.93 11.178125 4.6875 12.125 C6.1875 14.25 6.1875 14.25 6.1875 16.25 C5.5275 16.25 4.8675 16.25 4.1875 16.25 C1.1875 12.78846154 1.1875 12.78846154 1.1875 10.25 C0.5275 10.25 -0.1325 10.25 -0.8125 10.25 C-0.8125 12.23 -0.8125 14.21 -0.8125 16.25 C-1.8025 16.25 -2.7925 16.25 -3.8125 16.25 C-3.83935095 13.77076199 -3.85926547 11.2918116 -3.875 8.8125 C-3.88756836 7.75192383 -3.88756836 7.75192383 -3.90039062 6.66992188 C-3.90903588 4.86306441 -3.86470011 3.05612397 -3.8125 1.25 C-2.8125 0.25 -2.8125 0.25 0 0 Z " fill="#B4B4B4" transform="translate(221.8125,185.75)"/>
<path d="M0 0 C1.91015625 0.23046875 1.91015625 0.23046875 3.91015625 2.23046875 C4.10546875 5.48828125 4.10546875 5.48828125 4.03515625 9.35546875 C4.01710937 10.63679688 3.9990625 11.918125 3.98046875 13.23828125 C3.95726562 14.22570312 3.9340625 15.213125 3.91015625 16.23046875 C2.92015625 16.23046875 1.93015625 16.23046875 0.91015625 16.23046875 C0.58015625 11.94046875 0.25015625 7.65046875 -0.08984375 3.23046875 C-0.41984375 7.19046875 -0.74984375 11.15046875 -1.08984375 15.23046875 C-1.74984375 15.23046875 -2.40984375 15.23046875 -3.08984375 15.23046875 C-3.08984375 11.27046875 -3.08984375 7.31046875 -3.08984375 3.23046875 C-3.74984375 3.23046875 -4.40984375 3.23046875 -5.08984375 3.23046875 C-5.08984375 7.19046875 -5.08984375 11.15046875 -5.08984375 15.23046875 C-5.74984375 15.23046875 -6.40984375 15.23046875 -7.08984375 15.23046875 C-7.11669787 12.91803083 -7.13617216 10.60550605 -7.15234375 8.29296875 C-7.16394531 7.00519531 -7.17554687 5.71742187 -7.1875 4.390625 C-7.01983053 -1.03515915 -4.91894078 0.09820027 0 0 Z " fill="#2C2C2C" transform="translate(130.08984375,85.76953125)"/>
<path d="M0 0 C1.98 0 3.96 0 6 0 C7.87243981 1.87243981 7.17380392 4.93659518 7.1875 7.4375 C7.20167969 8.61183594 7.21585938 9.78617188 7.23046875 10.99609375 C7 14 7 14 5 16 C3.35 16 1.7 16 0 16 C0 10.72 0 5.44 0 0 Z " fill="#2E2E2E" transform="translate(141,86)"/>
<path d="M0 0 C3.53571429 0.53571429 3.53571429 0.53571429 5 2 C5.09873816 3.99799572 5.12971799 5.99957158 5.125 8 C5.12757812 9.093125 5.13015625 10.18625 5.1328125 11.3125 C5 14 5 14 4 15 C1.5 15.125 1.5 15.125 -1 15 C-2.80746134 13.19253866 -2.17303483 10.49554219 -2.1875 8.0625 C-2.20167969 6.98097656 -2.21585937 5.89945312 -2.23046875 4.78515625 C-2 2 -2 2 0 0 Z " fill="#1F1F1F" transform="translate(110,86)"/>
<path d="M0 0 C1.65 0.33 3.3 0.66 5 1 C5 5.95 5 10.9 5 16 C4.34 16 3.68 16 3 16 C3 13.69 3 11.38 3 9 C2.34 9 1.68 9 1 9 C1 11.31 1 13.62 1 16 C0.01 16 -0.98 16 -2 16 C-2.05384521 13.70858714 -2.09272087 11.41681812 -2.125 9.125 C-2.14820313 7.84882812 -2.17140625 6.57265625 -2.1953125 5.2578125 C-2 2 -2 2 0 0 Z " fill="#2C2C2C" transform="translate(35,86)"/>
<path d="M0 0 C3 1 3 1 4.38671875 3.65234375 C4.81597656 4.73644531 5.24523438 5.82054687 5.6875 6.9375 C6.34298828 8.55978516 6.34298828 8.55978516 7.01171875 10.21484375 C8 13 8 13 8 15 C7.34 15 6.68 15 6 15 C5.67 13.35 5.34 11.7 5 10 C0.94914321 10.24631557 0.94914321 10.24631557 -3 11 C-4.5899433 12.92064793 -4.5899433 12.92064793 -5 15 C-6 12 -6 12 -4.78515625 9.08203125 C-4.21667969 8.00308594 -3.64820313 6.92414063 -3.0625 5.8125 C-2.49660156 4.72582031 -1.93070313 3.63914063 -1.34765625 2.51953125 C-0.90292969 1.68808594 -0.45820312 0.85664063 0 0 Z " fill="#2A2A2A" transform="translate(43,187)"/>
<path d="M0 0 C1.65 0 3.3 0 5 0 C6 1 6 1 6.09765625 4.37890625 C6.09098369 5.77347077 6.07902532 7.16801743 6.0625 8.5625 C6.05798828 9.27341797 6.05347656 9.98433594 6.04882812 10.71679688 C6.03700864 12.47790013 6.01907263 14.23896036 6 16 C5.34 16 4.68 16 4 16 C3.67 15.01 3.34 14.02 3 13 C2.67 13.66 2.34 14.32 2 15 C1.34 15 0.68 15 0 15 C0 10.05 0 5.1 0 0 Z " fill="#2E2E2E" transform="translate(48,86)"/>
<path d="M0 0 C4.55555556 0.55555556 4.55555556 0.55555556 6 2 C5.71269945 4.33944736 5.38063221 6.6739143 5 9 C2.6875 9.6875 2.6875 9.6875 0 10 C-1.875 8.875 -1.875 8.875 -3 7 C-2.75546876 3.65807308 -2.39456443 2.39456443 0 0 Z " fill="#646464" transform="translate(170,211)"/>
<path d="M0 0 C1.65 0.33 3.3 0.66 5 1 C5 5.95 5 10.9 5 16 C4.34 16 3.68 16 3 16 C3 11.71 3 7.42 3 3 C2.34 3 1.68 3 1 3 C1 6.96 1 10.92 1 15 C0.34 15 -0.32 15 -1 15 C-1.02685412 12.68756208 -1.04632841 10.3750373 -1.0625 8.0625 C-1.07410156 6.77472656 -1.08570312 5.48695312 -1.09765625 4.16015625 C-1 1 -1 1 0 0 Z " fill="#1E1E1E" transform="translate(76,86)"/>
<path d="M0 0 C0.66 0 1.32 0 2 0 C2.33 0.99 2.66 1.98 3 3 C3.33 2.01 3.66 1.02 4 0 C4.66 0 5.32 0 6 0 C5.79375 1.155 5.5875 2.31 5.375 3.5 C4.77453996 8.10626876 5.65909885 11.58291388 7 16 C6.01 15.67 5.02 15.34 4 15 C3.67 14.01 3.34 13.02 3 12 C2.67 12.99 2.34 13.98 2 15 C1.34 15 0.68 15 0 15 C0 10.05 0 5.1 0 0 Z " fill="#1A1A1A" transform="translate(19,86)"/>
<path d="M0 0 C0.66 0 1.32 0 2 0 C2.33 0.66 2.66 1.32 3 2 C3.33 1.34 3.66 0.68 4 0 C4.66 0 5.32 0 6 0 C5.814375 1.175625 5.62875 2.35125 5.4375 3.5625 C4.91769004 7.61268594 5.2497646 10.99874453 6 15 C5.34 15 4.68 15 4 15 C3.67 14.01 3.34 13.02 3 12 C2.67 12.99 2.34 13.98 2 15 C1.34 15 0.68 15 0 15 C0 10.05 0 5.1 0 0 Z " fill="#121212" transform="translate(94,86)"/>
<path d="M0 0 C6.75 0 6.75 0 10 3 C9.67 4.98 9.34 6.96 9 9 C8.01 9.33 7.02 9.66 6 10 C6.7425 10.928125 6.7425 10.928125 7.5 11.875 C9 14 9 14 9 16 C8.34 16 7.68 16 7 16 C5.02 12.535 5.02 12.535 3 9 C3.639375 8.7525 4.27875 8.505 4.9375 8.25 C7.18741541 7.18437567 7.18741541 7.18437567 7.75 4.875 C7.8325 4.25625 7.915 3.6375 8 3 C5.69 2.67 3.38 2.34 1 2 C1 6.29 1 10.58 1 15 C0.67 15 0.34 15 0 15 C0 10.05 0 5.1 0 0 Z " fill="#2D2D2D" transform="translate(219,186)"/>
<path d="M0 0 C0.66 0.33 1.32 0.66 2 1 C1.67 2.98 1.34 4.96 1 7 C5.82442184 5.73053486 5.82442184 5.73053486 9 2 C10.32 2.33 11.64 2.66 13 3 C13.625 4.875 13.625 4.875 14 7 C13.34 7.66 12.68 8.32 12 9 C10.32995171 8.68404492 8.66362417 8.34820041 7 8 C6.13375 8.20625 5.2675 8.4125 4.375 8.625 C2 9 2 9 0.125 7.9375 C-1.52677204 5.09278149 -0.75730701 3.09807413 0 0 Z " fill="#949494" transform="translate(60,212)"/>
<path d="M0 0 C0.94875 0.04125 1.8975 0.0825 2.875 0.125 C2.875 0.455 2.875 0.785 2.875 1.125 C1.225 1.455 -0.425 1.785 -2.125 2.125 C-2.455 3.445 -2.785 4.765 -3.125 6.125 C-1.475 6.125 0.175 6.125 1.875 6.125 C1.875 6.785 1.875 7.445 1.875 8.125 C0.225 8.125 -1.425 8.125 -3.125 8.125 C-3.125 9.775 -3.125 11.425 -3.125 13.125 C-0.815 13.125 1.495 13.125 3.875 13.125 C3.875 13.785 3.875 14.445 3.875 15.125 C0.5 15.25 0.5 15.25 -3.125 15.125 C-5.125 13.125 -5.125 13.125 -5.390625 10.59375 C-5.38546875 9.6140625 -5.3803125 8.634375 -5.375 7.625 C-5.38015625 6.6453125 -5.3853125 5.665625 -5.390625 4.65625 C-4.97669255 0.71171724 -3.88936012 0.1555744 0 0 Z " fill="#393939" transform="translate(193.125,186.875)"/>
<path d="M0 0 C1.65 0 3.3 0 5 0 C5 0.66 5 1.32 5 2 C4.01 2 3.02 2 2 2 C2 3.65 2 5.3 2 7 C2.99 7 3.98 7 5 7 C5 7.66 5 8.32 5 9 C4.01 9 3.02 9 2 9 C2 10.65 2 12.3 2 14 C2.99 14 3.98 14 5 14 C5 14.66 5 15.32 5 16 C3.35 16 1.7 16 0 16 C0 10.72 0 5.44 0 0 Z " fill="#1F1F1F" transform="translate(62,86)"/>
<path d="M0 0 C1.32 0 2.64 0 4 0 C4 4.29 4 8.58 4 13 C2.02 13.99 2.02 13.99 0 15 C-2 13 -2 13 -2.1953125 10.3984375 C-2.17210937 9.40070313 -2.14890625 8.40296875 -2.125 7.375 C-2.10695312 6.37210937 -2.08890625 5.36921875 -2.0703125 4.3359375 C-2.04710937 3.56507812 -2.02390625 2.79421875 -2 2 C-1.67 2 -1.34 2 -1 2 C-1 5.3 -1 8.6 -1 12 C-0.01 12 0.98 12 2 12 C2 8.37 2 4.74 2 1 C1.34 0.67 0.68 0.34 0 0 Z " fill="#121212" transform="translate(158,87)"/>
<path d="M0 0 C0.66 0 1.32 0 2 0 C2 4.29 2 8.58 2 13 C3.65 13 5.3 13 7 13 C7 13.99 7 14.98 7 16 C4.69 16 2.38 16 0 16 C0 10.72 0 5.44 0 0 Z " fill="#272727" transform="translate(170,86)"/>
<path d="M0 0 C0.66 0 1.32 0 2 0 C2 3.3 2 6.6 2 10 C-0.31 10 -2.62 10 -5 10 C-5 9.34 -5 8.68 -5 8 C-4.01 8 -3.02 8 -2 8 C-2.66 5.69 -3.32 3.38 -4 1 C-3.34 1 -2.68 1 -2 1 C-2 1.66 -2 2.32 -2 3 C-1.34 3 -0.68 3 0 3 C0 2.01 0 1.02 0 0 Z " fill="#868686" transform="translate(235,214)"/>
<path d="M0 0 C1.98 0 3.96 0 6 0 C5.34 2.31 4.68 4.62 4 7 C3.34 7 2.68 7 2 7 C1.67 9.64 1.34 12.28 1 15 C2.98 15.495 2.98 15.495 5 16 C3.35 16 1.7 16 0 16 C0 10.72 0 5.44 0 0 Z " fill="#696969" transform="translate(141,86)"/>
<path d="M0 0 C2.0625 0.4375 2.0625 0.4375 4 1 C3.67 1.33 3.34 1.66 3 2 C2.92773498 3.85287502 2.9161878 5.70833878 2.9375 7.5625 C2.94652344 8.57441406 2.95554688 9.58632812 2.96484375 10.62890625 C2.97644531 11.41136719 2.98804688 12.19382812 3 13 C2.01 13 1.02 13 0 13 C-0.19397476 11.02145742 -0.38001321 9.0421352 -0.5625 7.0625 C-0.66691406 5.96035156 -0.77132812 4.85820313 -0.87890625 3.72265625 C-0.91886719 2.82417969 -0.95882812 1.92570312 -1 1 C-0.67 0.67 -0.34 0.34 0 0 Z " fill="#979797" transform="translate(157,86)"/>
<path d="M0 0 C3.375 -0.125 3.375 -0.125 7 0 C7.66 0.66 8.32 1.32 9 2 C5.31912647 4.45391569 2.55644412 4.22802759 -1.6875 4.125 C-2.7403418 4.11146484 -2.7403418 4.11146484 -3.81445312 4.09765625 C-5.54311525 4.07413704 -7.27160145 4.03826713 -9 4 C-9 3.67 -9 3.34 -9 3 C-5.7 2.67 -2.4 2.34 1 2 C0.67 1.34 0.34 0.68 0 0 Z " fill="#383838" transform="translate(179,175)"/>
<path d="M0 0 C2.0625 0.4375 2.0625 0.4375 4 1 C4 2.65 4 4.3 4 6 C2.125 6.625 2.125 6.625 0 7 C-0.66 6.34 -1.32 5.68 -2 5 C-1.46428571 1.46428571 -1.46428571 1.46428571 0 0 Z " fill="#A7A7A7" transform="translate(212,214)"/>
<path d="M0 0 C2.0625 0.4375 2.0625 0.4375 4 1 C4 2.65 4 4.3 4 6 C2.125 6.625 2.125 6.625 0 7 C-0.66 6.34 -1.32 5.68 -2 5 C-1.46428571 1.46428571 -1.46428571 1.46428571 0 0 Z " fill="#A7A7A7" transform="translate(38,214)"/>
<path d="M0 0 C2.0625 0.4375 2.0625 0.4375 4 1 C4.625 2.875 4.625 2.875 5 5 C4.34 5.66 3.68 6.32 3 7 C0.875 6.625 0.875 6.625 -1 6 C-1.042721 4.33388095 -1.04063832 2.66617115 -1 1 C-0.67 0.67 -0.34 0.34 0 0 Z " fill="#ABABAB" transform="translate(90,214)"/>
<path d="M0 0 C2.97 0.495 2.97 0.495 6 1 C5.67 2.65 5.34 4.3 5 6 C3.35 6 1.7 6 0 6 C0 4.02 0 2.04 0 0 Z " fill="#F8F8F8" transform="translate(221,188)"/>
<path d="M0 0 C0.99 0.33 1.98 0.66 3 1 C3 2.98 3 4.96 3 7 C1.68 7 0.36 7 -1 7 C-1.625 4.625 -1.625 4.625 -2 2 C-1.34 1.34 -0.68 0.68 0 0 Z " fill="#F7F7F7" transform="translate(171,212)"/>
<path d="M0 0 C3 1.8125 3 1.8125 6 4 C6 4.99 6 5.98 6 7 C4.02 7.33 2.04 7.66 0 8 C-0.33 7.01 -0.66 6.02 -1 5 C-0.01 5 0.98 5 2 5 C1.34 3.35 0.68 1.7 0 0 Z " fill="#8F8F8F" transform="translate(133,213)"/>
<path d="M0 0 C3.375 -0.125 3.375 -0.125 7 0 C7.66 0.66 8.32 1.32 9 2 C5.22777911 3.75163456 2.333361 4.22490027 -1.8125 4.125 C-3.27623047 4.09792969 -3.27623047 4.09792969 -4.76953125 4.0703125 C-5.50558594 4.04710937 -6.24164063 4.02390625 -7 4 C-7 3.67 -7 3.34 -7 3 C-4.36 2.67 -1.72 2.34 1 2 C0.67 1.34 0.34 0.68 0 0 Z " fill="#2B2B2B" transform="translate(220,175)"/>
<path d="M0 0 C0.66 0.33 1.32 0.66 2 1 C2 4.3 2 7.6 2 11 C1.01 11 0.02 11 -1 11 C-1.02688151 9.35425434 -1.04634123 7.70838587 -1.0625 6.0625 C-1.07410156 5.14597656 -1.08570312 4.22945313 -1.09765625 3.28515625 C-1 1 -1 1 0 0 Z " fill="#B8B8B8" transform="translate(111,88)"/>
<path d="M0 0 C0.99 0.33 1.98 0.66 3 1 C3 2.98 3 4.96 3 7 C1.35 7 -0.3 7 -2 7 C-2 5.02 -2 3.04 -2 1 C-1.34 0.67 -0.68 0.34 0 0 Z " fill="#828282" transform="translate(77,214)"/>
<path d="M0 0 C0.99 0.33 1.98 0.66 3 1 C2.01 2.485 2.01 2.485 1 4 C0.60986284 5.9896995 0.26797351 7.99019869 0 10 C-0.99 10 -1.98 10 -3 10 C-2.95875 9.2575 -2.9175 8.515 -2.875 7.75 C-3.00398134 4.91241048 -3.57051222 3.41226062 -5 1 C-4.34 1 -3.68 1 -3 1 C-2.34 1.66 -1.68 2.32 -1 3 C-0.67 2.01 -0.34 1.02 0 0 Z " fill="#757575" transform="translate(34,211)"/>
<path d="M0 0 C1.32 0 2.64 0 4 0 C3.67 2.31 3.34 4.62 3 7 C2.01 7 1.02 7 0 7 C-0.38133299 5.0085944 -0.71325582 3.00720923 -1 1 C-0.67 0.67 -0.34 0.34 0 0 Z " fill="#6F6F6F" transform="translate(35,86)"/>
<path d="M0 0 C0.33 1.32 0.66 2.64 1 4 C1.66 4 2.32 4 3 4 C3 2.68 3 1.36 3 0 C3.66 0 4.32 0 5 0 C5 1.98 5 3.96 5 6 C3.35 6 1.7 6 0 6 C0 4.02 0 2.04 0 0 Z " fill="#777777" transform="translate(178,215)"/>
<path d="M0 0 C0.99 0.33 1.98 0.66 3 1 C3 1.99 3 2.98 3 4 C2.01 4 1.02 4 0 4 C-0.33 4.66 -0.66 5.32 -1 6 C-1.625 4.125 -1.625 4.125 -2 2 C-1.34 1.34 -0.68 0.68 0 0 Z " fill="#919191" transform="translate(157,214)"/>
<path d="M0 0 C0.33 0.66 0.66 1.32 1 2 C3.31 2 5.62 2 8 2 C8 2.33 8 2.66 8 3 C6.329375 3.12375 6.329375 3.12375 4.625 3.25 C0.94246056 3.57873787 0.94246056 3.57873787 -0.4375 6.0625 C-0.623125 6.701875 -0.80875 7.34125 -1 8 C-2.2077558 4.37673261 -1.54311128 3.35853631 0 0 Z " fill="#3F3F3F" transform="translate(39,194)"/>
<path d="M0 0 C1.5 1.3125 1.5 1.3125 3 3 C3 3.99 3 4.98 3 6 C1.35 6 -0.3 6 -2 6 C-1.34 4.02 -0.68 2.04 0 0 Z " fill="#E6E6E6" transform="translate(43,189)"/>
<path d="M0 0 C0.33 0 0.66 0 1 0 C1 2.64 1 5.28 1 8 C-0.32 7.67 -1.64 7.34 -3 7 C-2.01 4.69 -1.02 2.38 0 0 Z " fill="#FDFDFD" transform="translate(236,216)"/>
<path d="M0 0 C0.66 0 1.32 0 2 0 C2 1.65 2 3.3 2 5 C0.68 5.33 -0.64 5.66 -2 6 C-2 4.68 -2 3.36 -2 2 C-1.34 2 -0.68 2 0 2 C0 1.34 0 0.68 0 0 Z " fill="#717171" transform="translate(112,215)"/>
</svg>
