<?xml version="1.0" encoding="UTF-8"?>
<svg version="1.1" xmlns="http://www.w3.org/2000/svg" width="516" height="458">
<path d="M0 0 C5.61875663 -0.32439528 11.23194222 -0.55855241 16.85791016 -0.71411133 C18.76545211 -0.77900576 20.67235957 -0.86737012 22.57763672 -0.98071289 C39.24746753 -1.94663649 39.24746753 -1.94663649 44.8059082 2.73413086 C47.42866998 5.3777576 49.63610605 8.24198136 51.75875854 11.29541016 C53.8358576 14.1478785 56.26331719 16.62633914 58.6875 19.1875 C61.96379245 22.74716496 65.2075561 26.335764 68.4375 29.9375 C72.89397711 34.90238091 77.41948062 39.80134952 81.94921875 44.69921875 C88.91219558 52.22861505 95.8312739 59.79579277 102.6796875 67.4296875 C105.78215409 70.86642659 108.91831086 74.27171513 112.0546875 77.67749023 C114.58573529 80.43293745 117.0690344 83.21861919 119.5 86.0625 C125.24553996 92.67607118 131.50708891 98.9571709 138.1875 104.625 C141.00987584 107.0245908 143.41058014 109.55493215 145.8125 112.375 C150.35905717 117.6026562 155.54866115 121.75211046 161 126 C162.01191406 126.81597656 163.02382813 127.63195312 164.06640625 128.47265625 C176.62482474 138.5127793 190.44442188 146.23580867 205 153 C205.60779297 153.28504395 206.21558594 153.57008789 206.84179688 153.86376953 C216.76986497 158.43165103 226.63830352 160.61228176 237.33154297 162.51464844 C241.98399358 163.36085812 246.61538244 164.31185868 251.25 165.25 C252.94261848 165.58899063 254.63531834 165.92757535 256.328125 166.265625 C258.14570312 166.62914062 258.14570312 166.62914062 260 167 C260 167.66 260 168.32 260 169 C258.75264433 169.6509259 257.50198168 170.29551669 256.25 170.9375 C255.55390625 171.29714844 254.8578125 171.65679687 254.140625 172.02734375 C238.35420018 179.20037255 210.0726195 174.68700071 194 170 C193.16823242 169.76925781 192.33646484 169.53851563 191.47949219 169.30078125 C157.81068824 159.78541086 131.6437526 138.87492534 107.3125 114.4375 C106.41466797 113.54353516 105.51683594 112.64957031 104.59179688 111.72851562 C100.08760916 107.21772836 95.71863422 102.65332403 91.56665039 97.81616211 C89.1364157 94.99887742 86.59892675 92.28394069 84.0625 89.5625 C80.60785153 85.85224934 77.22402873 82.11133314 73.9375 78.25 C70.23577164 74.04034218 66.03773157 70.6638727 61.6640625 67.17578125 C55.08445172 61.80211086 49.72999284 55.59336029 44.41796875 48.9921875 C41.81698231 45.7735193 39.17041099 42.59855738 36.5 39.4375 C35.6646875 38.44621094 34.829375 37.45492187 33.96875 36.43359375 C26.4870863 27.7254278 18.60722403 19.49433428 10.4375 11.4375 C8.45417906 9.48072024 6.47419173 7.52065143 4.49609375 5.55859375 C3.63169678 4.70579834 2.7672998 3.85300293 1.87670898 2.97436523 C0 1 0 1 0 0 Z " fill="#010101" transform="translate(143,176)"/>
<path d="M0 0 C5.20994655 -0.27445014 10.41558995 -0.47262776 15.63110352 -0.60424805 C17.39975334 -0.65916106 19.16791319 -0.73393012 20.93481445 -0.82983398 C36.35296866 -1.64498661 36.35296866 -1.64498661 41.43896484 2.21630859 C44.31884412 4.85888935 46.6599086 7.87404336 49 11 C50.1972113 12.38469475 51.40432771 13.76094223 52.625 15.125 C53.16640625 15.75792969 53.7078125 16.39085937 54.265625 17.04296875 C57.65951574 20.87256168 61.35274241 24.413938 65 28 C69.92910718 32.84640404 74.68972211 37.72997619 79.1953125 42.97265625 C82.62009831 46.81998057 86.32854526 50.39014685 90 54 C95.01497834 58.93083441 99.86966577 63.90052784 104.45410156 69.23583984 C106.48182274 71.54985015 108.65762716 73.68098503 110.875 75.8125 C114.18966044 79.08746391 117.22828724 82.41396866 120.125 86.0625 C124.22193731 91.1909876 128.6199223 95.97733986 133.125 100.75 C133.79418457 101.45906494 134.46336914 102.16812988 135.15283203 102.89868164 C142.71335159 110.86286396 150.33849633 118.22237338 159 125 C159.5465625 125.42829102 160.093125 125.85658203 160.65625 126.29785156 C183.99974756 144.42885222 210.40780205 158.22208081 239.625 163.25 C241.7727609 163.63171679 243.91990349 164.01677116 246.06698608 164.40228271 C247.98723362 164.74520772 249.90886275 165.08037023 251.83056641 165.41503906 C254.25660995 165.86279752 256.62007094 166.35853764 259 167 C259 167.66 259 168.32 259 169 C257.730447 169.64834654 256.45930294 170.29357815 255.1875 170.9375 C254.47980469 171.29714844 253.77210938 171.65679687 253.04296875 172.02734375 C233.82861517 181.17528647 200.60591955 172.96772103 181.75 166.3125 C151.6493884 155.03957229 127.72694413 134.74942554 105.1875 112.3125 C104.48222168 111.61189453 103.77694336 110.91128906 103.05029297 110.18945312 C98.49679585 105.62199152 94.20268633 100.89024238 90 96 C85.39507903 90.78956182 80.74785788 85.67819205 75.77929688 80.81225586 C74.03030365 79.03086498 72.40883349 77.18808764 70.7890625 75.2890625 C67.05011973 70.98932768 63.06614094 66.98824552 59 63 C55.04132627 59.11716293 51.14941662 55.23659338 47.53125 51.03125 C43.73857952 46.62796818 39.64426794 42.57013076 35.5 38.5 C30.7127505 33.79839002 26.11292735 29.04294702 21.73730469 23.95556641 C18.18027402 19.95165752 14.27808636 16.2775323 10.4296875 12.55664062 C9.48609375 11.62948242 9.48609375 11.62948242 8.5234375 10.68359375 C7.96575684 10.14275146 7.40807617 9.60190918 6.83349609 9.04467773 C4.28579628 6.20353447 2.18250357 3.13024955 0 0 Z " fill="#010101" transform="translate(240,176)"/>
<path d="M0 0 C28.38 0 56.76 0 86 0 C86 0.66 86 1.32 86 2 C83.78114368 3.63079877 81.56300506 5.13842691 79.25 6.625 C78.57565918 7.07230469 77.90131836 7.51960937 77.20654297 7.98046875 C73.97742002 10.11547634 70.73604648 12.17822534 67.3671875 14.0859375 C66.29726562 14.71757812 65.22734375 15.34921875 64.125 16 C63.15820312 16.53625 62.19140625 17.0725 61.1953125 17.625 C55.90938722 23.34358109 57.7072456 35.69803585 57.47265625 43.13671875 C57.41066795 45.01988045 57.41066795 45.01988045 57.34742737 46.94108582 C56.88751554 61.56187763 56.65676182 76.18639423 56.4375 90.8125 C56.39443328 93.57097236 56.35056819 96.32943185 56.30664062 99.08789062 C56.20115987 105.72521727 56.10066415 112.36259174 56 119 C47.09 119 38.18 119 29 119 C28.97812622 114.85268311 28.97812622 114.85268311 28.95581055 110.62158203 C28.90535419 101.46128991 28.83873972 92.3011658 28.76428509 83.14103889 C28.71965855 77.5901346 28.68038543 72.0393024 28.65356445 66.48828125 C28.62745451 61.12593661 28.5869978 55.76387054 28.53681374 50.40169907 C28.52019695 48.3613419 28.5086505 46.32093661 28.50238609 44.28052139 C28.4926884 41.41084197 28.46456195 38.54186697 28.43237305 35.67236328 C28.43452568 34.4218644 28.43452568 34.4218644 28.4367218 33.14610291 C28.32342377 25.95085888 27.3942185 18.63072945 22.4296875 13.17578125 C18.31777297 10.28320068 13.68958064 8.25324771 9.125 6.1875 C8.24585938 5.78080078 7.36671875 5.37410156 6.4609375 4.95507812 C4.31089731 3.96185304 2.15739467 2.97712027 0 2 C0 1.34 0 0.68 0 0 Z " fill="#010101" transform="translate(43,0)"/>
<path d="M0 0 C9.36257737 -0.02324109 18.72514471 -0.04097483 28.08774471 -0.05181217 C32.43586692 -0.05701535 36.78396929 -0.06406608 41.13208008 -0.07543945 C45.33366146 -0.0863599 49.53522383 -0.09229613 53.73681831 -0.09487724 C55.33425762 -0.09671506 56.93169597 -0.10030367 58.52912712 -0.10573006 C66.41389836 -0.13143218 74.1754437 -0.12111888 82 1 C79.39175011 3.04704109 76.85021182 4.68666634 73.8671875 6.12890625 C73.06966064 6.51908936 72.27213379 6.90927246 71.45043945 7.3112793 C70.60054443 7.72418213 69.75064941 8.13708496 68.875 8.5625 C42.97290445 21.08129643 42.97290445 21.08129643 23.48046875 41.49609375 C20.09086359 46.39425216 16.05736102 50.65445259 12 55 C10.78624946 56.39112536 9.57758747 57.78671325 8.375 59.1875 C5.62659633 62.34753094 2.72538581 65.29367575 -0.2578125 68.23046875 C-2.66183038 70.67221785 -4.88909359 73.24850149 -7.125 75.84375 C-9.17359094 78.19962958 -11.27203002 80.5050746 -13.375 82.8125 C-17.24156213 87.09636395 -20.90521673 91.51130028 -24.53515625 95.99609375 C-27.87779535 100.0697696 -31.31044233 104.06287806 -34.7512207 108.05371094 C-35.23034912 108.60961914 -35.70947754 109.16552734 -36.203125 109.73828125 C-36.68048096 110.27710937 -37.15783691 110.8159375 -37.6496582 111.37109375 C-39.03086305 112.96458575 -39.03086305 112.96458575 -40.09057617 114.73828125 C-41.18359375 116.39453125 -41.18359375 116.39453125 -44 119 C-47.6337552 119.72246365 -51.12657801 119.56808389 -54.8125 119.375 C-55.79154297 119.34792969 -56.77058594 119.32085937 -57.77929688 119.29296875 C-60.18846621 119.22245648 -62.59308819 119.12398568 -65 119 C-63.68634784 116.17661664 -62.22203388 113.86065127 -60.2421875 111.4609375 C-59.43394531 110.47480469 -59.43394531 110.47480469 -58.609375 109.46875 C-58.03703125 108.7778125 -57.4646875 108.086875 -56.875 107.375 C-55.68461697 105.92470801 -54.49451167 104.47418802 -53.3046875 103.0234375 C-52.44375488 101.97687988 -52.44375488 101.97687988 -51.56542969 100.90917969 C-49.69006406 98.62200576 -47.84091434 96.31496953 -46 94 C-43.14770297 90.42111784 -40.26635157 86.86717869 -37.37475586 83.32006836 C-32.21876868 76.9942667 -27.10875579 70.63845784 -22.08569336 64.20654297 C-19.80292698 61.28595086 -17.50674053 58.37842838 -15.17578125 55.49609375 C-9.34129167 48.2809384 -3.64608935 40.97406641 1.9375 33.5625 C2.56430664 32.73411621 3.19111328 31.90573242 3.83691406 31.05224609 C11.28465274 21.88289532 11.28465274 21.88289532 15 11 C14.40832031 10.82984375 13.81664062 10.6596875 13.20703125 10.484375 C8.42445928 9.01761557 4.56800561 7.67950578 1 4 C0.375 1.87109375 0.375 1.87109375 0 0 Z " fill="#010101" transform="translate(292,0)"/>
<path d="M0 0 C27.39 0 54.78 0 83 0 C83 0.66 83 1.32 83 2 C82.06317383 2.44279297 81.12634766 2.88558594 80.16113281 3.34179688 C76.62289817 5.0172419 73.09071423 6.70513434 69.56005859 8.39648438 C68.04307935 9.12114578 66.52456574 9.84260561 65.00439453 10.56054688 C52.82717266 16.31559035 40.87103038 22.25448106 31.4375 32.125 C30.90358643 32.67067627 30.36967285 33.21635254 29.81958008 33.77856445 C24.51273247 39.31029848 19.82857346 45.29810762 15.20947266 51.40576172 C8.69136911 59.99744847 1.63047566 68.00766373 -5.69921875 75.91015625 C-10.88818616 81.51191343 -15.88374964 87.19297446 -20.6796875 93.140625 C-41.5390118 118.84605495 -41.5390118 118.84605495 -45.15478516 119.22705078 C-46.45875244 119.21134033 -46.45875244 119.21134033 -47.7890625 119.1953125 C-48.73007813 119.18886719 -49.67109375 119.18242188 -50.640625 119.17578125 C-51.62546875 119.15902344 -52.6103125 119.14226562 -53.625 119.125 C-55.11386719 119.11146484 -55.11386719 119.11146484 -56.6328125 119.09765625 C-59.08878134 119.07404116 -61.54427168 119.04110799 -64 119 C-62.48657699 114.14063575 -59.69650633 111.0299948 -56.375 107.3125 C-55.28129517 106.06359961 -54.18885016 104.81359484 -53.09765625 103.5625 C-52.56543457 102.9540625 -52.03321289 102.345625 -51.48486328 101.71875 C-48.87106196 98.69323844 -46.40147846 95.55724136 -43.921875 92.421875 C-40.33623264 87.90338259 -36.65876306 83.45931292 -33 79 C-31.49971683 77.16689838 -29.99971592 75.33356573 -28.5 73.5 C-25.5 69.83333333 -22.5 66.16666667 -19.5 62.5 C-18.75363281 61.58734375 -18.00726563 60.6746875 -17.23828125 59.734375 C-15.77905388 57.95172376 -14.31819398 56.17040725 -12.85546875 54.390625 C-10.56364257 51.59913942 -8.28137433 48.80003336 -6 46 C-5.52095215 45.41669922 -5.0419043 44.83339844 -4.54833984 44.23242188 C8.89082385 29.31984367 8.89082385 29.31984367 14.40234375 10.9296875 C14.12532243 8.66744668 14.12532243 8.66744668 11.5 6.6875 C7.71064965 4.86049179 3.97605342 3.3710529 0 2 C0 1.34 0 0.68 0 0 Z " fill="#010101" transform="translate(194,0)"/>
<path d="M0 0 C8.91 0 17.82 0 27 0 C27.04898438 3.32191406 27.09796875 6.64382812 27.1484375 10.06640625 C27.56965435 39.64355093 27.56965435 39.64355093 28.9375 69.1875 C29.01210449 70.39929932 29.08670898 71.61109863 29.16357422 72.85961914 C29.55129969 84.261387 29.55129969 84.261387 35.125 93.625 C39.73919111 97.36600467 45.05883574 99.17874533 50.62744141 101.04736328 C55.91146242 102.82292484 55.91146242 102.82292484 57 105 C28.62 105 0.24 105 -29 105 C-29 104.34 -29 103.68 -29 103 C-27.56640625 101.95019531 -27.56640625 101.95019531 -25.5625 100.828125 C-24.47219482 100.20671631 -24.47219482 100.20671631 -23.35986328 99.57275391 C-22.5811084 99.13624512 -21.80235352 98.69973633 -21 98.25 C-8.6000333 91.94473111 -8.6000333 91.94473111 -0.42164612 81.35125732 C0.1789133 78.00231213 0.13035193 74.68392731 0.11352539 71.29394531 C0.11367142 70.52282913 0.11381744 69.75171295 0.1139679 68.95722961 C0.11327249 66.4141659 0.10549749 63.87117588 0.09765625 61.328125 C0.09579075 59.56264282 0.09436747 57.79716013 0.09336853 56.03167725 C0.08955375 51.38908454 0.07973232 46.7465232 0.06866455 42.10394287 C0.0584281 37.36487248 0.05386612 32.62579701 0.04882812 27.88671875 C0.03810913 18.59112984 0.02052072 9.29557244 0 0 Z " fill="#010101" transform="translate(72,176)"/>
<path d="M0 0 C64.68 0 129.36 0 196 0 C196 4.62 196 9.24 196 14 C131.32 14 66.64 14 0 14 C0 9.38 0 4.76 0 0 Z " fill="#010101" transform="translate(40,302)"/>
<path d="M0 0 C0.99 0.33 1.98 0.66 3 1 C4.134375 0.814375 5.26875 0.62875 6.4375 0.4375 C10.00382887 -0.00047021 11.1824805 -0.08705148 14 2 C16.42869909 5.64304864 16.25675675 8.30722339 16.1953125 12.51171875 C16.1924826 13.23994339 16.18965271 13.96816803 16.18673706 14.71846008 C16.17555257 17.04164137 16.15045166 19.36443547 16.125 21.6875 C16.11496794 23.2636663 16.10584248 24.83983865 16.09765625 26.41601562 C16.07561896 30.27749267 16.04110141 34.13868071 16 38 C14.02 38 12.04 38 10 38 C9.67 28.1 9.34 18.2 9 8 C8.34 7.67 7.68 7.34 7 7 C6.67 17.23 6.34 27.46 6 38 C3.69 38 1.38 38 -1 38 C-1 27.77 -1 17.54 -1 7 C-1.99 7.33 -2.98 7.66 -4 8 C-4.33 17.9 -4.66 27.8 -5 38 C-6.98 38 -8.96 38 -11 38 C-11.12394421 33.39194479 -11.21449675 28.78486719 -11.2746582 24.17553711 C-11.29974547 22.60895886 -11.33382415 21.04249701 -11.37719727 19.47631836 C-11.43811226 17.21959691 -11.46626499 14.96442706 -11.48828125 12.70703125 C-11.51408768 12.01100296 -11.5398941 11.31497467 -11.56648254 10.59785461 C-11.56869782 6.72458465 -11.09442129 5.11961346 -8.66479492 2.04174805 C-5.45194973 -0.41991245 -3.95578102 -0.51597144 0 0 Z " fill="#010101" transform="translate(256,130)"/>
<path d="M0 0 C12 0 12 0 15.25 1.8125 C18.0443804 6.90226431 17.89122883 12.63115501 16.4140625 18.21484375 C15.77920371 20.08986015 15.77920371 20.08986015 17 22 C17.17369832 23.95339423 17.26696102 25.91442704 17.3125 27.875 C17.34988281 28.92429688 17.38726562 29.97359375 17.42578125 31.0546875 C17 34 17 34 13 38 C8.71 38 4.42 38 0 38 C0 25.46 0 12.92 0 0 Z M7 6 C7 9.3 7 12.6 7 16 C7.99 16 8.98 16 10 16 C11.35439668 13.29120665 11.06501451 10.99066732 11 8 C9.68 7.34 8.36 6.68 7 6 Z M7 22 C7 25.3 7 28.6 7 32 C7.99 32 8.98 32 10 32 C11.35439668 29.29120665 11.06501451 26.99066732 11 24 C9.68 23.34 8.36 22.68 7 22 Z " fill="#010101" transform="translate(289,130)"/>
<path d="M0 0 C12 0 12 0 15.25 1.6875 C17.97623943 6.84788178 17.90507251 12.28295862 17 18 C16.46761719 18.48210937 15.93523437 18.96421875 15.38671875 19.4609375 C14.92910156 19.96882813 14.47148438 20.47671875 14 21 C14.30115524 24.36234565 14.30115524 24.36234565 15.3125 28 C17 34.83544304 17 34.83544304 17 38 C15.02 38 13.04 38 11 38 C10.01 34.7 9.02 31.4 8 28 C7.67 31.3 7.34 34.6 7 38 C4.69 38 2.38 38 0 38 C0 25.46 0 12.92 0 0 Z M7 6 C7 9.3 7 12.6 7 16 C8.32 15.67 9.64 15.34 11 15 C11 12.69 11 10.38 11 8 C9.68 7.34 8.36 6.68 7 6 Z " fill="#010101" transform="translate(67,130)"/>
<path d="M0 0 C3.52165723 2.7125711 4.86599067 4.15081317 5.56762695 8.59692383 C5.56684323 9.96721468 5.53905223 11.33768106 5.48828125 12.70703125 C5.48120651 13.43242599 5.47413177 14.15782074 5.46684265 14.90519714 C5.43898406 17.20870703 5.37627191 19.50973251 5.3125 21.8125 C5.28740563 23.37952203 5.26459444 24.9465824 5.24414062 26.51367188 C5.18918681 30.34339656 5.10298226 34.17127797 5 38 C3.02 38 1.04 38 -1 38 C-1 32.72 -1 27.44 -1 22 C-2.32 22 -3.64 22 -5 22 C-5 27.28 -5 32.56 -5 38 C-7.31 38 -9.62 38 -12 38 C-12.04961351 33.81910808 -12.08582016 29.63837434 -12.10986328 25.45727539 C-12.11989146 24.03634657 -12.13351741 22.61543822 -12.15087891 21.19458008 C-12.17526821 19.14659556 -12.1865149 17.09888502 -12.1953125 15.05078125 C-12.21102295 13.20480347 -12.21102295 13.20480347 -12.22705078 11.3215332 C-11.94083076 7.1344113 -11.18710209 4.2294986 -8.25 1.1875 C-5.19070075 -0.42713016 -3.41702282 -0.55788128 0 0 Z M-5 7 C-5 9.97 -5 12.94 -5 16 C-3.68 16 -2.36 16 -1 16 C-1 13.36 -1 10.72 -1 8 C-2.32 7.67 -3.64 7.34 -5 7 Z " fill="#010101" transform="translate(45,130)"/>
<path d="M0 0 C3.97586843 0.97652909 5.09801557 1.68771978 7.5625 4.875 C8.08007812 7.82006836 8.08007812 7.82006836 8.09375 11.21484375 C8.09890625 12.44267578 8.1040625 13.67050781 8.109375 14.93554688 C8.09390625 16.21494141 8.0784375 17.49433594 8.0625 18.8125 C8.07796875 20.08802734 8.0934375 21.36355469 8.109375 22.67773438 C8.10421875 23.90685547 8.0990625 25.13597656 8.09375 26.40234375 C8.08923828 27.52374756 8.08472656 28.64515137 8.08007812 29.80053711 C7.45276143 33.52685747 6.1955355 35.21085485 3.5625 37.875 C1.30859375 38.46875 1.30859375 38.46875 -1 38.375 C-1.76441406 38.3646875 -2.52882813 38.354375 -3.31640625 38.34375 C-5.91942489 37.76849726 -6.81705751 36.96335141 -8.4375 34.875 C-10.09884997 29.89095008 -9.66399351 24.71844065 -9.6875 19.5 C-9.708125 18.36304688 -9.72875 17.22609375 -9.75 16.0546875 C-9.75515625 14.95640625 -9.7603125 13.858125 -9.765625 12.7265625 C-9.7749707 11.72447754 -9.78431641 10.72239258 -9.79394531 9.68994141 C-9.37465113 6.37866612 -8.40985876 4.54814117 -6.4375 1.875 C-3.4375 -0.125 -3.4375 -0.125 0 0 Z M-2.4375 6.875 C-2.4375 15.125 -2.4375 23.375 -2.4375 31.875 C-1.1175 31.545 0.2025 31.215 1.5625 30.875 C1.5625 23.285 1.5625 15.695 1.5625 7.875 C0.2425 7.545 -1.0775 7.215 -2.4375 6.875 Z " fill="#010101" transform="translate(332.4375,130.125)"/>
<path d="M0 0 C3.70862953 0.69536804 5.38233677 1.87004639 8 4.5625 C9.68687619 9.46869624 9.22451779 14.81557504 9.25 19.9375 C9.270625 20.96617187 9.29125 21.99484375 9.3125 23.0546875 C9.34114474 28.61176706 9.26744696 32.81994349 6 37.5625 C2.87057535 39.12721233 -0.61082223 39.25951958 -4 38.5625 C-6.87692113 36.34133039 -7.89689722 35.14945447 -8.53344727 31.52563477 C-8.59915496 24.50464548 -8.59915496 24.50464548 -8.57641602 22.14526367 C-8.56255901 20.13356701 -8.59661216 18.12653743 -8.63476562 16.11523438 C-8.63283203 14.84099609 -8.63089844 13.56675781 -8.62890625 12.25390625 C-8.62963135 11.09060791 -8.63035645 9.92730957 -8.63110352 8.72875977 C-7.64431449 3.7780182 -4.98011007 0.93377064 0 0 Z M-1 7.5625 C-2.2505313 8.58964661 -2.2505313 8.58964661 -2.11352539 10.78735352 C-2.10828857 11.74569092 -2.10305176 12.70402832 -2.09765625 13.69140625 C-2.09443359 14.72587891 -2.09121094 15.76035156 -2.08789062 16.82617188 C-2.07951172 17.91478516 -2.07113281 19.00339844 -2.0625 20.125 C-2.05798828 21.21748047 -2.05347656 22.30996094 -2.04882812 23.43554688 C-2.03699826 26.14458495 -2.02051543 28.85351599 -2 31.5625 C-0.68 31.5625 0.64 31.5625 2 31.5625 C2 23.6425 2 15.7225 2 7.5625 C1.01 7.5625 0.02 7.5625 -1 7.5625 Z " fill="#010101" transform="translate(219,129.4375)"/>
<path d="M0 0 C16 0 16 0 22 3 C25.17974815 6.60371457 25.57339666 10.12357361 25.42578125 14.77734375 C24.68913463 18.62277425 22.8404281 20.35774131 20 23 C19.01 23.33 18.02 23.66 17 24 C18.53254207 27.48305015 20.66801044 30.32062627 22.9765625 33.31640625 C24 35 24 35 24 38 C21.69458008 38.23022461 21.69458008 38.23022461 19 38 C17.33081055 36.45532227 17.33081055 36.45532227 15.88671875 34.31640625 C15.36142578 33.55392578 14.83613281 32.79144531 14.29492188 32.00585938 C13.76447266 31.19955078 13.23402344 30.39324219 12.6875 29.5625 C11.86282227 28.35883789 11.86282227 28.35883789 11.02148438 27.13085938 C7 21.21103455 7 21.21103455 7 20 C7.69867188 19.87882812 8.39734375 19.75765625 9.1171875 19.6328125 C10.02726562 19.46523438 10.93734375 19.29765625 11.875 19.125 C13.23238281 18.88136719 13.23238281 18.88136719 14.6171875 18.6328125 C17.16505988 18.16955297 17.16505988 18.16955297 19 16 C19.24212873 14.01871492 19.24212873 14.01871492 19.125 11.875 C19.08375 10.59625 19.0425 9.3175 19 8 C13.91072361 5.07366608 11.31047213 4.78880902 5 4 C5 15.22 5 26.44 5 38 C3.35 38 1.7 38 0 38 C0 25.46 0 12.92 0 0 Z " fill="#010101" transform="translate(472,368)"/>
<path d="M0 0 C2.95235207 2.8127493 3.92596391 4.42852896 4.45410156 8.50512695 C4.42268066 10.47678833 4.42268066 10.47678833 4.390625 12.48828125 C4.38496521 13.19147995 4.37930542 13.89467865 4.37347412 14.6191864 C4.35119769 16.85100248 4.30102373 19.08117461 4.25 21.3125 C4.22992343 22.83135691 4.21167468 24.35023916 4.1953125 25.86914062 C4.15136357 29.57995545 4.08239921 33.2898171 4 37 C2.02 37 0.04 37 -2 37 C-2.33 27.1 -2.66 17.2 -3 7 C-3.99 7 -4.98 7 -6 7 C-6.33 16.9 -6.66 26.8 -7 37 C-8.98 37 -10.96 37 -13 37 C-13.04951788 32.5159659 -13.08577526 28.03207761 -13.10986328 23.54785156 C-13.11990744 22.02308377 -13.13354531 20.49833516 -13.15087891 18.97363281 C-13.17519738 16.77924862 -13.18649889 14.58511958 -13.1953125 12.390625 C-13.20578613 11.07094727 -13.21625977 9.75126953 -13.22705078 8.39160156 C-13.01639302 5.244873 -12.7385187 3.57633096 -11 1 C-7.43424307 -1.7733665 -4.19374333 -1.12332411 0 0 Z " fill="#010101" transform="translate(144,131)"/>
<path d="M0 0 C1.98 0 3.96 0 6 0 C6.33 1.98 6.66 3.96 7 6 C7.99 4.02 8.98 2.04 10 0 C11.98 0 13.96 0 16 0 C15.5720166 3.42386722 14.56329751 5.86089022 12.875 8.8125 C9.50374198 15.43197743 11.9741799 21.05090865 14.0625 27.75 C14.42472656 28.83796875 14.78695312 29.9259375 15.16015625 31.046875 C16 34 16 34 16 38 C14.02 38 12.04 38 10 38 C9.01 35.36 8.02 32.72 7 30 C6.67 32.64 6.34 35.28 6 38 C4.02 38 2.04 38 0 38 C0 25.46 0 12.92 0 0 Z " fill="#010101" transform="translate(177,130)"/>
<path d="M0 0 C1.98 0 3.96 0 6 0 C6.33 1.65 6.66 3.3 7 5 C7.37125 4.175 7.7425 3.35 8.125 2.5 C8.74375 1.675 9.3625 0.85 10 0 C13.1875 -0.3125 13.1875 -0.3125 16 0 C15.56661254 1.35548844 15.12802005 2.70931276 14.6875 4.0625 C14.44386719 4.81660156 14.20023438 5.57070312 13.94921875 6.34765625 C13 9 13 9 11.21875 12.19921875 C9.52371513 17.48533712 10.92324915 20.68852878 12.8125 25.75 C13.40561841 27.43113993 13.9956038 29.1133894 14.58203125 30.796875 C14.85249268 31.53260742 15.1229541 32.26833984 15.40161133 33.02636719 C16 35 16 35 16 38 C14.02 38 12.04 38 10 38 C8.515 34.535 8.515 34.535 7 31 C6.67 33.31 6.34 35.62 6 38 C4.02 38 2.04 38 0 38 C0 25.46 0 12.92 0 0 Z " fill="#010101" transform="translate(0,130)"/>
<path d="M0 0 C1.98 0 3.96 0 6 0 C8.00285421 4.76514933 9.99640041 9.53404483 11.98144531 14.30664062 C12.65793921 15.92944766 13.33695818 17.5512045 14.01855469 19.171875 C14.99821113 21.50248625 15.9687047 23.83673171 16.9375 26.171875 C17.24373291 26.89493835 17.54996582 27.61800171 17.86547852 28.36297607 C19.30296981 31.85247688 20 34.16740382 20 38 C17.64453125 37.80859375 17.64453125 37.80859375 15 37 C13.63671875 34.78515625 13.63671875 34.78515625 12.6875 32.0625 C12.36136719 31.16660156 12.03523438 30.27070313 11.69921875 29.34765625 C11 27 11 27 11 25 C5.72 25 0.44 25 -5 25 C-5.45375 26.4025 -5.9075 27.805 -6.375 29.25 C-7.36783204 32.31875358 -8.49439503 35.14589666 -10 38 C-11.65 38 -13.3 38 -15 38 C-14.42023755 33.48090202 -13.22807623 29.82601802 -11.34765625 25.68359375 C-10.81849609 24.50732422 -10.28933594 23.33105469 -9.74414062 22.11914062 C-9.1838544 20.89180806 -8.62330518 19.66459553 -8.0625 18.4375 C-6.9680559 16.02043023 -5.87690241 13.60188445 -4.78515625 11.18359375 C-4.29926025 10.11681396 -3.81336426 9.05003418 -3.31274414 7.95092773 C-2.1432248 5.32195614 -1.04715986 2.67965206 0 0 Z M3 7 C2.18247697 8.58074564 1.37118003 10.16471223 0.5625 11.75 C0.11003906 12.63171875 -0.34242187 13.5134375 -0.80859375 14.421875 C-2.17346553 17.1645798 -2.17346553 17.1645798 -3 21 C0.96 21 4.92 21 9 21 C7.35 16.38 5.7 11.76 4 7 C3.67 7 3.34 7 3 7 Z " fill="#010101" transform="translate(55,368)"/>
<path d="M0 0 C4.29 0 8.58 0 13 0 C13 1.98 13 3.96 13 6 C11.02 6 9.04 6 7 6 C7 9.3 7 12.6 7 16 C8.98 16 10.96 16 13 16 C13 17.98 13 19.96 13 22 C11.02 22 9.04 22 7 22 C7 25.3 7 28.6 7 32 C8.98 32 10.96 32 13 32 C13 33.98 13 35.96 13 38 C8.71 38 4.42 38 0 38 C0 25.46 0 12.92 0 0 Z " fill="#010101" transform="translate(101,130)"/>
<path d="M0 0 C1.25425781 0.02707031 2.50851562 0.05414063 3.80078125 0.08203125 C4.75339844 0.11683594 5.70601563 0.15164063 6.6875 0.1875 C6.6875 1.5075 6.6875 2.8275 6.6875 4.1875 C5.44033203 4.26097656 5.44033203 4.26097656 4.16796875 4.3359375 C3.08128906 4.41070312 1.99460937 4.48546875 0.875 4.5625 C-0.20394531 4.63210938 -1.28289062 4.70171875 -2.39453125 4.7734375 C-5.49876186 4.99945733 -5.49876186 4.99945733 -8.3125 7.1875 C-8.89243699 9.38204681 -8.89243699 9.38204681 -9 11.8125 C-9.1546875 13.978125 -9.1546875 13.978125 -9.3125 16.1875 C-5.3525 16.1875 -1.3925 16.1875 2.6875 16.1875 C2.6875 17.8375 2.6875 19.4875 2.6875 21.1875 C-1.2725 21.1875 -5.2325 21.1875 -9.3125 21.1875 C-9.0959375 23.353125 -9.0959375 23.353125 -8.875 25.5625 C-8.79378906 26.37460937 -8.71257812 27.18671875 -8.62890625 28.0234375 C-8.42159886 30.23022805 -8.42159886 30.23022805 -7.3125 32.1875 C-4.03694392 32.65751033 -4.03694392 32.65751033 -0.25 32.8125 C1.04035156 32.88726562 2.33070313 32.96203125 3.66015625 33.0390625 C4.65917969 33.08804688 5.65820312 33.13703125 6.6875 33.1875 C6.6875 34.8375 6.6875 36.4875 6.6875 38.1875 C-7.74715563 38.76574288 -7.74715563 38.76574288 -12.3125 35.1875 C-14.01709079 31.72223665 -14.56809241 28.90354962 -14.578125 25.0625 C-14.58070313 24.10859375 -14.58328125 23.1546875 -14.5859375 22.171875 C-14.57820313 21.18703125 -14.57046875 20.2021875 -14.5625 19.1875 C-14.57023437 18.20265625 -14.57796875 17.2178125 -14.5859375 16.203125 C-14.58335937 15.24921875 -14.58078125 14.2953125 -14.578125 13.3125 C-14.57586914 12.44882812 -14.57361328 11.58515625 -14.57128906 10.6953125 C-14.15902408 6.70023151 -13.25919122 3.97385072 -10.14453125 1.38671875 C-6.58748886 -0.11950472 -3.8494444 -0.10792835 0 0 Z " fill="#010101" transform="translate(414.3125,367.8125)"/>
<path d="M0 0 C1.28132812 0.00902344 2.56265625 0.01804687 3.8828125 0.02734375 C4.87023437 0.03894531 5.85765625 0.05054688 6.875 0.0625 C6.875 1.3825 6.875 2.7025 6.875 4.0625 C2.255 4.3925 -2.365 4.7225 -7.125 5.0625 C-7.455 8.6925 -7.785 12.3225 -8.125 16.0625 C-4.495 16.0625 -0.865 16.0625 2.875 16.0625 C2.875 17.7125 2.875 19.3625 2.875 21.0625 C-0.755 21.0625 -4.385 21.0625 -8.125 21.0625 C-7.980625 22.691875 -7.83625 24.32125 -7.6875 26 C-7.60628906 26.91652344 -7.52507812 27.83304687 -7.44140625 28.77734375 C-7.36455024 31.02409732 -7.36455024 31.02409732 -6.125 32.0625 C-3.94207226 32.29731693 -1.75296826 32.47613323 0.4375 32.625 C1.63503906 32.70878906 2.83257812 32.79257812 4.06640625 32.87890625 C5.45666016 32.96978516 5.45666016 32.96978516 6.875 33.0625 C6.875 34.7125 6.875 36.3625 6.875 38.0625 C-6.1046748 38.62957317 -6.1046748 38.62957317 -11.125 35.0625 C-14.35746245 30.21380633 -13.49383833 24.88704173 -13.5 19.1875 C-13.52449219 18.00285156 -13.54898438 16.81820313 -13.57421875 15.59765625 C-13.57808594 14.45425781 -13.58195313 13.31085938 -13.5859375 12.1328125 C-13.59415527 11.08883301 -13.60237305 10.04485352 -13.61083984 8.96923828 C-13.00507222 5.34498234 -11.64417675 3.68612899 -9.125 1.0625 C-6.12186252 -0.43906874 -3.33432478 -0.03031204 0 0 Z " fill="#010101" transform="translate(213.125,367.9375)"/>
<path d="M0 0 C2.31 0 4.62 0 7 0 C7 10.56 7 21.12 7 32 C10.3 32 13.6 32 17 32 C17 33.98 17 35.96 17 38 C11.39 38 5.78 38 0 38 C0 25.46 0 12.92 0 0 Z " fill="#010101" transform="translate(357,130)"/>
<path d="M0 0 C1.32 0 2.64 0 4 0 C4.02505615 0.89831543 4.0501123 1.79663086 4.07592773 2.72216797 C4.17098693 6.05074869 4.27022421 9.37914994 4.37231445 12.70751953 C4.41566231 14.1488762 4.45733752 15.59028418 4.49731445 17.03173828 C4.55502088 19.10204541 4.61871371 21.17209432 4.68359375 23.2421875 C4.72025146 24.4885498 4.75690918 25.73491211 4.79467773 27.01904297 C4.80289479 29.92636942 4.80289479 29.92636942 6 32 C9.27555608 32.47001033 9.27555608 32.47001033 13.0625 32.625 C14.35285156 32.69976562 15.64320313 32.77453125 16.97265625 32.8515625 C17.97167969 32.90054688 18.97070312 32.94953125 20 33 C20 34.65 20 36.3 20 38 C18.10448978 38.05441656 16.2085208 38.09298035 14.3125 38.125 C13.25675781 38.14820313 12.20101563 38.17140625 11.11328125 38.1953125 C7.25105022 37.95301444 4.56804342 37.06554393 1.375 34.89575195 C-0.74113777 31.97817209 -0.3688895 28.95167491 -0.29296875 25.48828125 C-0.28872391 24.76005661 -0.28447906 24.03183197 -0.28010559 23.28153992 C-0.26332733 20.95814873 -0.22567855 18.6356285 -0.1875 16.3125 C-0.17245197 14.73634066 -0.15876377 13.16016771 -0.14648438 11.58398438 C-0.11342685 7.72232123 -0.06165194 3.86130822 0 0 Z " fill="#010101" transform="translate(272,368)"/>
<path d="M0 0 C6.6 0 13.2 0 20 0 C20 1.32 20 2.64 20 4 C17.36 4 14.72 4 12 4 C12 15.22 12 26.44 12 38 C10.68 38 9.36 38 8 38 C8 26.78 8 15.56 8 4 C5.36 4 2.72 4 0 4 C0 2.68 0 1.36 0 0 Z " fill="#010101" transform="translate(128,368)"/>
<path d="M0 0 C0.33 0 0.66 0 1 0 C1 1.65 1 3.3 1 5 C5.29 5 9.58 5 14 5 C13.67 5.99 13.34 6.98 13 8 C13.87914688 10.6569191 13.87914688 10.6569191 15 13 C16.01540112 8.89776415 16.01540112 8.89776415 15 5 C17.31 5 19.62 5 22 5 C21.06578984 7.37634041 20.12774502 9.75104802 19.1875 12.125 C18.92646484 12.79015625 18.66542969 13.4553125 18.39648438 14.140625 C14.14043445 24.85956555 14.14043445 24.85956555 11 28 C8.375 27.625 8.375 27.625 6 27 C6 26.01 6 25.02 6 24 C7.65 24 9.3 24 11 24 C12.75137513 17.80282648 11.17309311 14.50720839 8.12890625 8.94140625 C7.75636719 8.30074219 7.38382812 7.66007812 7 7 C5.02 7 3.04 7 1 7 C1.06006078 8.45947705 1.1488689 9.91779272 1.25 11.375 C1.29640625 12.18710937 1.3428125 12.99921875 1.390625 13.8359375 C1.7922092 16.18838927 1.7922092 16.18838927 4.046875 17.2890625 C4.69140625 17.52367187 5.3359375 17.75828125 6 18 C5.34 18.66 4.68 19.32 4 20 C-0.55555556 19.44444444 -0.55555556 19.44444444 -2 18 C-2.07226502 16.14712498 -2.0838122 14.29166122 -2.0625 12.4375 C-2.05347656 11.42558594 -2.04445313 10.41367187 -2.03515625 9.37109375 C-2.02355469 8.58863281 -2.01195312 7.80617188 -2 7 C-2.99 6.67 -3.98 6.34 -5 6 C-4.360625 5.7525 -3.72125 5.505 -3.0625 5.25 C-0.81258459 4.18437567 -0.81258459 4.18437567 -0.25 1.875 C-0.1675 1.25625 -0.085 0.6375 0 0 Z " fill="#010101" transform="translate(290,430)"/>
<path d="M0 0 C2.47555146 1.92542891 3.36131106 2.76077355 4.25 5.75 C4.71846274 10.59078166 4.75094246 12.78389668 2.5 17.125 C-0.5253613 20.65458818 -2.10008813 21.57447746 -6.6875 22.0625 C-10.20778025 21.70328773 -11.96797817 20.91379476 -14.75 18.75 C-17.291502 14.55875109 -17.57736424 10.53216531 -16.75 5.75 C-13.14778005 -0.9279616 -6.96457686 -3.16571675 0 0 Z M-11.125 3.1875 C-13.20786815 7.75378787 -13.16145658 10.97276235 -11.75 15.75 C-10.2048843 18.46648577 -10.2048843 18.46648577 -7.75 19.75 C-5.12883489 20.0759856 -5.12883489 20.0759856 -2.75 18.75 C-0.26851679 15.35863962 0.4939984 12.73779464 0.125 8.625 C-0.83657162 4.08495319 -0.83657162 4.08495319 -3.75 0.75 C-7.5238058 -0.21764251 -8.39905081 0.3898153 -11.125 3.1875 Z " fill="#010101" transform="translate(367.75,428.25)"/>
<path d="M0 0 C3.45826342 -0.05789006 6.91640293 -0.09355821 10.375 -0.125 C11.35984375 -0.14175781 12.3446875 -0.15851563 13.359375 -0.17578125 C14.77089844 -0.18544922 14.77089844 -0.18544922 16.2109375 -0.1953125 C17.51490479 -0.21102295 17.51490479 -0.21102295 18.84521484 -0.22705078 C21 0 21 0 23 2 C23.4140625 4.8203125 23.4140625 4.8203125 23.625 8.125 C23.69976562 9.22070312 23.77453125 10.31640625 23.8515625 11.4453125 C23.92503906 12.70988281 23.92503906 12.70988281 24 14 C21.69 14 19.38 14 17 14 C17.66 13.67 18.32 13.34 19 13 C19 9.37 19 5.74 19 2 C17.68 2 16.36 2 15 2 C14.67 5.63 14.34 9.26 14 13 C14.66 13.33 15.32 13.66 16 14 C13.69 14 11.38 14 9 14 C9.33 13.34 9.66 12.68 10 12 C10.06950541 10.45976004 10.08452357 8.91665012 10.0625 7.375 C10.05347656 6.55773437 10.04445312 5.74046875 10.03515625 4.8984375 C10.02355469 4.27195312 10.01195312 3.64546875 10 3 C9.01 3 8.02 3 7 3 C6.7215625 4.8871875 6.7215625 4.8871875 6.4375 6.8125 C6.33308594 7.52019531 6.22867188 8.22789062 6.12109375 8.95703125 C5.86095201 11.2025342 5.86095201 11.2025342 7 14 C4.69 14 2.38 14 0 14 C0.66 13.67 1.32 13.34 2 13 C2 9.37 2 5.74 2 2 C1.34 2 0.68 2 0 2 C0 1.34 0 0.68 0 0 Z " fill="#010101" transform="translate(130,435)"/>
<path d="M0 0 C0.33 2.31 0.66 4.62 1 7 C0.34 7 -0.32 7 -1 7 C-2.625 5 -2.625 5 -4 3 C-5.65 3.33 -7.3 3.66 -9 4 C-8.33832443 7.05335724 -8.33832443 7.05335724 -6.22265625 8.09765625 C-5.50980469 8.41605469 -4.79695313 8.73445313 -4.0625 9.0625 C-1.49112901 10.22451702 -0.02316022 10.97683978 2 13 C2.4375 15.875 2.4375 15.875 2 19 C0.125 21.375 0.125 21.375 -3 23 C-6.3620202 23.31823703 -9.63457059 23.23525332 -13 23 C-13 20.36 -13 17.72 -13 15 C-12.34 15 -11.68 15 -11 15 C-10.566875 15.825 -10.13375 16.65 -9.6875 17.5 C-9.130625 18.325 -8.57375 19.15 -8 20 C-5.37305578 20.41780879 -5.37305578 20.41780879 -3 20 C-2.67 18.68 -2.34 17.36 -2 16 C-2.62648438 15.66226562 -3.25296875 15.32453125 -3.8984375 14.9765625 C-4.71570313 14.53054688 -5.53296875 14.08453125 -6.375 13.625 C-7.59316406 12.96371094 -7.59316406 12.96371094 -8.8359375 12.2890625 C-11 11 -11 11 -13 9 C-13.42151163 5.69815888 -13.62848726 3.81976599 -11.5625 1.125 C-7.74855449 -0.5494151 -4.10420515 -0.23678107 0 0 Z " fill="#010101" transform="translate(282,427)"/>
<path d="M0 0 C1.89510699 -0.08160748 3.79124504 -0.13946459 5.6875 -0.1875 C6.74324219 -0.22230469 7.79898437 -0.25710938 8.88671875 -0.29296875 C12.39911307 0.03755769 14.20311377 0.88724422 17 3 C18.0625 5.4375 18.0625 5.4375 18 8 C16.5625 10.3125 16.5625 10.3125 14 12 C11.24100561 12.33107933 8.79630351 12.18642023 6 12 C6.12375 13.27875 6.2475 14.5575 6.375 15.875 C6.44460938 16.59429687 6.51421875 17.31359375 6.5859375 18.0546875 C6.86374749 20.22668245 6.86374749 20.22668245 9 22 C6.03 22 3.06 22 0 22 C0.33 21.34 0.66 20.68 1 20 C1.15004973 18.6265365 1.24838006 17.2471474 1.31640625 15.8671875 C1.35830078 15.06152344 1.40019531 14.25585938 1.44335938 13.42578125 C1.48267578 12.58402344 1.52199219 11.74226563 1.5625 10.875 C1.60568359 10.02550781 1.64886719 9.17601562 1.69335938 8.30078125 C1.79954236 6.20071777 1.90028497 4.10038052 2 2 C1.34 2 0.68 2 0 2 C0 1.34 0 0.68 0 0 Z M6 2 C6 4.97 6 7.94 6 11 C8.94727535 10.89830839 8.94727535 10.89830839 12 10 C13.65022176 7.70835053 13.65022176 7.70835053 14 5 C13.34 4.01 12.68 3.02 12 2 C8.91634129 1.7497843 8.91634129 1.7497843 6 2 Z " fill="#010101" transform="translate(412,427)"/>
<path d="M0 0 C0.97324219 0.01546875 1.94648437 0.0309375 2.94921875 0.046875 C5.3125 0.25 5.3125 0.25 6.3125 1.25 C6.35342937 3.58297433 6.35491723 5.91705225 6.3125 8.25 C5.6525 8.25 4.9925 8.25 4.3125 8.25 C3.6525 6.6 2.9925 4.95 2.3125 3.25 C0.0025 3.25 -2.3075 3.25 -4.6875 3.25 C-6.79468184 6.70577822 -7.69554219 8.7835532 -7.625 12.875 C-6.59931501 16.56746598 -5.87239904 18.12673397 -2.6875 20.25 C1.17377424 20.15346814 3.42006118 18.71392937 6.3125 16.25 C5.95643309 18.83148508 5.47921807 20.07045747 3.6875 22 C0.28588161 23.79032547 -1.88923198 23.77389904 -5.6875 23.25 C-8.65796873 21.45976215 -11.11252414 19.39995172 -12.6875 16.25 C-13.03767306 10.9098609 -13.15580225 7.58537781 -9.6875 3.25 C-6.47160847 0.2776281 -4.33607097 -0.11578294 0 0 Z " fill="#010101" transform="translate(106.6875,426.75)"/>
<path d="M0 0 C1.32 0 2.64 0 4 0 C4 12.54 4 25.08 4 38 C2.68 38 1.36 38 0 38 C0 25.46 0 12.92 0 0 Z " fill="#010101" transform="translate(343,368)"/>
<path d="M0 0 C0.02505615 0.62044189 0.0501123 1.24088379 0.07592773 1.88012695 C0.19196721 4.69112397 0.31465759 7.50179241 0.4375 10.3125 C0.47681641 11.28896484 0.51613281 12.26542969 0.55664062 13.27148438 C0.61948242 14.67817383 0.61948242 14.67817383 0.68359375 16.11328125 C0.72025146 16.97735596 0.75690918 17.84143066 0.79467773 18.73168945 C0.92747354 21.1647826 0.92747354 21.1647826 2 24 C-7.9389332 24.6168993 -7.9389332 24.6168993 -11.6875 22.4375 C-13.52035388 19.03362851 -13.54407614 16.80853299 -13 13 C-11.375 10.5625 -11.375 10.5625 -9 9 C-5.75 8.75 -5.75 8.75 -3 9 C-3 6.69 -3 4.38 -3 2 C-3.66 1.67 -4.32 1.34 -5 1 C-1.125 0 -1.125 0 0 0 Z M-8 11 C-9.89128342 12.89128342 -9.2366852 15.57067726 -9.328125 18.08984375 C-9.21984375 18.72019531 -9.1115625 19.35054688 -9 20 C-7.515 20.99 -7.515 20.99 -6 22 C-4.35429841 20.94369738 -4.35429841 20.94369738 -3 19 C-2.7496423 15.37464024 -2.7496423 15.37464024 -3 12 C-4.65614657 11.61781233 -6.32457024 11.28604898 -8 11 Z " fill="#010101" transform="translate(257,426)"/>
<path d="M0 0 C3.3 0 6.6 0 10 0 C9.01 0.495 9.01 0.495 8 1 C9.32 3.31 10.64 5.62 12 8 C14.12802546 5.69433317 14.12802546 5.69433317 16 3 C15.67 2.01 15.34 1.02 15 0 C17.64 0 20.28 0 23 0 C22.59007813 0.47050781 22.18015625 0.94101562 21.7578125 1.42578125 C21.21898438 2.04839844 20.68015625 2.67101562 20.125 3.3125 C19.59132813 3.92738281 19.05765625 4.54226563 18.5078125 5.17578125 C15.67440437 8.60376466 14.71587849 10.81289272 14.375 15.1875 C14.30023438 16.08855469 14.22546875 16.98960937 14.1484375 17.91796875 C14.09945312 18.60503906 14.05046875 19.29210937 14 20 C14.99 20.33 15.98 20.66 17 21 C13.59437148 21.77842938 10.49234244 22.09978121 7 22 C7 21.34 7 20.68 7 20 C7.66 19.67 8.32 19.34 9 19 C10.01399293 12.57804475 6.56063726 8.03340693 3 3 C2.01 2.01 1.02 1.02 0 0 Z " fill="#010101" transform="translate(20,428)"/>
<path d="M0 0 C2.31 0 4.62 0 7 0 C7.33 2.64 7.66 5.28 8 8 C8.73080266 6.02253397 9.39421747 4.01927511 10 2 C9.67 1.34 9.34 0.68 9 0 C10.98 0 12.96 0 15 0 C15 0.66 15 1.32 15 2 C14.34 2 13.68 2 13 2 C12.84144531 2.67804688 12.68289063 3.35609375 12.51953125 4.0546875 C10.80682332 10.88659425 8.3858207 16.83057967 5 23 C3.35 23 1.7 23 0 23 C-0.33 21.68 -0.66 20.36 -1 19 C0.2065625 19.0309375 0.2065625 19.0309375 1.4375 19.0625 C3.93354885 19.29633621 3.93354885 19.29633621 5 18 C5.07439356 11.33433701 2.97955572 5.86210264 0 0 Z " fill="#010101" transform="translate(501,435)"/>
<path d="M0 0 C1.65 0 3.3 0 5 0 C5.33 3.63 5.66 7.26 6 11 C6.99 11 7.98 11 9 11 C9 7.37 9 3.74 9 0 C10.65 0.33 12.3 0.66 14 1 C14.33 5.29 14.66 9.58 15 14 C13.02 14 11.04 14 9 14 C8.0925 14.20625 7.185 14.4125 6.25 14.625 C5.5075 14.74875 4.765 14.8725 4 15 C1.42337719 12.42337719 1.65884312 11.07916539 1.4375 7.5 C1.26480654 3.60401365 1.26480654 3.60401365 0 0 Z " fill="#010101" transform="translate(56,435)"/>
<path d="M0 0 C6.15234375 -0.09765625 6.15234375 -0.09765625 8 0 C9 1 9 1 9.09765625 3.72265625 C9.08605469 4.82480469 9.07445312 5.92695313 9.0625 7.0625 C9.05347656 8.16722656 9.04445312 9.27195312 9.03515625 10.41015625 C9.02355469 11.26480469 9.01195312 12.11945313 9 13 C9.66 13.33 10.32 13.66 11 14 C7.31620978 15.17881287 3.84458427 15.21358801 0 15 C-0.66 14.34 -1.32 13.68 -2 13 C-1.9375 10.5625 -1.9375 10.5625 -1 8 C3.03448276 5 3.03448276 5 6 5 C5.01 4.01 4.02 3.02 3 2 C2.67 2.99 2.34 3.98 2 5 C1.01 5 0.02 5 -1 5 C-0.67 3.35 -0.34 1.7 0 0 Z M2.9375 9 C2.298125 9.66 1.65875 10.32 1 11 C1.33 11.66 1.66 12.32 2 13 C2.99 12.67 3.98 12.34 5 12 C5.33 10.35 5.66 8.7 6 7 C4.64082319 6.88397569 4.64082319 6.88397569 2.9375 9 Z " fill="#010101" transform="translate(215,435)"/>
<path d="M0 0 C2.4375 1.625 2.4375 1.625 4 4 C4.5625 6.9375 4.5625 6.9375 4 10 C1.9375 12.9375 1.9375 12.9375 -1 15 C-4.625 15.125 -4.625 15.125 -8 14 C-10.59393856 11.1628797 -11.02858292 9.71457298 -10.875 5.875 C-9.02054759 -0.21820078 -6.22519856 -0.76449807 0 0 Z M-5.5625 2.125 C-7.62148715 4.81063541 -7.34378943 6.69962146 -7 10 C-6.01 11.485 -6.01 11.485 -5 13 C-2.24358584 12.50243908 -2.24358584 12.50243908 0 11 C0.49321932 6.22870183 0.49321932 6.22870183 -1.4375 2.0625 C-3.51599589 0.6424802 -3.51599589 0.6424802 -5.5625 2.125 Z " fill="#010101" transform="translate(125,435)"/>
<path d="M0 0 C1.95803507 -0.05389087 3.91648909 -0.09274217 5.875 -0.125 C7.51082031 -0.15980469 7.51082031 -0.15980469 9.1796875 -0.1953125 C12 0 12 0 14 2 C14.1953125 4.6015625 14.1953125 4.6015625 14.125 7.625 C14.10695312 8.62789063 14.08890625 9.63078125 14.0703125 10.6640625 C14.03550781 11.82035156 14.03550781 11.82035156 14 13 C14.66 13.33 15.32 13.66 16 14 C13.69 14 11.38 14 9 14 C9.33 13.34 9.66 12.68 10 12 C10.06996014 10.29297265 10.08440154 8.58331997 10.0625 6.875 C10.05347656 5.96492188 10.04445312 5.05484375 10.03515625 4.1171875 C10.02355469 3.41851562 10.01195312 2.71984375 10 2 C9.01 2.33 8.02 2.66 7 3 C6.34 6.3 5.68 9.6 5 13 C5.66 13.33 6.32 13.66 7 14 C4.3333581 15.33332095 2.83319697 14.67102033 0 14 C0.33 13.34 0.66 12.68 1 12 C1.0955931 10.33555539 1.12984645 8.66718037 1.125 7 C1.12757813 6.113125 1.13015625 5.22625 1.1328125 4.3125 C1.15127902 1.97323034 1.15127902 1.97323034 0 0 Z " fill="#010101" transform="translate(227,435)"/>
<path d="M0 0 C1.670625 0.061875 1.670625 0.061875 3.375 0.125 C3.705 1.445 4.035 2.765 4.375 4.125 C3.385 4.125 2.395 4.125 1.375 4.125 C1.045 3.465 0.715 2.805 0.375 2.125 C-0.285 2.125 -0.945 2.125 -1.625 2.125 C-1.955 4.105 -2.285 6.085 -2.625 8.125 C-1.635 8.125 -0.645 8.125 0.375 8.125 C0.375 8.785 0.375 9.445 0.375 10.125 C-0.615 10.125 -1.605 10.125 -2.625 10.125 C-2.625 13.755 -2.625 17.385 -2.625 21.125 C-1.965 21.125 -1.305 21.125 -0.625 21.125 C-0.625 21.785 -0.625 22.445 -0.625 23.125 C-3.265 23.125 -5.905 23.125 -8.625 23.125 C-8.625 22.465 -8.625 21.805 -8.625 21.125 C-7.965 21.125 -7.305 21.125 -6.625 21.125 C-6.295 17.495 -5.965 13.865 -5.625 10.125 C-6.615 10.125 -7.605 10.125 -8.625 10.125 C-8.625 9.465 -8.625 8.805 -8.625 8.125 C-7.635 8.125 -6.645 8.125 -5.625 8.125 C-5.686875 6.701875 -5.686875 6.701875 -5.75 5.25 C-5.56379584 0.59489612 -4.59761607 0.15853849 0 0 Z " fill="#010101" transform="translate(163.625,426.875)"/>
<path d="M0 0 C2.71983633 1.6319018 2.96240047 2.86406322 3.8125 5.9375 C4.01028636 9.16801051 3.92199114 10.43734514 2 13 C-0.54269034 14.90701775 -1.85599893 15.00587759 -5.0625 14.875 C-8 14 -8 14 -9.9375 12.375 C-11.48427533 8.9175022 -10.92030612 6.61548831 -10 3 C-7.67176656 -1.00973537 -4.26219805 -0.45666408 0 0 Z M-5.5625 2.0625 C-7.74689424 5.00668354 -7.32315721 7.4452707 -7 11 C-6.34 11.66 -5.68 12.32 -5 13 C-2.21762345 12.59471099 -2.21762345 12.59471099 0 11 C0.49321932 6.22870183 0.49321932 6.22870183 -1.4375 2.0625 C-3.5 0.65506152 -3.5 0.65506152 -5.5625 2.0625 Z " fill="#010101" transform="translate(175,435)"/>
<path d="M0 0 C2.71983633 1.6319018 2.96240047 2.86406322 3.8125 5.9375 C4.01028636 9.16801051 3.92199114 10.43734514 2 13 C-0.54269034 14.90701775 -1.85599893 15.00587759 -5.0625 14.875 C-8 14 -8 14 -9.9375 12.375 C-11.48427533 8.9175022 -10.92030612 6.61548831 -10 3 C-7.67176656 -1.00973537 -4.26219805 -0.45666408 0 0 Z M-5.5625 2.0625 C-7.74689424 5.00668354 -7.32315721 7.4452707 -7 11 C-6.34 11.66 -5.68 12.32 -5 13 C-2.21762345 12.59471099 -2.21762345 12.59471099 0 11 C0.49321932 6.22870183 0.49321932 6.22870183 -1.4375 2.0625 C-3.5 0.65506152 -3.5 0.65506152 -5.5625 2.0625 Z " fill="#010101" transform="translate(51,435)"/>
<path d="M0 0 C2.65656032 2.15845526 2.92904589 3.58314463 3.5 6.9375 C3 10 3 10 0.9375 12.9375 C-2 15 -2 15 -5.6875 15 C-9 14 -9 14 -11 11 C-11.54169041 7.51066956 -11.59312786 4.18625571 -10 1 C-6.73916234 -0.63041883 -3.55761554 -0.65964122 0 0 Z M-5 1 C-6.62493901 2.12109566 -6.62493901 2.12109566 -8 4 C-8.42478586 8.07794425 -8.31282587 9.53076119 -6 13 C-4.03243548 12.96877057 -4.03243548 12.96877057 -2 12 C-0.48704264 8.90531448 0.31110497 7.04644398 -0.6875 3.6875 C-1.98555468 1.69664833 -1.98555468 1.69664833 -5 1 Z " fill="#010101" transform="translate(464,435)"/>
<path d="M0 0 C1.65 0 3.3 0 5 0 C5 3.96 5 7.92 5 12 C6.32 11.67 7.64 11.34 9 11 C9.0270043 9.54176788 9.04639787 8.08339325 9.0625 6.625 C9.07410156 5.81289063 9.08570313 5.00078125 9.09765625 4.1640625 C9.14466334 1.95062858 9.14466334 1.95062858 8 0 C9.65 0 11.3 0 13 0 C13.98430336 4.06025134 14 7.83629189 14 12 C14.33 12.66 14.66 13.32 15 14 C14.113125 13.979375 13.22625 13.95875 12.3125 13.9375 C9.06851263 13.88649166 9.06851263 13.88649166 6.25 14.625 C5.5075 14.74875 4.765 14.8725 4 15 C1.42337719 12.42337719 1.65884312 11.07916539 1.4375 7.5 C1.26480654 3.60401365 1.26480654 3.60401365 0 0 Z " fill="#010101" transform="translate(374,435)"/>
<path d="M0 0 C1.9375 2.375 1.9375 2.375 3 5 C2.67 5.66 2.34 6.32 2 7 C-0.97 7 -3.94 7 -7 7 C-6.01 8.65 -5.02 10.3 -4 12 C-2.02 11.67 -0.04 11.34 2 11 C1.67 11.99 1.34 12.98 1 14 C-5.27272727 15.44755245 -5.27272727 15.44755245 -8.4375 13.5 C-10.57590314 10.07855498 -10.56645882 7.96521177 -10 4 C-7.2939792 -0.0590312 -4.77418753 -0.91420612 0 0 Z M-4 1 C-4.66 2.32 -5.32 3.64 -6 5 C-4.35 5 -2.7 5 -1 5 C-1 4.01 -1 3.02 -1 2 C-1.99 1.67 -2.98 1.34 -4 1 Z " fill="#010101" transform="translate(332,435)"/>
<path d="M0 0 C0.33 6.93 0.66 13.86 1 21 C1.66 21.33 2.32 21.66 3 22 C3 22.66 3 23.32 3 24 C0.36 24 -2.28 24 -5 24 C-5.33 23.34 -5.66 22.68 -6 22 C-5.01 22 -4.02 22 -3 22 C-3.33 16.06 -3.66 10.12 -4 4 C-4.66 3.67 -5.32 3.34 -6 3 C-6 2.34 -6 1.68 -6 1 C-1.125 0 -1.125 0 0 0 Z " fill="#010101" transform="translate(318,426)"/>
<path d="M0 0 C3.96 0 7.92 0 12 0 C12 1.32 12 2.64 12 4 C10.35 4 8.7 4 7 4 C7 7.3 7 10.6 7 14 C4.69 14 2.38 14 0 14 C0.66 13.67 1.32 13.34 2 13 C2 9.37 2 5.74 2 2 C1.34 2 0.68 2 0 2 C0 1.34 0 0.68 0 0 Z " fill="#010101" transform="translate(468,435)"/>
<path d="M0 0 C3.96 0 7.92 0 12 0 C12 1.32 12 2.64 12 4 C10.35 4 8.7 4 7 4 C7 7.3 7 10.6 7 14 C4.69 14 2.38 14 0 14 C0.66 13.67 1.32 13.34 2 13 C2 9.37 2 5.74 2 2 C1.34 2 0.68 2 0 2 C0 1.34 0 0.68 0 0 Z " fill="#010101" transform="translate(431,435)"/>
<path d="M0 0 C0.33 0 0.66 0 1 0 C1 1.65 1 3.3 1 5 C2.65 5 4.3 5 6 5 C6 5.66 6 6.32 6 7 C4.35 7 2.7 7 1 7 C1.06006078 8.45947705 1.1488689 9.91779272 1.25 11.375 C1.29640625 12.18710937 1.3428125 12.99921875 1.390625 13.8359375 C1.7922092 16.18838927 1.7922092 16.18838927 4.046875 17.2890625 C4.69140625 17.52367187 5.3359375 17.75828125 6 18 C5.34 18.66 4.68 19.32 4 20 C-0.55555556 19.44444444 -0.55555556 19.44444444 -2 18 C-2.07226502 16.14712498 -2.0838122 14.29166122 -2.0625 12.4375 C-2.05347656 11.42558594 -2.04445312 10.41367187 -2.03515625 9.37109375 C-2.02355469 8.58863281 -2.01195312 7.80617188 -2 7 C-2.99 6.67 -3.98 6.34 -5 6 C-4.360625 5.7525 -3.72125 5.505 -3.0625 5.25 C-0.81258459 4.18437567 -0.81258459 4.18437567 -0.25 1.875 C-0.1675 1.25625 -0.085 0.6375 0 0 Z " fill="#010101" transform="translate(198,430)"/>
<path d="M0 0 C3.96 0 7.92 0 12 0 C12 1.32 12 2.64 12 4 C10.35 4 8.7 4 7 4 C6.67 6.97 6.34 9.94 6 13 C6.66 13.33 7.32 13.66 8 14 C5.36 14 2.72 14 0 14 C0.66 13.67 1.32 13.34 2 13 C2 9.37 2 5.74 2 2 C1.34 2 0.68 2 0 2 C0 1.34 0 0.68 0 0 Z " fill="#010101" transform="translate(390,435)"/>
<path d="M0 0 C0.66 0.66 1.32 1.32 2 2 C1.67 2.99 1.34 3.98 1 5 C2.65 5 4.3 5 6 5 C6 5.66 6 6.32 6 7 C4.35 7 2.7 7 1 7 C1.06006078 8.45947705 1.1488689 9.91779272 1.25 11.375 C1.29640625 12.18710937 1.3428125 12.99921875 1.390625 13.8359375 C1.7922092 16.18838927 1.7922092 16.18838927 4.046875 17.2890625 C4.69140625 17.52367187 5.3359375 17.75828125 6 18 C5.34 18.66 4.68 19.32 4 20 C-0.55555556 19.44444444 -0.55555556 19.44444444 -2 18 C-2.07226502 16.14712498 -2.0838122 14.29166122 -2.0625 12.4375 C-2.05347656 11.42558594 -2.04445313 10.41367187 -2.03515625 9.37109375 C-2.02355469 8.58863281 -2.01195312 7.80617188 -2 7 C-2.66 7 -3.32 7 -4 7 C-4 5 -4 5 -2.5625 3.5 C-2.046875 3.005 -1.53125 2.51 -1 2 C-0.67 1.34 -0.34 0.68 0 0 Z " fill="#010101" transform="translate(494,430)"/>
<path d="M0 0 C4.19161906 0 7.88857686 0.13443723 12 1 C12 1.99 12 2.98 12 4 C10.35 4 8.7 4 7 4 C5.63047327 6.73905345 5.87378639 8.97087332 6 12 C6.33 12.66 6.66 13.32 7 14 C4.69 14 2.38 14 0 14 C0.66 13.67 1.32 13.34 2 13 C2 9.37 2 5.74 2 2 C1.34 2 0.68 2 0 2 C0 1.34 0 0.68 0 0 Z " fill="#010101" transform="translate(180,435)"/>
<path d="M0 0 C3.96 0 7.92 0 12 0 C12.33 0.99 12.66 1.98 13 3 C10.92446352 3.5534764 9.15634036 4 7 4 C6.67 6.97 6.34 9.94 6 13 C6.66 13.33 7.32 13.66 8 14 C5.69 14 3.38 14 1 14 C1.33 13.34 1.66 12.68 2 12 C2.06950541 10.45976004 2.08452357 8.91665012 2.0625 7.375 C2.04896484 6.14910156 2.04896484 6.14910156 2.03515625 4.8984375 C2.02355469 4.27195312 2.01195313 3.64546875 2 3 C1.34 2.67 0.68 2.34 0 2 C0 1.34 0 0.68 0 0 Z " fill="#010101" transform="translate(72,435)"/>
<path d="M0 0 C1.98 0 3.96 0 6 0 C6 4.29 6 8.58 6 13 C6.66 13 7.32 13 8 13 C8 13.66 8 14.32 8 15 C5.69 15 3.38 15 1 15 C0.67 14.34 0.34 13.68 0 13 C0.66 13 1.32 13 2 13 C1.85915204 11.20793453 1.71216299 9.41635083 1.5625 7.625 C1.48128906 6.62726563 1.40007812 5.62953125 1.31640625 4.6015625 C1.15034374 2.02072387 1.15034374 2.02072387 0 0 Z " fill="#010101" transform="translate(481,435)"/>
<path d="M0 0 C1.65 0 3.3 0 5 0 C5.07347656 1.28197266 5.07347656 1.28197266 5.1484375 2.58984375 C5.22320312 3.69457031 5.29796875 4.79929687 5.375 5.9375 C5.44460938 7.03964844 5.51421875 8.14179688 5.5859375 9.27734375 C5.72257812 10.17582031 5.85921875 11.07429688 6 12 C6.66 12.33 7.32 12.66 8 13 C8 13.66 8 14.32 8 15 C5.36 15 2.72 15 0 15 C0 14.34 0 13.68 0 13 C0.66 13 1.32 13 2 13 C1.85915204 11.20793453 1.71216299 9.41635083 1.5625 7.625 C1.48128906 6.62726563 1.40007812 5.62953125 1.31640625 4.6015625 C1.15034374 2.02072387 1.15034374 2.02072387 0 0 Z " fill="#010101" transform="translate(444,435)"/>
<path d="M0 0 C1.32 0 2.64 0 4 0 C5 3 5 3 3.75 5.6875 C3.1725 6.450625 2.595 7.21375 2 8 C1.01 8 0.02 8 -1 8 C-0.4740625 7.13375 -0.4740625 7.13375 0.0625 6.25 C1.14917407 3.64198224 0.93065133 2.60582371 0 0 Z " fill="#010101" transform="translate(336,446)"/>
<path d="M0 0 C0.99 0 1.98 0 3 0 C3 1.32 3 2.64 3 4 C1.68 3.67 0.36 3.34 -1 3 C-0.67 2.01 -0.34 1.02 0 0 Z " fill="#010101" transform="translate(483,427)"/>
<path d="M0 0 C0.99 0 1.98 0 3 0 C3 1.32 3 2.64 3 4 C1.68 3.67 0.36 3.34 -1 3 C-0.67 2.01 -0.34 1.02 0 0 Z " fill="#010101" transform="translate(446,427)"/>
</svg>
