<?xml version="1.0" encoding="UTF-8"?>
<!DOCTYPE svg PUBLIC "-//W3C//DTD SVG 1.1//EN" "http://www.w3.org/Graphics/SVG/1.1/DTD/svg11.dtd">
<!-- Creator: CorelDRAW -->
<svg xmlns="http://www.w3.org/2000/svg" xml:space="preserve" width="1.71669in" height="1.52159in" style="shape-rendering:geometricPrecision; text-rendering:geometricPrecision; image-rendering:optimizeQuality; fill-rule:evenodd; clip-rule:evenodd"
viewBox="0 0 1.71669 1.52159"
 xmlns:xlink="http://www.w3.org/1999/xlink">
 <defs>
  <style type="text/css">
   <![CDATA[
    .fil0 {fill:#010101}
    .fil1 {fill:#010101;fill-rule:nonzero}
   ]]>
  </style>
 </defs>
 <g id="Layer_x0020_1">
  <metadata id="CorelCorpID_0Corel-Layer"/>
  <path class="fil0" d="M0.799254 0.584959c0.109905,0.115701 0.272929,0.283216 0.304421,0.319421 0.121653,0.13983 0.269925,0.263767 0.472857,0.259948 0.0450944,-0.000838581 0.0517991,-0.000854329 0.0849171,-0.0200236 -0.054866,-0.0151456 -0.0973856,-0.0118937 -0.1562,-0.0350668 -0.0481141,-0.0189685 -0.0967045,-0.0480589 -0.131197,-0.0708975 -0.0872518,-0.0577715 -0.13922,-0.120004 -0.201909,-0.191878l-0.251444 -0.261503 -0.121445 0zm0.024748 -0.192507c0.0497912,-0.0642085 0.134567,-0.158783 0.168169,-0.193905 0.130539,-0.136445 0.0125905,-0.0743266 0.250062,-0.197283l-0.270243 -0.00126378c0.0446849,0.068366 0.125354,-0.0340196 -0.0853344,0.231149 -0.0278858,0.0350983 -0.0846179,0.103579 -0.129826,0.161303l0.0671731 0z"/>
  <g id="_491904232">
   <path id="_491906368" class="fil0" d="M0.646794 0.00107874c0.0189291,0.0139094 0.099421,0.00596062 0.00927951,0.116614 -0.0345196,0.0423818 -0.0613227,0.0746612 -0.0955628,0.116921l-0.129149 0.157838 0.0684841 0c0.0049055,-0.00470471 0.0106811,-0.0103937 0.0184488,-0.018996l0.0967084 -0.116299c0.0206338,-0.0258543 0.0352165,-0.0339172 0.0558778,-0.0609605 0.106212,-0.139067 0.101645,-0.121606 0.250405,-0.195232l-0.274491 0.000114173zm-0.170921 0.583881c0.0392125,0.039681 0.077929,0.075614 0.0959958,0.0960037 0.0341889,0.0385708 0.0630943,0.0791101 0.0987714,0.114228 0.0213188,0.0209685 0.0356928,0.0285393 0.0557755,0.0502991 0.115685,0.125393 0.224936,0.271062 0.432975,0.311157 0.0311417,0.00599605 0.0650313,0.008374 0.0982321,0.00754723 0.0429015,-0.00106693 0.0510196,-0.00131889 0.0821337,-0.0198897 -0.0518975,-0.0150236 -0.0946888,-0.0115039 -0.154141,-0.0343109 -0.0816691,-0.0313228 -0.177669,-0.0922281 -0.235499,-0.158319 -0.0298346,-0.0340905 -0.0364448,-0.0246889 -0.100555,-0.101413l-0.242436 -0.265303 -0.131252 0z"/>
   <path id="_491906464" class="fil0" d="M0.143551 0.000940943c0.0836455,0.047433 0.0991336,0.011496 0.0980903,0.175256l-1.9685e-005 0.216255 0.0837203 0c0.00127952,-0.171527 0.00547243,-0.32348 0.00992124,-0.329283l0.0907439 -0.0621573 -0.282456 -7.0866e-005zm0.0980588 0.584018l-1.1811e-005 0.165909c0.000531495,0.14172 0.0178385,0.10748 -0.0978699,0.180712l0.282267 0c-0.0315393,-0.0137756 -0.0675628,-0.0161732 -0.0861927,-0.0504448 -0.00921651,-0.0169685 -0.0134252,-0.145681 -0.0145433,-0.296176l-0.0836494 0z"/>
  </g>
  <rect class="fil0" x="0.133193" y="1.00619" width="0.651477" height="0.0420226"/>
  <path class="fil1" d="M0.0469999 0.538999l0 0 -0.0054803 -0.0174212 -0.00537794 -0.0174921 -0.00122834 -0.00388188 -0.00152362 -0.00488582 -0.00265354 -0.00872439 -0.00172047 -0.00560235 0.00589762 -0.0118897 0 0 0 0 0.0087677 -0.0174173 0.00872439 -0.0174921 -0.0174921 0 -0.00872439 0.0174921 -0.00388188 0.00778738 -0.00488975 0.0096299 0 -0.0349094 -0.0174173 0 0 0.122299 0.0174173 0 0 -0.0524054 0.00582282 0.0174921 0.00585038 0.0174212 0.00582282 0.0174921 0.0174921 0 -0.0054055 -0.0174921zm0.0660274 -0.0785943l0 0c0,-0.00724801 0.00255511,-0.013437 0.00766534,-0.0185472 0.00511022,-0.00511022 0.0112756,-0.00766534 0.0185236,-0.00766534l0 0c0.00724801,0 0.0134409,0.00255511 0.0185511,0.00766534 0.00511022,0.00511022 0.00766534,0.0112992 0.00766534,0.0185472l0 0.0960864 -0.0174921 0 0 -0.0524054 -0.017496 0 0 0.0524054 -0.0174173 0 0 -0.0960864zm0.0349133 0.0261889l0 0 0 -0.0261889c0,-0.00240551 -0.000862203,-0.00444487 -0.00255511,-0.00616534 -0.00169685,-0.00169685 -0.00375983,-0.00255511 -0.00616928,-0.00255511l0 0c-0.00243307,0 -0.00451967,0.000858266 -0.00621652,0.00255511 -0.00169291,0.00172047 -0.00255511,0.00375983 -0.00255511,0.00616534l0 0.0261889 0.017496 0zm0.128996 0l0 0c-0.00233464,0.00633857 -0.00643699,0.0111299 -0.012311,0.0143976l0.000740156 0.00309448 0.00437007 0.0174921 0.00439763 0.0174212 0.00432676 0.0174921 -0.0174212 0 -0.00439763 -0.0174921 -0.00439763 -0.0174212 -0.0042992 -0.0174921 -0.00439763 0 0 0.0524054 -0.0174921 0 0 -0.122299 0.0261141 0c0.00312204,0 0.00609447,0.000515747 0.00887006,0.00152362 0.00518503,0.00191338 0.00938581,0.00511022 0.0126063,0.00953147 0.00319291,0.00444487 0.00481495,0.00950785 0.00481495,0.0152322l0 0.0173425c0,0.00307086 -0.000515747,0.00599605 -0.00152362,0.00877163zm-0.0333897 0l0 0 0.0069055 0c0.00287401,0 0.0053307,-0.000980313 0.00734644,-0.00294881 0.00201181,-0.00196456 0.00309448,-0.00444487 0.00324015,-0.00741731 0,-5.1181e-005 0,-9.8425e-005 0,-0.000122047l0 -0.0139055c0,-5.1181e-005 0,-0.000125984 0,-0.000224409 -0.000145669,-0.00292125 -0.00122834,-0.00535432 -0.00324015,-0.0073425 -0.00201574,-0.0019685 -0.00447243,-0.00294881 -0.00734644,-0.00294881l-0.0069055 0 0 0.0349094zm0.113027 0l0 0 0 -0.0349094 0.0202952 0 0 -0.0174921 -0.0377873 0 0 0.122299 0.0377873 0 0 -0.0174921 -0.0202952 0 0 -0.0349133 0.0202952 0 0 -0.0174921 -0.0202952 0zm0.133346 -0.0261889l0 0c0,-0.00724801 -0.00255511,-0.013437 -0.00766534,-0.0185472 -0.00511022,-0.00511022 -0.0113031,-0.00766534 -0.0185511,-0.00766534 -0.00724801,0 -0.0134134,0.00257873 -0.0185472,0.00771258 -0.0050866,0.0050866 -0.00764171,0.0112519 -0.00764171,0.0185l0 0.0960864 0.0174173 0 0 -0.0960864c0,-0.00240551 0.000862203,-0.00444487 0.00258267,-0.00616534 0.00174409,-0.00169685 0.00380708,-0.00255511 0.00618896,-0.00255511 0.00240944,0 0.00447243,0.000858266 0.0061929,0.00252755 0.00169291,0.00172047 0.00253149,0.00378739 0.00253149,0.0061929l0 0.0960864 0.0174921 0 0 -0.0960864zm0.146637 0.0785943l0 0 -0.0054803 -0.0174212 -0.00537794 -0.0174921 -0.00122834 -0.00388188 -0.00152362 -0.00488582 -0.00265354 -0.00872439 -0.00172047 -0.00560235 0.00589762 -0.0118897 0 0 0 0 0.0087677 -0.0174173 0.00872439 -0.0174921 -0.0174921 0 -0.00872439 0.0174921 -0.00388188 0.00778738 -0.00488975 0.0096299 0 -0.0349094 -0.0174173 0 0 0.122299 0.0174173 0 0 -0.0524054 0.00582282 0.0174921 0.00585038 0.0174212 0.00582282 0.0174921 0.0174921 0 -0.0054055 -0.0174921zm0.100941 -0.103283l0 0c0.00518109,0.00186614 0.00938187,0.00503542 0.012626,0.00945667 0.00324409,0.00444881 0.00486613,0.00950785 0.00486613,0.0152322l0 0.0698975c0,0.00724801 -0.00258267,0.0134134 -0.00771652,0.0185472 -0.00272834,0.00275196 -0.00599211,0.00479133 -0.00977557,0.0061181 -0.00272834,0.00100787 -0.00565353,0.00152362 -0.00872439,0.00152362 -0.00307086,0 -0.00596849,-0.000515747 -0.00869683,-0.00152362 -0.00518503,-0.00186614 -0.00938581,-0.0050118 -0.012626,-0.00945667 -0.00324409,-0.00442519 -0.00486613,-0.00950785 -0.00486613,-0.0152086l0 -0.0698975c0,-0.00724801 0.00255511,-0.0134134 0.00768896,-0.0185 0.00275196,-0.00277558 0.00601967,-0.00483857 0.00980313,-0.00618896 0.00272834,-0.00100787 0.00562597,-0.00152362 0.00869683,-0.00152362 0.00307086,0 0.00599605,0.000515747 0.00872439,0.00152362zm0 0.0945864l0 0 0 -0.0698975c0,-0.00240551 -0.000838581,-0.00447243 -0.00253149,-0.0061929 -0.00172047,-0.00166929 -0.00378346,-0.00252755 -0.0061929,-0.00252755 -0.00238188,0 -0.00444487,0.000858266 -0.00614172,0.00255511 -0.00169291,0.00172047 -0.00255511,0.00375983 -0.00255511,0.00616534l0 0.0698975c0,0.00238188 0.000834644,0.00444487 0.00250787,0.00618896 0.00174409,0.00167322 0.00380708,0.00250787 0.00618896,0.00250787 0.00240944,0 0.00447243,-0.000862203 0.00616928,-0.00255511 0.00169291,-0.00169685 0.00255511,-0.00375983 0.00255511,-0.00614172zm0.139216 -0.09611l0 0c0.00724801,0 0.013437,0.00255511 0.0185472,0.00766534 0.00511022,0.00511022 0.00766534,0.0112992 0.00766534,0.0185472l0 0.0960864 -0.0174173 0 0 -0.0960864c0,-0.00240551 -0.000862203,-0.00447243 -0.00260629,-0.0061929 -0.00166929,-0.00166929 -0.00373227,-0.00252755 -0.00618896,-0.00252755 -0.00238582,0 -0.00444881,0.000858266 -0.00614172,0.00255511 -0.00172047,0.00172047 -0.00255511,0.00375983 -0.00255511,0.00616534l0 0.0960864 0 0 -0.0174921 0 0 -0.0960864c0,-0.00240551 -0.000838581,-0.00447243 -0.00253149,-0.0061929 -0.00172047,-0.00166929 -0.00378346,-0.00252755 -0.0061929,-0.00252755 -0.00243307,0 -0.00451967,0.000858266 -0.00621652,0.00255511 -0.00169291,0.00172047 -0.00255511,0.00375983 -0.00255511,0.00616534l0 0.0960864 -0.0174173 0 0 -0.0960864c0,-0.00724801 0.00255511,-0.0134134 0.00764171,-0.0185 0.00513385,-0.00513385 0.0112992,-0.00771258 0.0185472,-0.00771258 0.00673227,0 0.0125315,0.00223228 0.0174212,0.00670471 0.00496062,-0.00447243 0.0107834,-0.00670471 0.0174921,-0.00670471zm0.0868384 0l0 0 0.0277125 0c0.00680707,0 0.0126299,0.00242913 0.0174448,0.00724801 0.00483857,0.00481495 0.00724801,0.0106378 0.00724801,0.0174409l0 0.0161417c0,0.00742124 -0.00275196,0.0140275 -0.00820864,0.0197795l-0.000586613 0.000586613 0.000586613 0.000492125c0.00545668,0.00577558 0.00820864,0.0123582 0.00820864,0.0198031l0 0.0161141c0,0.00680707 -0.00240944,0.0126299 -0.00724801,0.0174685 -0.00481495,0.00481495 -0.0106378,0.00722439 -0.0174448,0.00722439l-0.0277125 0 0 -0.122299zm0.0243976 0.104807l0 0c0.00287401,0 0.00535432,-0.00100787 0.00741731,-0.00304724 0.00206299,-0.00203937 0.00309842,-0.0045433 0.00309842,-0.00746849l0 -0.0137323c0,-0.00292519 -0.00105905,-0.00542912 -0.00314566,-0.00751967 -0.00209055,-0.00208661 -0.00459448,-0.00314566 -0.00751967,-0.00314566l-0.00683069 0 0 0.0349133 0.0069803 0zm-0.000149606 -0.0524054l0 0c0.00292519,0 0.00542912,-0.00103149 0.00751967,-0.0031181 0.00208661,-0.00209055 0.00314566,-0.00459448 0.00314566,-0.00751967l0 -0.0137559c0,-0.00292519 -0.00103543,-0.0054055 -0.00309842,-0.00744486 -0.00206299,-0.00203937 -0.0045433,-0.00307086 -0.00741731,-0.00307086l-0.0069803 0 0 0.0349094 0.00683069 0zm0.123693 -0.0508778l0 0c0.00518109,0.00186614 0.00938187,0.00503542 0.012626,0.00945667 0.00324409,0.00444881 0.00486613,0.00950785 0.00486613,0.0152322l0 0.0698975c0,0.00724801 -0.00258267,0.0134134 -0.00771652,0.0185472 -0.00272834,0.00275196 -0.00599211,0.00479133 -0.00977557,0.0061181 -0.00272834,0.00100787 -0.00565353,0.00152362 -0.00872439,0.00152362 -0.00307086,0 -0.00596849,-0.000515747 -0.00869683,-0.00152362 -0.00518503,-0.00186614 -0.00938581,-0.0050118 -0.012626,-0.00945667 -0.00324409,-0.00442519 -0.00486613,-0.00950785 -0.00486613,-0.0152086l0 -0.0698975c0,-0.00724801 0.00255511,-0.0134134 0.00768896,-0.0185 0.00275196,-0.00277558 0.00601967,-0.00483857 0.00980313,-0.00618896 0.00272834,-0.00100787 0.00562597,-0.00152362 0.00869683,-0.00152362 0.00307086,0 0.00599605,0.000515747 0.00872439,0.00152362zm0 0.0945864l0 0 0 -0.0698975c0,-0.00240551 -0.000838581,-0.00447243 -0.00253149,-0.0061929 -0.00172047,-0.00166929 -0.00378346,-0.00252755 -0.0061929,-0.00252755 -0.00238188,0 -0.00444487,0.000858266 -0.00614172,0.00255511 -0.00169291,0.00172047 -0.00255511,0.00375983 -0.00255511,0.00616534l0 0.0698975c0,0.00238188 0.000834644,0.00444487 0.00250787,0.00618896 0.00174409,0.00167322 0.00380708,0.00250787 0.00618896,0.00250787 0.00240944,0 0.00447243,-0.000862203 0.00616928,-0.00255511 0.00169291,-0.00169685 0.00255511,-0.00375983 0.00255511,-0.00614172zm0.130519 0.00869683l0 0 -0.0349133 0 0 -0.104807 -0.0174921 0 0 0.122299 0.0524054 0 0 -0.0174921z"/>
  <path class="fil1" d="M0.201377 1.22646l-0.0133267 0 -0.0533148 0.119338 0.0151889 0 0.0167362 -0.0402952 0.0553306 0 0.0168937 0.0402952 0.0131732 0 -0.050681 -0.119338zm-0.0296023 0.0683502l0.023248 -0.054555 0.0227834 0.054555 -0.0460314 0zm0.293984 -0.0571888l0.027122 0 0 -0.0111614 -0.0660235 0 0 0.0111614 0.0269684 0 0 0.108177 0.011933 0 0 -0.108177zm0.267169 0.0970195l-0.0342519 0c-0.00620077,0 -0.0105393,-0.00124015 -0.0130197,-0.00372046 -0.001937,-0.00209448 -0.00340944,-0.00415747 -0.00438975,-0.00620077 -0.00100787,-0.00203937 -0.0015,-0.00410629 -0.0015,-0.00619684l0 -0.0275905 0.0398306 0 0 -0.011311 -0.0398306 0 0 -0.0258306c0,-0.00209448 0.000492125,-0.00416141 0.0015,-0.0062244 0.000980313,-0.0020433 0.00245275,-0.00413385 0.00438975,-0.00622833 0.00248031,-0.00247637 0.00681888,-0.00371653 0.0130197,-0.00371653l0.0342519 0 0 -0.0111614 -0.0342519 0c-0.00451967,0 -0.00865352,0.000645668 -0.0123976,0.001937 -0.00377164,0.00129134 -0.00699998,0.00317716 -0.00976769,0.00568503 -0.00276377,0.00250393 -0.00488188,0.00557873 -0.00637794,0.00919289 -0.00152362,0.00364566 -0.00227165,0.00782675 -0.00229921,0.0125315l0 0.0607006c2.7559e-005,0.00470078 0.000775589,0.00885825 0.00229921,0.0124763 0.00149606,0.00364172 0.00361416,0.00671652 0.00637794,0.00919683 0.00276771,0.00250393 0.00599605,0.00438975 0.00976769,0.00568109 0.00374409,0.00129134 0.00787793,0.001937 0.0123976,0.001937l0.0342519 0 0 -0.0111575zm0.238184 -0.00015748l-0.0342519 0c-0.00317716,0 -0.00586219,-0.000307086 -0.00803148,-0.000929132 -0.00219685,-0.000618109 -0.00390157,-0.00155118 -0.00514172,-0.0027874 -0.001937,-0.00201574 -0.00340944,-0.00403149 -0.00438975,-0.00607085 -0.00100787,-0.00201574 -0.0015,-0.00408267 -0.0015,-0.00617321l0 -0.0920628 -0.011933 0 0 0.0898935c2.7559e-005,0.00477558 0.000775589,0.00898817 0.00229921,0.0126299 0.00149606,0.00366535 0.00364172,0.00674014 0.0064055,0.00924801 0.00276377,0.00248031 0.00601967,0.00436219 0.00979132,0.00565747 0.00377164,0.00126378 0.00795274,0.00190944 0.0125,0.00190944l0.0342519 0 0 -0.0113149zm0.182704 -0.108023l-0.011933 0 0 0.119338 0.011933 0 0 -0.119338zm0.245165 0.108181l-0.0342519 0c-0.00620077,0 -0.0105393,-0.00124015 -0.0130197,-0.00372046 -0.001937,-0.00209448 -0.00340944,-0.00415747 -0.00438975,-0.00620077 -0.00100787,-0.00203937 -0.0015,-0.00410629 -0.0015,-0.00619684l0 -0.0275905 0.0398306 0 0 -0.011311 -0.0398306 0 0 -0.0258306c0,-0.00209448 0.000492125,-0.00416141 0.0015,-0.0062244 0.000980313,-0.0020433 0.00245275,-0.00413385 0.00438975,-0.00622833 0.00248031,-0.00247637 0.00681888,-0.00371653 0.0130197,-0.00371653l0.0342519 0 0 -0.0111614 -0.0342519 0c-0.00451967,0 -0.00865352,0.000645668 -0.0123976,0.001937 -0.00377164,0.00129134 -0.00699998,0.00317716 -0.00976769,0.00568503 -0.00276377,0.00250393 -0.00488188,0.00557873 -0.00637794,0.00919289 -0.00152362,0.00364566 -0.00227165,0.00782675 -0.00229921,0.0125315l0 0.0607006c2.7559e-005,0.00470078 0.000775589,0.00885825 0.00229921,0.0124763 0.00149606,0.00364172 0.00361416,0.00671652 0.00637794,0.00919683 0.00276771,0.00250393 0.00599605,0.00438975 0.00976769,0.00568109 0.00374409,0.00129134 0.00787793,0.001937 0.0123976,0.001937l0.0342519 0 0 -0.0111575zm0.218657 -0.0334015l0.00340944 -0.000307086c0.00449605,-0.000389763 0.00862596,-0.00152756 0.0124252,-0.003437 0.00377164,-0.00191338 0.00718109,-0.00454723 0.0102008,-0.00787793 0.00302362,-0.00340944 0.00535038,-0.00715746 0.0069488,-0.011185 0.00157874,-0.00403149 0.00242913,-0.00837006 0.00250787,-0.0130433 7.4803e-005,-0.00565747 -0.00082677,-0.0108228 -0.00271259,-0.0154724 -0.00188582,-0.0046496 -0.00480314,-0.008811 -0.00875589,-0.0124527 -0.00395275,-0.00364172 -0.00855116,-0.0064055 -0.0138189,-0.00824014 -0.00527164,-0.00183464 -0.0112126,-0.00276377 -0.0177992,-0.00276377l-0.0381259 0 0 0.119338 0.0122441 0 0 -0.108177 0.0266574 0c0.00449212,0 0.00855116,0.000618109 0.0121929,0.00188582 0.00361416,0.00123622 0.00679132,0.0031496 0.00950392,0.00570865 0.00255905,0.00232283 0.00449605,0.00500786 0.00583857,0.00803148 0.00134252,0.00302362 0.00206692,0.0064055 0.00222047,0.010126 0.000232283,0.00410629 -0.000385826,0.00785038 -0.00180708,0.0112086 -0.00144882,0.00338582 -0.0036929,0.00643306 -0.00671652,0.00911809 -0.00302362,0.00271259 -0.00661416,0.00475589 -0.0107716,0.00609841 -0.00415747,0.00131496 -0.00883463,0.00198818 -0.0140275,0.00198818l-0.011622 0 0.0402952 0.0540117 0.0147244 0 -0.0330117 -0.044559z"/>
  <g id="_491905696">
   <path id="_493269360" class="fil1" d="M0.108271 1.4571c0.00195275,-0.00217322 0.00493306,-0.00609841 0.00895274,-0.0117677 0.00401574,-0.00568896 0.00636613,-0.0092047 0.00710235,-0.0105866 0.000716534,-0.00139763 0.0010748,-0.00249212 0.0010748,-0.00329921 0,-0.001437 -0.000736219,-0.00258267 -0.00218897,-0.00342519 -0.00145275,-0.000862203 -0.00294094,-0.00129134 -0.00444881,-0.00129134 -0.0011811,0 -0.00177559,-0.000322834 -0.00177559,-0.000952754 0,-0.000661416 0.00100393,-0.00100393 0.00299606,-0.00100393l0.019807 0c0.00182677,0 0.00274409,0.000377952 0.00274409,0.00111023 0,0.000594487 -0.000413385,0.000897636 -0.00122047,0.000897636 -0.00206299,0 -0.00405511,0.000468503 -0.00595668,0.00141732 -0.00191732,0.000933069 -0.00423227,0.00306692 -0.00696061,0.00635038l-0.00914959 0.0123622c-0.00480708,0.00643699 -0.00738975,0.0102244 -0.00778345,0.0113543 -0.000555117,0.00163385 -0.000842518,0.00599211 -0.000842518,0.0130787 0,0.00938187 0.0003937,0.0149606 0.0011811,0.0167165 0.000791337,0.00174015 0.00333858,0.00281889 0.0076614,0.00319291 0.00111417,0.000110236 0.00166929,0.000468503 0.00166929,0.00105905 0,0.000700786 -0.000610235,0.00105905 -0.0018307,0.00105905l-0.0141338 -0.000322834c-0.00340944,0 -0.00618896,7.0866e-005 -0.00836219,0.000216535 -0.0017559,0.000141732 -0.00287007,0.00019685 -0.00337007,0.00019685 -0.00133071,0 -0.00199212,-0.000342519 -0.00199212,-0.00103937 0,-0.000559054 0.000484251,-0.000862203 0.0014685,-0.000897636 0.00337401,-0.000145669 0.0056181,-0.00140157 0.00672833,-0.00378739 0.00112992,-0.00238582 0.00168504,-0.00590156 0.00168504,-0.0105669 0,-0.00511022 -0.000322834,-0.0092362 -0.000948817,-0.0123937 -0.000145669,-0.000807085 -0.0016496,-0.00367716 -0.00451967,-0.00859447 -0.00287007,-0.00493306 -0.00638581,-0.0103661 -0.0105315,-0.0163425 -0.00416141,-0.00597243 -0.00712203,-0.00961415 -0.0089173,-0.0109055 -0.00177559,-0.00129134 -0.00351574,-0.00202755 -0.00520078,-0.00215354 -0.0012559,-0.000106299 -0.00188189,-0.000464566 -0.00188189,-0.00105905 0,-0.000374015 0.000161417,-0.000645668 0.000484251,-0.000751967 0.000338582,-0.000125984 0.00132677,-0.00019685 0.00297637,-0.00019685l0.0229606 0c0.00157874,0 0.00253149,5.5118e-005 0.00283464,0.000161417 0.000322834,0.000106299 0.000484251,0.0003937 0.000484251,0.000842518 0,0.000555117 -0.000448818,0.000877951 -0.00130708,0.000952754 -0.00443306,0.000338582 -0.00663778,0.00166535 -0.00663778,0.00398031 0,0.00120078 0.000807085,0.00306692 0.00242125,0.00563385 0.00161417,0.00254724 0.0065118,0.00947242 0.0147283,0.0207559zm0.0273188 0.0139724c0,-0.00615353 0.0022244,-0.0115866 0.00667321,-0.0162874 0.00444881,-0.00470078 0.00992124,-0.00703148 0.0163976,-0.00703148 0.00609841,0 0.0113543,0.00209842 0.0157519,0.00629526 0.00439369,0.00421653 0.00658266,0.00947242 0.00658266,0.0157677 0,0.00638581 -0.00229527,0.0119842 -0.00692518,0.0167913 -0.00462597,0.00482676 -0.0100275,0.00722833 -0.0161968,0.00722833 -0.00608266,0 -0.0113228,-0.0022244 -0.0157165,-0.00665353 -0.00437794,-0.00442912 -0.00656691,-0.00979525 -0.00656691,-0.0161102zm0.0085236 -0.000303149c0,0.00602755 0.00138189,0.0110315 0.00417716,0.0150315 0.00278346,0.00398424 0.00622833,0.00599211 0.0103149,0.00599211 0.00375196,0 0.00705116,-0.00188189 0.00992124,-0.00563385 0.00285432,-0.00374802 0.00427164,-0.00871652 0.00427164,-0.0149252 0,-0.00552361 -0.00136614,-0.0104567 -0.00412597,-0.0147992 -0.00274803,-0.00432282 -0.00631495,-0.00647636 -0.0106929,-0.00647636 -0.00405511,0 -0.00738975,0.00197637 -0.00997242,0.00590156 -0.00260236,0.00394881 -0.00389369,0.0089173 -0.00389369,0.0149094zm0.0568463 -0.02187c0.000181102,0.00227952 0.000342519,0.00886218 0.000484251,0.0197716 5.5118e-005,0.0067992 0.00023622,0.0113189 0.000519684,0.0135787 0.000287401,0.00225984 0.00116929,0.00412597 0.00265747,0.00559841 0.00148819,0.0014685 0.00319291,0.00220472 0.00511022,0.00220472 0.00253149,0 0.00505904,-0.00116535 0.00760628,-0.00351574 0.00253149,-0.00235039 0.00411023,-0.00486219 0.00470078,-0.00755116 0.000594487,-0.00267322 0.000897636,-0.00882675 0.000897636,-0.0184606 0,-0.00448424 -0.000287401,-0.00721258 -0.000842518,-0.0081614 -0.000555117,-0.000933069 -0.00192126,-0.00148819 -0.00411023,-0.00161417 -0.0007874,-3.5433e-005 -0.00120078,-0.000342519 -0.00120078,-0.000897636 0,-0.0003937 0.000125984,-0.000645668 0.000377952,-0.000771652 0.000232283,-0.000125984 0.00102362,-0.000181102 0.00235039,-0.000181102l0.0105118 0c0.000322834,0.00382283 0.000484251,0.00809053 0.000484251,0.0128267l-0.000429133 0.0197519c0,0.00407086 0.000338582,0.00663778 0.00101968,0.00767715 0.000681101,0.00105905 0.00177559,0.0016496 0.00324802,0.00179527 0.000897636,0.000141732 0.0013622,0.000484251 0.0013622,0.00103937 0,0.000645668 -0.000897636,0.000952754 -0.00268897,0.000952754l-0.00830707 0c-0.00143307,0 -0.00215354,-0.000468503 -0.00215354,-0.00141732 0,-0.000287401 1.9685e-005,-0.000594487 5.5118e-005,-0.000952754 0.000106299,-0.00103937 0.000161417,-0.00211417 0.000161417,-0.00319291 0,-0.000913384 -5.5118e-005,-0.00224015 -0.000161417,-0.00399999 -0.00265354,0.00342519 -0.00541731,0.00600786 -0.00830707,0.00773227 -0.00287007,0.00170472 -0.00586613,0.00256299 -0.00898423,0.00256299 -0.00265747,0 -0.00489763,-0.000645668 -0.0066929,-0.001937 -0.00181102,-0.00130708 -0.00299606,-0.00287007 -0.00357086,-0.00469684 -0.00059055,-0.00185039 -0.00098425,-0.00642518 -0.00118504,-0.0137598 -0.000212598,-0.00731888 -0.000322834,-0.013059 -0.000322834,-0.0172401 0,-0.00225984 -0.000122047,-0.00369684 -0.000358267,-0.00425196 -0.000248031,-0.000555117 -0.00101968,-0.000877951 -0.00231102,-0.000948817 -0.00140157,-9.0551e-005 -0.00210236,-0.000448818 -0.00210236,-0.0010433 0,-0.00059055 0.00082677,-0.000897636 0.00251181,-0.000897636l0.00966927 0zm0.0570274 0.0109252c0.00220866,-0.00390944 0.00457479,-0.00685038 0.00707085,-0.00882281 0.00251181,-0.00195669 0.00514566,-0.00294488 0.00790943,-0.00294488 0.001937,0 0.00360629,0.000700786 0.00500393,0.00208267 0.00140157,0.00138189 0.00209842,0.00294094 0.00209842,0.00470078 0,0.00333464 -0.00141338,0.00498424 -0.00424802,0.00498424 -0.00134645,0 -0.00246062,-0.000913384 -0.00337401,-0.00277952 -0.00111417,-0.00235039 -0.00260236,-0.00351574 -0.00446849,-0.00351574 -0.0017559,0 -0.00355117,0.000988187 -0.00541731,0.00294094 -0.00184645,0.00195669 -0.00310236,0.00411023 -0.00372834,0.00644093 -0.00062992,0.0023307 -0.000933069,0.00721258 -0.000933069,0.0146378 0,0.0067992 0.000267716,0.0106929 0.000822833,0.0116968 0.000574802,0.000988187 0.00201181,0.00163385 0.00432282,0.00192126 0.00062992,5.1181e-005 0.000933069,0.000303149 0.000933069,0.000732282 0,0.000736219 -0.000822833,0.00109449 -0.00245669,0.00109449l-0.0167716 0c-0.00118504,0 -0.00177559,-0.000303149 -0.00177559,-0.000893699 0,-0.000559054 0.000771652,-0.000881888 0.00235039,-0.000933069 0.00220472,-0.000145669 0.00358661,-0.00082677 0.00410629,-0.00206299 0.000519684,-0.00122047 0.0007874,-0.00574408 0.0007874,-0.013563 0,-0.0114449 -0.000232283,-0.0183346 -0.000716534,-0.0206496 -0.000464566,-0.00231102 -0.0022244,-0.00353149 -0.00527164,-0.00367716 -0.0012559,-7.0866e-005 -0.00190157,-0.0003937 -0.00190157,-0.00100393 0,-0.000303149 0.000141732,-0.000539369 0.0003937,-0.000700786 0.000267716,-0.000161417 0.00186614,-0.000322834 0.00480708,-0.000499999l0.00966927 -0.000519684c0.000251968,0.00188189 0.000519684,0.00566928 0.0007874,0.0113346zm0.109645 -0.0312125c0.00191732,-0.00172047 0.00303149,-0.00287007 0.00329921,-0.00346062 0.000358267,-0.000846455 0.000862203,-0.0012559 0.00152362,-0.0012559 0.000700786,0 0.00109449,0.000625983 0.00116929,0.00188189l0.00120078 0.0183346c0,0.00105905 -3.5433e-005,0.00170472 -0.000125984,0.00191732 -9.0551e-005,0.00023622 -0.000342519,0.000342519 -0.000771652,0.000342519 -0.000555117,0 -0.0011496,-0.000751967 -0.00177559,-0.00225984 -0.00231496,-0.00556298 -0.00554329,-0.0101378 -0.00966927,-0.0137047 -0.00418109,-0.00353542 -0.00870077,-0.00531101 -0.013563,-0.00531101 -0.00426771,0 -0.00819683,0.00138189 -0.0117677,0.00412597 -0.00358661,0.00274409 -0.00635038,0.00667321 -0.0083425,0.0117677 -0.00197244,0.00509448 -0.00295669,0.0105669 -0.00295669,0.016433 0,0.00993699 0.0027244,0.0180275 0.00821652,0.0242519 0.00548818,0.00620865 0.0116063,0.00933069 0.0183661,0.00933069 0.00459448,0 0.008811,-0.00145669 0.0126653,-0.00436219 0.00385826,-0.00292125 0.00676376,-0.00627558 0.00872045,-0.0100984 0.000535432,-0.00105905 0.0010748,-0.00157874 0.00162992,-0.00157874 0.000771652,0 0.00116929,0.000429133 0.00116929,0.0012559 0,0.00102362 -0.00133071,0.00324802 -0.00400393,0.0066929 -0.00265354,0.00342519 -0.00614959,0.00620471 -0.0104764,0.00833856 -0.00433857,0.00215354 -0.00898423,0.00321259 -0.0139527,0.00321259 -0.00585038,0 -0.0114094,-0.00148819 -0.016685,-0.00446849 -0.00527558,-0.00297637 -0.00945273,-0.00708266 -0.0125393,-0.0123386 -0.00308661,-0.00525983 -0.00462991,-0.0114291 -0.00462991,-0.0185157 0,-0.00692518 0.00150787,-0.013185 0.00450393,-0.0187637 0.00299606,-0.00555904 0.0071929,-0.0098858 0.0126299,-0.0129685 0.00543306,-0.00308661 0.0110315,-0.00462991 0.0168267,-0.00462991 0.00308661,0 0.0062244,0.000484251 0.00945273,0.00145275 0.00322834,0.000952754 0.0065118,0.00242125 0.0098858,0.00437794zm0.0146535 0.0424605c0,-0.00615353 0.0022244,-0.0115866 0.00667321,-0.0162874 0.00444881,-0.00470078 0.00992124,-0.00703148 0.0163976,-0.00703148 0.00609841,0 0.0113543,0.00209842 0.0157519,0.00629526 0.00439369,0.00421653 0.00658266,0.00947242 0.00658266,0.0157677 0,0.00638581 -0.00229527,0.0119842 -0.00692518,0.0167913 -0.00462597,0.00482676 -0.0100275,0.00722833 -0.0161968,0.00722833 -0.00608266,0 -0.0113228,-0.0022244 -0.0157165,-0.00665353 -0.00437794,-0.00442912 -0.00656691,-0.00979525 -0.00656691,-0.0161102zm0.0085236 -0.000303149c0,0.00602755 0.00138189,0.0110315 0.00417716,0.0150315 0.00278346,0.00398424 0.00622833,0.00599211 0.0103149,0.00599211 0.00375196,0 0.00705116,-0.00188189 0.00992124,-0.00563385 0.00285432,-0.00374802 0.00427164,-0.00871652 0.00427164,-0.0149252 0,-0.00552361 -0.00136614,-0.0104567 -0.00412597,-0.0147992 -0.00274803,-0.00432282 -0.00631495,-0.00647636 -0.0106929,-0.00647636 -0.00405511,0 -0.00738975,0.00197637 -0.00997242,0.00590156 -0.00260236,0.00394881 -0.00389369,0.0089173 -0.00389369,0.0149094zm0.0585353 -0.022874c0.000409448,0.00134645 0.000625983,0.00256692 0.000625983,0.00367716 -3.5433e-005,0.00165354 -9.0551e-005,0.00331889 -0.000161417,0.00500786 0.00260236,-0.00290944 0.00522046,-0.00507873 0.00789368,-0.0065118 0.00265354,-0.00145275 0.00536219,-0.00217322 0.00809053,-0.00217322 0.00249212,0 0.00480708,0.000610235 0.00694093,0.00179527 0.00213779,0.00118504 0.00407479,0.00297637 0.0058307,0.00536219 0.00249606,-0.00242125 0.00500393,-0.00423227 0.00753542,-0.00541731 0.00254724,-0.0011811 0.00509448,-0.00179133 0.0076614,-0.00179133 0.00338976,0 0.0062244,0.000716534 0.00848423,0.00211417 0.00225984,0.00140157 0.00365747,0.00294488 0.00423227,0.00464566 0.000555117,0.00170472 0.00082677,0.00479133 0.00082677,0.00927557l-0.000251968 0.0197677c0,0.00287007 0.000287401,0.00482676 0.000862203,0.00585038 0.000570865,0.00103937 0.0017559,0.00155905 0.00355117,0.00155905 0.00118504,0 0.00177559,0.000307086 0.00177559,0.000933069 0,0.000681101 -0.000952754,0.00100393 -0.00288976,0.00100393l-0.0161259 0c-0.00157874,0 -0.00236614,-0.000322834 -0.00236614,-0.000948817 0,-0.000555117 0.000444881,-0.000877951 0.0013622,-0.000933069 0.00287007,-0.000145669 0.00466534,-0.000807085 0.00536219,-0.00197244 0.000700786,-0.00118504 0.00105905,-0.00749998 0.00105905,-0.0189448 0,-0.00536219 -0.000216535,-0.00924014 -0.000610235,-0.0115866 -0.0003937,-0.00237007 -0.0013622,-0.00430708 -0.00287007,-0.00581495 -0.00150787,-0.00150787 -0.00335432,-0.00225984 -0.00555904,-0.00225984 -0.00194094,0 -0.00380314,0.00059055 -0.00563385,0.00175984 -0.00181102,0.00116535 -0.00358661,0.00295669 -0.00531101,0.00532676 -0.00139763,0.00459054 -0.00209842,0.0126653 -0.00209842,0.0242362 0,0.00407086 0.000322834,0.00663778 0.000968502,0.0076929 0.000665353,0.00107874 0.00208267,0.00161811 0.00428739,0.00161811l0.000897636 0c0.00111023,0 0.00168504,0.000283464 0.00168504,0.000877951 0,0.000625983 -0.000700786,0.000948817 -0.00209842,0.000948817l-0.0177244 0c-0.00177559,0 -0.00267322,-0.000322834 -0.00267322,-0.00100393 0,-0.000661416 0.000503936,-0.00098425 0.00152756,-0.00098425 0.00213385,0 0.00356692,-0.000448818 0.00432282,-0.00134645 0.000751967,-0.000897636 0.00127165,-0.00346456 0.00152362,-0.00769683 0.000267716,-0.00423227 0.0003937,-0.00842911 0.0003937,-0.0125551 0,-0.00746455 -0.000716534,-0.0123779 -0.00216929,-0.0147283 -0.00145275,-0.00235039 -0.00357086,-0.00351574 -0.00633069,-0.00351574 -0.00238976,0 -0.00473621,0.000948817 -0.00707085,0.0028307 -0.0023307,0.00190157 -0.00390944,0.00445275 -0.00470078,0.00768108 -0.000807085,0.00322834 -0.00121653,0.00889762 -0.00121653,0.0170236 0,0.00574014 0.000287401,0.00925588 0.000842518,0.0105472 0.000555117,0.00127559 0.001937,0.00192126 0.00414172,0.00192126 0.000881888,0 0.00141732,3.5433e-005 0.00161417,0.000141732 0.000200787,0.000106299 0.000287401,0.0003937 0.000287401,0.000842518 0,0.000555117 -0.000681101,0.000842518 -0.0020433,0.000842518l-0.0162874 0c-0.00194094,0 -0.00290944,-0.000322834 -0.00290944,-0.00100393 0,-0.00059055 0.000362204,-0.000897636 0.00105905,-0.000933069 0.00188582,-7.0866e-005 0.00317716,-0.000429133 0.00385826,-0.0010748 0.000681101,-0.000665353 0.00118504,-0.00256692 0.00150787,-0.00574014 0.000303149,-0.00315747 0.000464566,-0.00832282 0.000464566,-0.0154842 0,-0.00713778 -3.5433e-005,-0.0114606 -0.000125984,-0.0129685 -9.0551e-005,-0.00150787 -0.000610235,-0.0027244 -0.00155905,-0.00362204 -0.000933069,-0.000917321 -0.00254724,-0.00138189 -0.00482676,-0.00141732 -0.000913384,-3.5433e-005 -0.0013622,-0.000358267 -0.0013622,-0.000952754 0,-0.0003937 0.000125984,-0.000661416 0.000358267,-0.000822833 0.000251968,-0.000145669 0.0018307,-0.000377952 0.00475196,-0.000681101 0.00292519,-0.000287401 0.00550786,-0.000448818 0.00775195,-0.000448818 0.000574802,0 0.00145275,1.5748e-005 0.00263779,5.1181e-005zm0.0836848 0.00547243c-0.000145669,0.0013622 -0.000216535,0.00574014 -0.000216535,0.0131299 0,0.00954329 3.5433e-005,0.0153937 0.000106299,0.017563 7.4803e-005,0.00217322 0.000649605,0.00394881 0.00175984,0.00532676 0.00109449,0.00140157 0.00294094,0.00224409 0.00554329,0.00254724 0.000988187,0.000110236 0.00147244,0.000468503 0.00147244,0.00105905 0,0.000484251 -0.000397637,0.000736219 -0.00116929,0.000736219l-0.00882281 -0.000519684c-0.00570471,0 -0.00954329,0.000141732 -0.0115,0.000413385l-0.00059055 0c-0.000771652,0 -0.0011496,-0.000251968 -0.0011496,-0.000791337 0,-0.000625983 0.000610235,-0.00101968 0.00184645,-0.00120078 0.00159842,-0.000216535 0.00274409,-0.000574802 0.00340944,-0.00111023 0.000665353,-0.000523621 0.00111023,-0.0012559 0.00134645,-0.0022244 0.000212598,-0.000972439 0.000448818,-0.00434251 0.000645668,-0.0101181 0.000212598,-0.00577951 0.000322834,-0.0115354 0.000322834,-0.0172401 0,-0.00227952 -1.9685e-005,-0.00480708 -5.5118e-005,-0.00757085 -0.00263779,-0.000181102 -0.00462597,-0.000287401 -0.00599211,-0.000303149 -0.0013622,-3.937e-005 -0.0020433,-0.00043307 -0.0020433,-0.00116929 0,-0.0012559 0.000303149,-0.00207874 0.000933069,-0.00247244 0.000645668,-0.000377952 0.00299606,-0.00062992 0.00710235,-0.000736219 0,-0.0061181 0.000468503,-0.0110157 0.00141732,-0.0146574 0.000952754,-0.00364172 0.00297637,-0.00667321 0.00609841,-0.00905903 0.00312204,-0.00240157 0.00701573,-0.00360629 0.0117165,-0.00360629 0.00437401,0 0.00753148,0.000771652 0.00947242,0.00231496 0.00191732,0.0015433 0.00288582,0.00344487 0.00288582,0.0057244 0,0.00245669 -0.00116535,0.00367716 -0.00348031,0.00367716 -0.000842518,0 -0.0015433,-0.000287401 -0.00209842,-0.000897636 -0.000555117,-0.000594487 -0.00139763,-0.00199212 -0.00251181,-0.00419684 -0.00161417,-0.00315747 -0.00387401,-0.00473621 -0.00677951,-0.00473621 -0.00418109,0 -0.00687006,0.00207874 -0.00807478,0.00620471 -0.00122047,0.00414566 -0.00181102,0.0084488 -0.00181102,0.012933 0,0.00199212 7.0866e-005,0.00409054 0.000216535,0.0062992 0.0010748,-3.5433e-005 0.00195275,-5.5118e-005 0.0026181,-5.5118e-005 0.00272834,0 0.00475589,0.000125984 0.00606298,0.000342519 0.00132677,0.000232283 0.00197244,0.000681101 0.00197244,0.00134252 0,0.000594487 -0.00019685,0.00122047 -0.000625983,0.00185039 -0.000413385,0.000625983 -0.00129134,0.00100393 -0.0026181,0.00112992 -0.00134645,0.000125984 -0.00278346,0.000177165 -0.00432282,0.000177165 -0.000811022,0 -0.0018307,-3.5433e-005 -0.00308661,-0.000106299zm0.0149212 0.0177047c0,-0.00615353 0.0022244,-0.0115866 0.00667321,-0.0162874 0.00444881,-0.00470078 0.00992124,-0.00703148 0.0163976,-0.00703148 0.00609841,0 0.0113543,0.00209842 0.0157519,0.00629526 0.00439369,0.00421653 0.00658266,0.00947242 0.00658266,0.0157677 0,0.00638581 -0.00229527,0.0119842 -0.00692518,0.0167913 -0.00462597,0.00482676 -0.0100275,0.00722833 -0.0161968,0.00722833 -0.00608266,0 -0.0113228,-0.0022244 -0.0157165,-0.00665353 -0.00437794,-0.00442912 -0.00656691,-0.00979525 -0.00656691,-0.0161102zm0.0085236 -0.000303149c0,0.00602755 0.00138189,0.0110315 0.00417716,0.0150315 0.00278346,0.00398424 0.00622833,0.00599211 0.0103149,0.00599211 0.00375196,0 0.00705116,-0.00188189 0.00992124,-0.00563385 0.00285432,-0.00374802 0.00427164,-0.00871652 0.00427164,-0.0149252 0,-0.00552361 -0.00136614,-0.0104567 -0.00412597,-0.0147992 -0.00274803,-0.00432282 -0.00631495,-0.00647636 -0.0106929,-0.00647636 -0.00405511,0 -0.00738975,0.00197637 -0.00997242,0.00590156 -0.00260236,0.00394881 -0.00389369,0.0089173 -0.00389369,0.0149094zm0.0589447 -0.0109449c0.00220866,-0.00390944 0.00457479,-0.00685038 0.00707085,-0.00882281 0.00251181,-0.00195669 0.00514566,-0.00294488 0.00790943,-0.00294488 0.001937,0 0.00360629,0.000700786 0.00500393,0.00208267 0.00140157,0.00138189 0.00209842,0.00294094 0.00209842,0.00470078 0,0.00333464 -0.00141338,0.00498424 -0.00424802,0.00498424 -0.00134645,0 -0.00246062,-0.000913384 -0.00337401,-0.00277952 -0.00111417,-0.00235039 -0.00260236,-0.00351574 -0.00446849,-0.00351574 -0.0017559,0 -0.00355117,0.000988187 -0.00541731,0.00294094 -0.00184645,0.00195669 -0.00310236,0.00411023 -0.00372834,0.00644093 -0.00062992,0.0023307 -0.000933069,0.00721258 -0.000933069,0.0146378 0,0.0067992 0.000267716,0.0106929 0.000822833,0.0116968 0.000574802,0.000988187 0.00201181,0.00163385 0.00432282,0.00192126 0.00062992,5.1181e-005 0.000933069,0.000303149 0.000933069,0.000732282 0,0.000736219 -0.000822833,0.00109449 -0.00245669,0.00109449l-0.0167716 0c-0.00118504,0 -0.00177559,-0.000303149 -0.00177559,-0.000893699 0,-0.000559054 0.000771652,-0.000881888 0.00235039,-0.000933069 0.00220472,-0.000145669 0.00358661,-0.00082677 0.00410629,-0.00206299 0.000519684,-0.00122047 0.0007874,-0.00574408 0.0007874,-0.013563 0,-0.0114449 -0.000232283,-0.0183346 -0.000716534,-0.0206496 -0.000464566,-0.00231102 -0.0022244,-0.00353149 -0.00527164,-0.00367716 -0.0012559,-7.0866e-005 -0.00190157,-0.0003937 -0.00190157,-0.00100393 0,-0.000303149 0.000141732,-0.000539369 0.0003937,-0.000700786 0.000267716,-0.000161417 0.00186614,-0.000322834 0.00480708,-0.000499999l0.00966927 -0.000519684c0.000251968,0.00188189 0.000519684,0.00566928 0.0007874,0.0113346zm0.0462086 -0.00708266c-0.000484251,0.00774801 -0.000732282,0.0153346 -0.000732282,0.0227992 0,0.00575589 0.000681101,0.00950785 0.0020433,0.011248 0.0013622,0.0017559 0.00333858,0.00263779 0.00588581,0.00263779 0.0018622,0 0.00390944,-0.000685038 0.00614959,-0.00204724 0.000807085,-0.000499999 0.00129134,-0.000736219 0.00147244,-0.000736219 0.000468503,0 0.000681101,0.00023622 0.000681101,0.000736219 0,0.00082677 -0.00123622,0.00216929 -0.00373227,0.00398424 -0.00247244,0.00182677 -0.00552361,0.00274409 -0.0091299,0.00274409 -0.00358661,0 -0.00625983,-0.0012559 -0.0080551,-0.00373227 -0.00177559,-0.00249212 -0.00267322,-0.00620471 -0.00267322,-0.0111575 0,-0.00514959 0.000307086,-0.0139763 0.000952754,-0.0264763 -0.000251968,-7.4803e-005 -0.00192126,-0.000200787 -0.00500393,-0.000377952l-0.00314173 -0.00019685c-0.000771652,-3.5433e-005 -0.00116535,-0.000307086 -0.00116535,-0.000791337 0,-0.000464566 0.000429133,-0.000822833 0.00131102,-0.00111023 0.00143307,-0.000519684 0.00385432,-0.00206299 0.00726376,-0.00462991 0.00338976,-0.00254724 0.00536219,-0.00615353 0.00593699,-0.0108149 0.000125984,-0.00122047 0.000519684,-0.00185039 0.0011496,-0.00185039 0.000625983,0 0.000948817,0.000503936 0.000948817,0.00147244 0,0.000322834 -1.5748e-005,0.000665353 -5.1181e-005,0.00100393 -0.000110236,0.0013622 -0.000161417,0.00294094 -0.000161417,0.00473621l5.1181e-005 0.00819683 0.0115197 -0.000161417c0.00195275,0 0.00297637,0.00023622 0.00304724,0.000681101 -3.5433e-005,0.00161811 -0.000303149,0.00263779 -0.0007874,0.00305117 -0.0018307,0 -0.00642125,0.000267716 -0.0137795,0.000791337zm0.0743778 0.0335787c-0.00172441,0.00249606 -0.00376771,0.00436219 -0.00615353,0.00559841 -0.00237007,0.00123622 -0.00507873,0.00186614 -0.00809053,0.00186614 -0.00353542,0 -0.00631495,-0.000952754 -0.00832282,-0.00283464 -0.00202755,-0.00190157 -0.00303149,-0.00437794 -0.00303149,-0.00746455 0,-0.00231102 0.000610235,-0.00446456 0.00181102,-0.00647636 0.00122047,-0.00198818 0.00260236,-0.00342519 0.00416141,-0.00430314 0.00155905,-0.000877951 0.00430708,-0.00197244 0.00821652,-0.00329921 0.00561416,-0.00186614 0.00896848,-0.00340944 0.0100984,-0.00462991 0.00111417,-0.00123622 0.00168897,-0.00281495 0.00168897,-0.00479133 0,-0.0031181 -0.000736219,-0.00554329 -0.00220866,-0.00728345 -0.00147244,-0.00172047 -0.00357086,-0.00259842 -0.00625983,-0.00259842 -0.00220866,0 -0.00387401,0.000499999 -0.00498818,0.0014685 -0.00112992,0.00102362 -0.00199212,0.00299606 -0.00258267,0.00595668 -0.000625983,0.00321259 -0.00200787,0.00482676 -0.00414566,0.00482676 -0.000767715,0 -0.00162992,-0.000377952 -0.00254724,-0.0011496 -0.000933069,-0.000771652 -0.00139763,-0.00191732 -0.00139763,-0.00342519 0,-0.0026181 0.00145275,-0.00491731 0.00435826,-0.00685431 0.00290551,-0.00195275 0.00690943,-0.00292125 0.0119842,-0.00292125 0.00403542,0 0.00724801,0.000570865 0.00964958,0.00170078 0.00238582,0.0011496 0.00389369,0.00246062 0.00452361,0.00392912 0.000610235,0.00147244 0.000913384,0.00430708 0.000913384,0.00850392l-0.000322834 0.0138858c0,0.00536219 0.000322834,0.00916533 0.000968502,0.0114252 0.000665353,0.00225984 0.00184645,0.00339369 0.00360629,0.00339369 0.000358267,0 0.000842518,-5.5118e-005 0.00147244,-0.000161417l0.000893699 -0.000110236c0.000807085,0 0.00120472,0.000307086 0.00120472,0.000897636 0,0.0013622 -0.00344487,0.0020433 -0.0103504,0.0020433 -0.00199212,0 -0.00333858,-0.000464566 -0.00401968,-0.00137795 -0.000681101,-0.000933069 -0.00105905,-0.00287007 -0.00112992,-0.00581495zm0 -0.0205039c-0.00105905,0.00138189 -0.00342519,0.00303149 -0.00714172,0.00500393 -0.00367716,0.00188582 -0.00633069,0.00369684 -0.00794486,0.00540156 -0.00161417,0.00175984 -0.00240551,0.00385826 -0.00240551,0.00631495 0,0.00220472 0.000645668,0.00409054 0.00195669,0.00563385 0.00132677,0.00152362 0.00296062,0.00229527 0.00491337,0.00229527 0.00204724,0 0.00394881,-0.000610235 0.00574014,-0.00186614 0.00177952,-0.00123622 0.00310629,-0.00281495 0.00396456,-0.00475196 0.000862203,-0.00192126 0.00129527,-0.00477558 0.00129527,-0.00855904 0,-0.00283464 -0.000125984,-0.00599211 -0.000377952,-0.00947242zm0.0332755 -0.0177598c0.00082677,0.00206299 0.00134645,0.00556298 0.00152756,0.0104606 0.00216929,-0.00342913 0.00457479,-0.0060118 0.00720864,-0.00771652 0.00265747,-0.00172047 0.00552755,-0.00258267 0.00864959,-0.00258267 0.00238582,0 0.00469684,0.000448818 0.00692124,0.00134645 0.0022244,0.000877951 0.00392912,0.00242125 0.00514959,0.00461023 0.00120078,0.00220866 0.00181102,0.00592125 0.00181102,0.0111771l-0.000322834 0.0177047c0,0.00326377 0.000271653,0.00531101 0.00082677,0.00613384 0.000539369,0.00082677 0.00170472,0.00147244 0.00348031,0.00197637 0.00123622,0.000338582 0.00184645,0.000732282 0.00184645,0.00114567 0,0.000519684 -0.000303149,0.000791337 -0.000897636,0.000791337 -0.000248031,0 -0.000484251,-1.9685e-005 -0.000732282,-5.5118e-005 -0.00161811,-0.000358267 -0.00400393,-0.000519684 -0.00714172,-0.000519684 -0.00285039,0 -0.00588188,0.000125984 -0.00914959,0.000358267 -0.00129134,0 -0.001937,-0.000287401 -0.001937,-0.000897636 0,-0.000413385 0.000342519,-0.000700786 0.00103937,-0.000822833 0.00194094,-0.00043307 0.00319291,-0.000862203 0.00378739,-0.00133071 0.00059055,-0.000448818 0.00102362,-0.00105512 0.0012559,-0.00181102 0.000251968,-0.000751967 0.000448818,-0.00328346 0.000610235,-0.0075866 0.000161417,-0.00430708 0.000232283,-0.00782282 0.000232283,-0.0105118 0,-0.00739368 -0.000933069,-0.0123267 -0.00277952,-0.0147637 -0.00186614,-0.00246062 -0.00416141,-0.00367716 -0.00694487,-0.00367716 -0.00409054,0 -0.00749605,0.00220472 -0.0102244,0.00663384 -0.00270866,0.00443306 -0.00407086,0.0118228 -0.00407086,0.0221574 0,0.00470078 0.000303149,0.00767715 0.000933069,0.00896848 0.000610235,0.00127559 0.00213385,0.0020433 0.00459054,0.0023307 0.000771652,7.4803e-005 0.0011496,0.000397637 0.0011496,0.00100787 0,0.000484251 -0.000377952,0.000732282 -0.0011496,0.000732282l-0.0027244 -0.000212598c-0.000988187,-7.4803e-005 -0.00423621,-0.000110236 -0.00972439,-0.000110236l-0.00421653 0.000110236c-0.0015433,0 -0.00231496,-0.000287401 -0.00231496,-0.000842518 0,-0.000594487 0.000846455,-0.00105905 0.00253149,-0.00136614 0.00161417,-0.000322834 0.00268897,-0.000858266 0.00326377,-0.0016496 0.000555117,-0.0007874 0.000933069,-0.00340944 0.00112992,-0.00785825 0.000181102,-0.00444881 0.000287401,-0.0100079 0.000287401,-0.0166653 0,-0.00620471 -0.000429133,-0.010063 -0.00127165,-0.0115708 -0.00082677,-0.00150393 -0.00201181,-0.00242125 -0.00351574,-0.00277952 -0.00136614,-0.000303149 -0.00204724,-0.000751967 -0.00204724,-0.00131102 0,-0.00059055 0.000519684,-0.000893699 0.00157874,-0.000893699l0.00425196 5.1181e-005c0.000448818,0 0.00281495,-5.1181e-005 0.00710235,-0.000161417zm0.0855707 -0.0269606c3.5433e-005,0.00749605 5.1181e-005,0.0176338 5.1181e-005,0.0303897l-0.000429133 0.0333661c0,0.00367716 0.00170472,0.00581101 0.00509448,0.00640156 0.00112992,0.000216535 0.00168504,0.000594487 0.00168504,0.00111417 0,0.000413385 -0.00019685,0.000681101 -0.000610235,0.0007874 -0.0003937,0.000110236 -0.0027244,0.000161417 -0.00695668,0.000161417 -0.00217322,-3.5433e-005 -0.00432676,-7.0866e-005 -0.00646062,-0.000106299 -0.000106299,-0.00213385 -0.000161417,-0.00367716 -0.000161417,-0.00462991 0,-0.0011811 5.5118e-005,-0.00288582 0.000161417,-0.00509448 -0.00190157,0.00349999 -0.00405511,0.00613778 -0.00647636,0.00787793 -0.00240157,0.0017559 -0.00509448,0.00263385 -0.00803541,0.00263385 -0.00416141,0 -0.00839368,-0.00197244 -0.0126811,-0.00588188 -0.00430708,-0.00392912 -0.00644093,-0.00922045 -0.00644093,-0.0158779 0,-0.00647243 0.00200787,-0.0121063 0.00600786,-0.0168779 0.00401968,-0.00475589 0.00895274,-0.00714172 0.0147992,-0.00714172 0.00294488,0 0.00549211,0.00062992 0.00762597,0.00186614 0.00213385,0.00124015 0.00387401,0.00312204 0.00520078,0.00564959 0.000216535,-0.00414172 0.000307086,-0.00801573 0.000307086,-0.0116575 0,-0.0111968 -0.000271653,-0.0173818 -0.00082677,-0.018622 -0.000574802,-0.00122047 -0.00188189,-0.00195669 -0.00394487,-0.00220472 -0.00129134,-0.000161417 -0.00195669,-0.000503936 -0.00195669,-0.000988187 0,-0.00059055 0.00082677,-0.000897636 0.00247637,-0.000897636l0.0115708 -0.000267716zm-0.00740943 0.0470904c0,-0.00595668 -0.00102362,-0.0104055 -0.00303149,-0.0133661 -0.00201181,-0.00296062 -0.00505904,-0.00444881 -0.00911415,-0.00444881 -0.00425196,0 -0.00742518,0.00172441 -0.00955903,0.00518503 -0.00215354,0.00344487 -0.00321259,0.0086299 -0.00321259,0.0155157 0,0.0069803 0.00127165,0.0119645 0.00380314,0.0149803 0.00254724,0.0030118 0.00531101,0.00451967 0.00828738,0.00451967 0.00297637,0 0.00584644,-0.00157874 0.00864565,-0.00475196 0.00277952,-0.00317716 0.00418109,-0.00904329 0.00418109,-0.0176338zm0.0858738 -0.0402007c0.000952754,-0.000952754 0.00157874,-0.00192126 0.00190157,-0.00294488 0.000267716,-0.000842518 0.000681101,-0.0012559 0.00120078,-0.0012559 0.000287401,0 0.000594487,0.000161417 0.000952754,0.000519684 0.000232283,0.0012559 0.00059055,0.00380314 0.00103937,0.00762597l0.00127559 0.0098858c0,0.000625983 -0.000397637,0.000933069 -0.00116929,0.000933069 -0.000409448,0 -0.0007874,-0.000342519 -0.00109055,-0.0010433 -0.00186614,-0.00459054 -0.00461023,-0.00841337 -0.00825195,-0.0114606 -0.00364172,-0.00301574 -0.00762597,-0.00452361 -0.011933,-0.00452361 -0.00424802,0 -0.00744093,0.00127559 -0.00959447,0.00384251 -0.00215354,0.00256299 -0.00322834,0.00527164 -0.00322834,0.00814171 0,0.00349999 0.00116535,0.00618896 0.00351574,0.00803935 0.00235039,0.0018622 0.00717321,0.00396062 0.0145118,0.00631101 0.00538188,0.00168897 0.00943699,0.00330314 0.0121063,0.00488188 0.00267322,0.00157874 0.004937,0.00378346 0.00674802,0.0066181 0.00182677,0.00285432 0.00274409,0.00590156 0.00274409,0.00914959 0,0.00554329 -0.00229527,0.0104921 -0.00688975,0.01487 -0.00459054,0.00437794 -0.0102047,0.0065866 -0.0168622,0.0065866 -0.00599211,0 -0.0120197,-0.00188582 -0.0180826,-0.00563385 -0.00120078,0.00098425 -0.00197244,0.00213385 -0.00231496,0.00346062 -0.000287401,0.00112992 -0.000732282,0.00168504 -0.0013622,0.00168504 -0.000574802,0 -0.000968502,-0.000716534 -0.00122047,-0.0021496 -0.000232283,-0.001437 -0.000751967,-0.0082362 -0.00152362,-0.0203976 0.000141732,-0.000413385 0.000519684,-0.00062992 0.00111023,-0.00062992 0.000523621,0 0.000952754,0.000397637 0.0012559,0.00116929 0.00540156,0.0135433 0.012937,0.0203228 0.0226062,0.0203228 0.00478739,0 0.0085551,-0.00143307 0.0112638,-0.00432282 0.00272834,-0.00288976 0.00407086,-0.00620471 0.00407086,-0.00995667 0,-0.00259842 -0.000716534,-0.00498818 -0.00216929,-0.00715746 -0.00145275,-0.00216929 -0.00338976,-0.00392912 -0.00577558,-0.00525589 -0.00240551,-0.00132677 -0.00620865,-0.00281495 -0.0113937,-0.00446456 -0.00665353,-0.00213779 -0.0111732,-0.00416534 -0.0135787,-0.00606692 -0.00240157,-0.00191732 -0.00416141,-0.00407086 -0.00527164,-0.00647243 -0.00113386,-0.00238582 -0.00168897,-0.00472046 -0.00168897,-0.00696061 0,-0.00466534 0.00209842,-0.00879132 0.00633463,-0.0123976 0.00421259,-0.00360629 0.00939762,-0.00541731 0.0155354,-0.00541731 0.00229527,0 0.00473621,0.000377952 0.00726376,0.00111417 0.00254724,0.000732282 0.00520078,0.00184645 0.00796455,0.00335432zm0.0344251 0.0247558c-0.000484251,0.00774801 -0.000732282,0.0153346 -0.000732282,0.0227992 0,0.00575589 0.000681101,0.00950785 0.0020433,0.011248 0.0013622,0.0017559 0.00333858,0.00263779 0.00588581,0.00263779 0.0018622,0 0.00390944,-0.000685038 0.00614959,-0.00204724 0.000807085,-0.000499999 0.00129134,-0.000736219 0.00147244,-0.000736219 0.000468503,0 0.000681101,0.00023622 0.000681101,0.000736219 0,0.00082677 -0.00123622,0.00216929 -0.00373227,0.00398424 -0.00247244,0.00182677 -0.00552361,0.00274409 -0.0091299,0.00274409 -0.00358661,0 -0.00625983,-0.0012559 -0.0080551,-0.00373227 -0.00177559,-0.00249212 -0.00267322,-0.00620471 -0.00267322,-0.0111575 0,-0.00514959 0.000307086,-0.0139763 0.000952754,-0.0264763 -0.000251968,-7.4803e-005 -0.00192126,-0.000200787 -0.00500393,-0.000377952l-0.00314173 -0.00019685c-0.000771652,-3.5433e-005 -0.00116535,-0.000307086 -0.00116535,-0.000791337 0,-0.000464566 0.000429133,-0.000822833 0.00131102,-0.00111023 0.00143307,-0.000519684 0.00385432,-0.00206299 0.00726376,-0.00462991 0.00338976,-0.00254724 0.00536219,-0.00615353 0.00593699,-0.0108149 0.000125984,-0.00122047 0.000519684,-0.00185039 0.0011496,-0.00185039 0.000625983,0 0.000948817,0.000503936 0.000948817,0.00147244 0,0.000322834 -1.5748e-005,0.000665353 -5.1181e-005,0.00100393 -0.000110236,0.0013622 -0.000161417,0.00294094 -0.000161417,0.00473621l5.1181e-005 0.00819683 0.0115197 -0.000161417c0.00195275,0 0.00297637,0.00023622 0.00304724,0.000681101 -3.5433e-005,0.00161811 -0.000303149,0.00263779 -0.0007874,0.00305117 -0.0018307,0 -0.00642125,0.000267716 -0.0137795,0.000791337z"/>
   <path id="_493269432" class="fil1" d="M1.016 1.48532c0.00382283,-0.0103701 0.00627951,-0.0174173 0.00735431,-0.0211496 0.00109449,-0.00373227 0.00163385,-0.00670865 0.00163385,-0.00895274 0,-0.00290551 -0.0018307,-0.00451967 -0.00547243,-0.00484251 -0.00100393,-0.000106299 -0.00152362,-0.000448818 -0.00152362,-0.00105905 0,-0.000555117 0.000413385,-0.000822833 0.00122047,-0.000822833 0.000267716,0 0.00122047,5.1181e-005 0.00283464,0.000141732 0.000625983,3.5433e-005 0.00174015,5.5118e-005 0.00331889,5.5118e-005 0.00464566,0 0.0077677,-7.0866e-005 0.00934644,-0.00019685 0.000696849,-7.4803e-005 0.0011811,-0.000110236 0.0014685,-0.000110236 0.000881888,0 0.00131102,0.000287401 0.00131102,0.000897636 0,0.000519684 -0.000464566,0.000877951 -0.00141732,0.00109449 -0.00279921,0.00062992 -0.00502361,0.00267322 -0.00663778,0.0061181 -0.00163385,0.00346062 -0.00459054,0.0114803 -0.00886218,0.0240551 -0.00417716,0.0122874 -0.00753542,0.0211692 -0.010063,0.026622 -0.00254724,0.005437 -0.00518503,0.00920077 -0.0079488,0.0113031 -0.00274409,0.00207874 -0.00545274,0.0031181 -0.00810628,0.0031181 -0.00272834,0 -0.00489763,-0.0007874 -0.00649211,-0.00236614 -0.00159842,-0.00157874 -0.00238976,-0.00319291 -0.00238976,-0.00484251 0,-0.00133071 0.000539369,-0.00249606 0.00159842,-0.00351574 0.0010748,-0.00100787 0.00216929,-0.00152756 0.00328346,-0.00152756 0.00287007,0 0.00442912,0.001437 0.00468109,0.00430708 0.000145669,0.001937 0.00100393,0.00290551 0.00258267,0.00290551 0.00251181,0 0.0053307,-0.00265354 0.00843305,-0.0079488 0.00310236,-0.00529133 0.00464566,-0.0094173 0.00464566,-0.0123937 0,-0.00235039 -0.00120078,-0.00649605 -0.00360629,-0.0124134 -0.00238582,-0.00592125 -0.00505904,-0.0123228 -0.00799998,-0.0191968 -0.00296062,-0.00688581 -0.00495274,-0.0109409 -0.00602755,-0.0121417 -0.00105905,-0.00122047 -0.0022244,-0.00190157 -0.00349999,-0.00208267 -0.00114567,-0.000141732 -0.00172047,-0.000484251 -0.00172047,-0.00105905 0,-0.000661416 0.000413385,-0.00098425 0.0012559,-0.00098425 0.000338582,0 0.000751967,3.5433e-005 0.00120078,0.000106299 0.00204724,0.000232283 0.00435826,0.000358267 0.00699605,0.000358267 0.00559841,0 0.0090236,-0.000125984 0.0102441,-0.000358267 0.000736219,-0.000141732 0.0012559,-0.000216535 0.00152362,-0.000216535 0.000881888,0 0.00131102,0.000342519 0.00131102,0.00100393 0,0.000559054 -0.000771652,0.00102362 -0.00229527,0.00141732 -0.00278346,0.000736219 -0.00416141,0.00206299 -0.00416141,0.00398424 0,0.0016496 0.00399999,0.0118937 0.0119803,0.0306928zm0.0412597 -0.0642754c0.000106299,0.00441338 0.00019685,0.00884644 0.000251968,0.0132559l-9.0551e-005 0.0327401 0.00019685 0.0158779c0,0.0030118 0.000429133,0.00518109 0.00129134,0.0065118 0.000862203,0.00132677 0.00270866,0.00211417 0.00554329,0.00236614 0.00112992,0.000106299 0.00168504,0.000429133 0.00168504,0.000988187 0,0.000610235 -0.000448818,0.000893699 -0.0013622,0.000893699 -0.000251968,0 -0.000539369,-1.5748e-005 -0.000897636,-5.1181e-005 -0.00360629,-0.000377952 -0.00790943,-0.000574802 -0.012933,-0.000574802 -0.00305117,0 -0.00548818,0.000141732 -0.00735431,0.000413385 -0.000377952,3.5433e-005 -0.000736219,5.1181e-005 -0.0010433,5.1181e-005 -0.00105512,0 -0.00157874,-0.000303149 -0.00157874,-0.000929132 0,-0.000610235 0.000468503,-0.000917321 0.00141732,-0.000952754 0.00317716,-3.5433e-005 0.00527558,-0.000948817 0.00627951,-0.00276377 0.000988187,-0.00181102 0.00148819,-0.00482282 0.00148819,-0.00905903l-0.000141732 -0.0299566c-3.5433e-005,-0.00963384 -0.000181102,-0.0153937 -0.0003937,-0.0172756 -0.00023622,-0.00186614 -0.000968502,-0.00344487 -0.00218897,-0.00470078 -0.00122047,-0.0012559 -0.00294094,-0.00206299 -0.00514959,-0.00242125 -0.0013622,-0.00019685 -0.0020433,-0.000574802 -0.0020433,-0.00109449 0,-0.00059055 0.000555117,-0.000933069 0.00166535,-0.00100393 0.00642518,-0.000413385 0.0112323,-0.00118504 0.0144606,-0.00231496l0.000897636 0zm0.0239094 0.0474684c-0.000125984,0.00177559 -0.00019685,0.00320865 -0.00019685,0.00425196 0,0.00496849 0.00145275,0.00918502 0.00437794,0.0126102 0.00292519,0.00344487 0.00654723,0.00514959 0.0108543,0.00514959 0.00421259,0 0.00810628,-0.00166929 0.0117323,-0.0050433 0.00103937,-0.000948817 0.00170078,-0.00141732 0.00198818,-0.00141732 0.000559054,0 0.000862203,0.000448818 0.000897636,0.0013622 -0.00134645,0.00246062 -0.00360629,0.00452361 -0.00683463,0.00620865 -0.00322834,0.00168504 -0.00681495,0.00253149 -0.0107795,0.00253149 -0.00581495,0 -0.0107283,-0.00210236 -0.0147637,-0.0062992 -0.00403936,-0.00417716 -0.00604723,-0.00947242 -0.00604723,-0.0158937 0,-0.00687006 0.0022244,-0.0125945 0.00665747,-0.017185 0.00442912,-0.00459054 0.00916533,-0.00688975 0.0142047,-0.00688975 0.00473621,0 0.00900785,0.00179527 0.0128267,0.00540156 0.00382283,0.00358661 0.0057244,0.00780313 0.0057244,0.0126299 0,0.000732282 -0.000110236,0.00129134 -0.000342519,0.00162992 -0.000216535,0.000358267 -0.00155905,0.000519684 -0.00401968,0.000519684l-0.0262795 0.00043307zm0 -0.00274409c0.00455904,0.000212598 0.00896848,0.000322834 0.0132559,0.000322834l0.00278346 -0.000161417c0.00209842,-7.4803e-005 0.00371259,-0.000484251 0.00482282,-0.00124015 0.00112992,-0.000751967 0.00168897,-0.00206299 0.00168897,-0.00396456 0,-0.00294094 -0.00100393,-0.00550786 -0.00301574,-0.00769683 -0.00202755,-0.00218503 -0.00439369,-0.00327952 -0.00712203,-0.00327952 -0.00252755,0 -0.00503936,0.0012559 -0.00755116,0.00374802 -0.00249212,0.00251181 -0.00412597,0.00660235 -0.00486219,0.0122716zm0.0430353 0.017559c0.0018307,0 0.00351574,0.000807085 0.00505904,0.00242519 0.0015433,0.00161417 0.00231496,0.00346062 0.00231496,0.00555904 0,0.00297637 -0.000933069,0.00604723 -0.00279921,0.00918502 -0.00185039,0.00312204 -0.00391338,0.00547243 -0.00618896,0.00701573 -0.00227952,0.00153937 -0.00369684,0.00231102 -0.00421653,0.00231102 -0.00059055,0 -0.000897636,-0.000374015 -0.000897636,-0.00111023 0,-0.000287401 0.000377952,-0.00062992 0.00111417,-0.00105905 0.0016496,-0.000897636 0.00328346,-0.00251181 0.00487794,-0.00482676 0.00161417,-0.00231102 0.00242125,-0.00464566 0.00242125,-0.00699605 0,-0.00129134 -0.000661416,-0.00199212 -0.00199212,-0.00209842 -0.00209842,-0.000177165 -0.00355117,-0.0007874 -0.00435826,-0.0018307 -0.000807085,-0.00105512 -0.00122047,-0.00209842 -0.00122047,-0.00310236 0,-0.00139763 0.000523621,-0.00267322 0.00152756,-0.00378346 0.00101968,-0.00112992 0.00247244,-0.00168897 0.00435826,-0.00168897zm0.0442204 -0.0251141c0,-0.00473621 0.001437,-0.00993699 0.00430708,-0.0155866 0.00287007,-0.00565353 0.00706691,-0.0103346 0.0125905,-0.0140118 0.00550786,-0.00367716 0.0117323,-0.00550786 0.0186771,-0.00550786 0.0097047,0 0.0177244,0.00346456 0.0240354,0.0104055 0.00633463,0.00692518 0.0094921,0.0148543 0.0094921,0.0237519 0,0.00945273 -0.00349999,0.017937 -0.0105118,0.0254527 -0.00699605,0.00751967 -0.0154291,0.0112834 -0.0252755,0.0112834 -0.0094173,0 -0.0173307,-0.00329921 -0.0237362,-0.00988187 -0.00638581,-0.00658266 -0.00957872,-0.0152322 -0.00957872,-0.0259055zm0.0117165 -0.00168504c0,0.00570471 0.000877951,0.0115708 0.00263385,0.0175787 0.00174015,0.0060118 0.00450393,0.0103701 0.00825195,0.0130787 0.00373227,0.00272834 0.00775195,0.00407086 0.0120197,0.00407086 0.00690943,0 0.012433,-0.00335432 0.0165945,-0.010063 0.00414566,-0.00670865 0.0062244,-0.0144763 0.0062244,-0.0233031 0,-0.0085551 -0.00211811,-0.0160551 -0.00636613,-0.0225118 -0.00423621,-0.00647636 -0.00977951,-0.0097047 -0.0165945,-0.0097047 -0.00514959,0 -0.00945273,0.00172047 -0.0128819,0.00518503 -0.00344487,0.00344094 -0.00593699,0.00756691 -0.00751573,0.0123779 -0.00157874,0.00478739 -0.00236614,0.00922045 -0.00236614,0.0132913zm0.0783542 -0.00762597c0.000181102,0.00227952 0.000342519,0.00886218 0.000484251,0.0197716 5.5118e-005,0.0067992 0.00023622,0.0113189 0.000519684,0.0135787 0.000287401,0.00225984 0.00116929,0.00412597 0.00265747,0.00559841 0.00148819,0.0014685 0.00319291,0.00220472 0.00511022,0.00220472 0.00253149,0 0.00505904,-0.00116535 0.00760628,-0.00351574 0.00253149,-0.00235039 0.00411023,-0.00486219 0.00470078,-0.00755116 0.000594487,-0.00267322 0.000897636,-0.00882675 0.000897636,-0.0184606 0,-0.00448424 -0.000287401,-0.00721258 -0.000842518,-0.0081614 -0.000555117,-0.000933069 -0.00192126,-0.00148819 -0.00411023,-0.00161417 -0.0007874,-3.5433e-005 -0.00120078,-0.000342519 -0.00120078,-0.000897636 0,-0.0003937 0.000125984,-0.000645668 0.000377952,-0.000771652 0.000232283,-0.000125984 0.00102362,-0.000181102 0.00235039,-0.000181102l0.0105118 0c0.000322834,0.00382283 0.000484251,0.00809053 0.000484251,0.0128267l-0.000429133 0.0197519c0,0.00407086 0.000338582,0.00663778 0.00101968,0.00767715 0.000681101,0.00105905 0.00177559,0.0016496 0.00324802,0.00179527 0.000897636,0.000141732 0.0013622,0.000484251 0.0013622,0.00103937 0,0.000645668 -0.000897636,0.000952754 -0.00268897,0.000952754l-0.00830707 0c-0.00143307,0 -0.00215354,-0.000468503 -0.00215354,-0.00141732 0,-0.000287401 1.9685e-005,-0.000594487 5.5118e-005,-0.000952754 0.000106299,-0.00103937 0.000161417,-0.00211417 0.000161417,-0.00319291 0,-0.000913384 -5.5118e-005,-0.00224015 -0.000161417,-0.00399999 -0.00265354,0.00342519 -0.00541731,0.00600786 -0.00830707,0.00773227 -0.00287007,0.00170472 -0.00586613,0.00256299 -0.00898423,0.00256299 -0.00265747,0 -0.00489763,-0.000645668 -0.0066929,-0.001937 -0.00181102,-0.00130708 -0.00299606,-0.00287007 -0.00357086,-0.00469684 -0.00059055,-0.00185039 -0.00098425,-0.00642518 -0.00118504,-0.0137598 -0.000212598,-0.00731888 -0.000322834,-0.013059 -0.000322834,-0.0172401 0,-0.00225984 -0.000122047,-0.00369684 -0.000358267,-0.00425196 -0.000248031,-0.000555117 -0.00101968,-0.000877951 -0.00231102,-0.000948817 -0.00140157,-9.0551e-005 -0.00210236,-0.000448818 -0.00210236,-0.0010433 0,-0.00059055 0.00082677,-0.000897636 0.00251181,-0.000897636l0.00966927 0zm0.0570274 0.0109252c0.00220866,-0.00390944 0.00457479,-0.00685038 0.00707085,-0.00882281 0.00251181,-0.00195669 0.00514566,-0.00294488 0.00790943,-0.00294488 0.001937,0 0.00360629,0.000700786 0.00500393,0.00208267 0.00140157,0.00138189 0.00209842,0.00294094 0.00209842,0.00470078 0,0.00333464 -0.00141338,0.00498424 -0.00424802,0.00498424 -0.00134645,0 -0.00246062,-0.000913384 -0.00337401,-0.00277952 -0.00111417,-0.00235039 -0.00260236,-0.00351574 -0.00446849,-0.00351574 -0.0017559,0 -0.00355117,0.000988187 -0.00541731,0.00294094 -0.00184645,0.00195669 -0.00310236,0.00411023 -0.00372834,0.00644093 -0.00062992,0.0023307 -0.000933069,0.00721258 -0.000933069,0.0146378 0,0.0067992 0.000267716,0.0106929 0.000822833,0.0116968 0.000574802,0.000988187 0.00201181,0.00163385 0.00432282,0.00192126 0.00062992,5.1181e-005 0.000933069,0.000303149 0.000933069,0.000732282 0,0.000736219 -0.000822833,0.00109449 -0.00245669,0.00109449l-0.0167716 0c-0.00118504,0 -0.00177559,-0.000303149 -0.00177559,-0.000893699 0,-0.000559054 0.000771652,-0.000881888 0.00235039,-0.000933069 0.00220472,-0.000145669 0.00358661,-0.00082677 0.00410629,-0.00206299 0.000519684,-0.00122047 0.0007874,-0.00574408 0.0007874,-0.013563 0,-0.0114449 -0.000232283,-0.0183346 -0.000716534,-0.0206496 -0.000464566,-0.00231102 -0.0022244,-0.00353149 -0.00527164,-0.00367716 -0.0012559,-7.0866e-005 -0.00190157,-0.0003937 -0.00190157,-0.00100393 0,-0.000303149 0.000141732,-0.000539369 0.0003937,-0.000700786 0.000267716,-0.000161417 0.00186614,-0.000322834 0.00480708,-0.000499999l0.00966927 -0.000519684c0.000251968,0.00188189 0.000519684,0.00566928 0.0007874,0.0113346zm0.0745392 -5.1181e-005c0,0.00157874 -0.000110236,0.00394487 -0.000322834,0.00710235 -0.000110236,0.0015433 -0.000161417,0.00310236 -0.000161417,0.00468109 0,0.00118504 7.0866e-005,0.00375196 0.00019685,0.00769683 0.000106299,0.00394487 0.000358267,0.0064055 0.000736219,0.00738975 0.000358267,0.000968502 0.00116535,0.00192126 0.00240157,0.00283464 0.0012559,0.000917321 0.00258267,0.00140157 0.00403542,0.00147244 0.00159842,0.000106299 0.00240551,0.000464566 0.00240551,0.00109449 0,0.000499999 -0.000232283,0.0007874 -0.000736219,0.000877951 -0.000484251,9.0551e-005 -0.00235039,0.000125984 -0.00555904,0.000125984l-0.0144606 -5.5118e-005c-0.00407086,0 -0.0062244,-5.1181e-005 -0.00649211,-0.000177165 -0.000251968,-0.000125984 -0.000397637,-0.000358267 -0.000397637,-0.000716534 0,-0.000559054 0.000665353,-0.000972439 0.00201181,-0.0012559 0.0023307,-0.000523621 0.00398031,-0.00134645 0.00491337,-0.00247637 0.000917321,-0.00111417 0.00148819,-0.00353542 0.00170472,-0.00723227 0.00019685,-0.0036929 0.000307086,-0.00794486 0.000307086,-0.0127874l-0.000145669 -0.0140275 0.000145669 -0.0151417c0,-0.00536613 -0.000362204,-0.00879132 -0.00109449,-0.0102795 -0.000736219,-0.00148819 -0.00217322,-0.00242125 -0.00430708,-0.00279921 -0.00231496,-0.000429133 -0.00348031,-0.000933069 -0.00348031,-0.00152362 0,-0.000610235 0.000519684,-0.000897636 0.00157874,-0.000897636l0.0104055 5.5118e-005 0.0167165 -0.000110236c0.011,0 0.0184055,0.00172441 0.0222086,0.00514959 0.00378739,0.00342519 0.00568896,0.00773227 0.00568896,0.0128819 0,0.00613384 -0.00247637,0.0107244 -0.00746455,0.013811 -0.00496849,0.00308661 -0.0124488,0.00462991 -0.0224409,0.00462991 -0.00240157,0 -0.00522046,-0.000110236 -0.00839368,-0.000322834zm0 -0.00209842c0.00514566,0.000177165 0.00807085,0.000267716 0.00877163,0.000267716 0.00357086,0 0.00694093,-0.000610235 0.0100827,-0.00184645 0.00315747,-0.00122047 0.00546849,-0.00342913 0.00692124,-0.00662203 0.00145275,-0.00317322 0.00217322,-0.00633069 0.00217322,-0.00945273 0,-0.00396456 -0.00132677,-0.00731888 -0.00401968,-0.010063 -0.00267322,-0.00274409 -0.00749998,-0.00412597 -0.0144763,-0.00412597 -0.00360629,0 -0.00676376,0.000374015 -0.00945273,0.00114567 -3.5433e-005,0.00127559 -5.5118e-005,0.00206299 -5.5118e-005,0.00237007l0.000216535 0.0120905 -0.000216535 0.0128819c0,0.000625983 1.9685e-005,0.00173622 5.5118e-005,0.00335432zm0.0611495 0.0021496c0.00220866,-0.00390944 0.00457479,-0.00685038 0.00707085,-0.00882281 0.00251181,-0.00195669 0.00514566,-0.00294488 0.00790943,-0.00294488 0.001937,0 0.00360629,0.000700786 0.00500393,0.00208267 0.00140157,0.00138189 0.00209842,0.00294094 0.00209842,0.00470078 0,0.00333464 -0.00141338,0.00498424 -0.00424802,0.00498424 -0.00134645,0 -0.00246062,-0.000913384 -0.00337401,-0.00277952 -0.00111417,-0.00235039 -0.00260236,-0.00351574 -0.00446849,-0.00351574 -0.0017559,0 -0.00355117,0.000988187 -0.00541731,0.00294094 -0.00184645,0.00195669 -0.00310236,0.00411023 -0.00372834,0.00644093 -0.00062992,0.0023307 -0.000933069,0.00721258 -0.000933069,0.0146378 0,0.0067992 0.000267716,0.0106929 0.000822833,0.0116968 0.000574802,0.000988187 0.00201181,0.00163385 0.00432282,0.00192126 0.00062992,5.1181e-005 0.000933069,0.000303149 0.000933069,0.000732282 0,0.000736219 -0.000822833,0.00109449 -0.00245669,0.00109449l-0.0167716 0c-0.00118504,0 -0.00177559,-0.000303149 -0.00177559,-0.000893699 0,-0.000559054 0.000771652,-0.000881888 0.00235039,-0.000933069 0.00220472,-0.000145669 0.00358661,-0.00082677 0.00410629,-0.00206299 0.000519684,-0.00122047 0.0007874,-0.00574408 0.0007874,-0.013563 0,-0.0114449 -0.000232283,-0.0183346 -0.000716534,-0.0206496 -0.000464566,-0.00231102 -0.0022244,-0.00353149 -0.00527164,-0.00367716 -0.0012559,-7.0866e-005 -0.00190157,-0.0003937 -0.00190157,-0.00100393 0,-0.000303149 0.000141732,-0.000539369 0.0003937,-0.000700786 0.000267716,-0.000161417 0.00186614,-0.000322834 0.00480708,-0.000499999l0.00966927 -0.000519684c0.000251968,0.00188189 0.000519684,0.00566928 0.0007874,0.0113346zm0.0367952 -0.037618c0.00132677,0 0.00252755,0.000484251 0.00356692,0.00147244 0.00105905,0.000968502 0.00157874,0.0020433 0.00157874,0.00321259 0,0.0013622 -0.000429133,0.00252755 -0.00127165,0.00351574 -0.000862203,0.000968502 -0.00204724,0.0014685 -0.00355117,0.0014685 -0.00133071,0 -0.00253149,-0.000429133 -0.00357086,-0.00129134 -0.00105905,-0.000858266 -0.00157874,-0.00202755 -0.00157874,-0.00349605 0,-0.001437 0.000448818,-0.00260236 0.00132677,-0.00351574 0.000897636,-0.000917321 0.00206299,-0.00136614 0.00349999,-0.00136614zm0.00582676 0.0256889l-5.1181e-005 0.0118425 0.000106299 0.0110315 0 0.00830313 -5.5118e-005 0.0062992c0,0.00252755 0.000413385,0.00412597 0.00124015,0.00480708 0.000822833,0.000681101 0.00206299,0.00105905 0.00371259,0.00112992 0.00192126,0.000106299 0.00288976,0.000519684 0.00288976,0.00122047 0,0.000555117 -0.000377952,0.000842518 -0.00111417,0.000842518 -0.000267716,0 -0.00059055,-1.9685e-005 -0.000933069,-5.5118e-005 -0.00326377,-0.000429133 -0.00629526,-0.000645668 -0.00909447,-0.000645668 -0.00448424,0 -0.0075866,0.000145669 -0.009311,0.00043307 -0.000338582,7.0866e-005 -0.000700786,0.000106299 -0.00103937,0.000106299 -0.000842518,0 -0.00127559,-0.000322834 -0.00127559,-0.000948817 0,-0.00062992 0.000988187,-0.00107874 0.00294488,-0.00131102 0.00197244,-0.000251968 0.00322834,-0.000681101 0.00376771,-0.00129134 0.000535432,-0.000610235 0.000807085,-0.00235039 0.000807085,-0.00522046l0.000322834 -0.0217598c0,-0.0058307 -0.000448818,-0.00925588 -0.00131102,-0.0103346 -0.000877951,-0.0010748 -0.00258267,-0.00162992 -0.00511416,-0.00170472 -0.000822833,0 -0.0012559,-0.000283464 -0.0012559,-0.000842518 0,-0.000322834 0.000145669,-0.000555117 0.00043307,-0.000736219 0.000267716,-0.000177165 0.00235039,-0.000409448 0.00624014,-0.000681101 0.00389369,-0.000287401 0.0065866,-0.000448818 0.00809053,-0.000484251zm0.0132559 0.0231771c0,-0.00615353 0.0022244,-0.0115866 0.00667321,-0.0162874 0.00444881,-0.00470078 0.00992124,-0.00703148 0.0163976,-0.00703148 0.00609841,0 0.0113543,0.00209842 0.0157519,0.00629526 0.00439369,0.00421653 0.00658266,0.00947242 0.00658266,0.0157677 0,0.00638581 -0.00229527,0.0119842 -0.00692518,0.0167913 -0.00462597,0.00482676 -0.0100275,0.00722833 -0.0161968,0.00722833 -0.00608266,0 -0.0113228,-0.0022244 -0.0157165,-0.00665353 -0.00437794,-0.00442912 -0.00656691,-0.00979525 -0.00656691,-0.0161102zm0.0085236 -0.000303149c0,0.00602755 0.00138189,0.0110315 0.00417716,0.0150315 0.00278346,0.00398424 0.00622833,0.00599211 0.0103149,0.00599211 0.00375196,0 0.00705116,-0.00188189 0.00992124,-0.00563385 0.00285432,-0.00374802 0.00427164,-0.00871652 0.00427164,-0.0149252 0,-0.00552361 -0.00136614,-0.0104567 -0.00412597,-0.0147992 -0.00274803,-0.00432282 -0.00631495,-0.00647636 -0.0106929,-0.00647636 -0.00405511,0 -0.00738975,0.00197637 -0.00997242,0.00590156 -0.00260236,0.00394881 -0.00389369,0.0089173 -0.00389369,0.0149094zm0.0589447 -0.0109449c0.00220866,-0.00390944 0.00457479,-0.00685038 0.00707085,-0.00882281 0.00251181,-0.00195669 0.00514566,-0.00294488 0.00790943,-0.00294488 0.001937,0 0.00360629,0.000700786 0.00500393,0.00208267 0.00140157,0.00138189 0.00209842,0.00294094 0.00209842,0.00470078 0,0.00333464 -0.00141338,0.00498424 -0.00424802,0.00498424 -0.00134645,0 -0.00246062,-0.000913384 -0.00337401,-0.00277952 -0.00111417,-0.00235039 -0.00260236,-0.00351574 -0.00446849,-0.00351574 -0.0017559,0 -0.00355117,0.000988187 -0.00541731,0.00294094 -0.00184645,0.00195669 -0.00310236,0.00411023 -0.00372834,0.00644093 -0.00062992,0.0023307 -0.000933069,0.00721258 -0.000933069,0.0146378 0,0.0067992 0.000267716,0.0106929 0.000822833,0.0116968 0.000574802,0.000988187 0.00201181,0.00163385 0.00432282,0.00192126 0.00062992,5.1181e-005 0.000933069,0.000303149 0.000933069,0.000732282 0,0.000736219 -0.000822833,0.00109449 -0.00245669,0.00109449l-0.0167716 0c-0.00118504,0 -0.00177559,-0.000303149 -0.00177559,-0.000893699 0,-0.000559054 0.000771652,-0.000881888 0.00235039,-0.000933069 0.00220472,-0.000145669 0.00358661,-0.00082677 0.00410629,-0.00206299 0.000519684,-0.00122047 0.0007874,-0.00574408 0.0007874,-0.013563 0,-0.0114449 -0.000232283,-0.0183346 -0.000716534,-0.0206496 -0.000464566,-0.00231102 -0.0022244,-0.00353149 -0.00527164,-0.00367716 -0.0012559,-7.0866e-005 -0.00190157,-0.0003937 -0.00190157,-0.00100393 0,-0.000303149 0.000141732,-0.000539369 0.0003937,-0.000700786 0.000267716,-0.000161417 0.00186614,-0.000322834 0.00480708,-0.000499999l0.00966927 -0.000519684c0.000251968,0.00188189 0.000519684,0.00566928 0.0007874,0.0113346zm0.0367952 -0.037618c0.00132677,0 0.00252755,0.000484251 0.00356692,0.00147244 0.00105905,0.000968502 0.00157874,0.0020433 0.00157874,0.00321259 0,0.0013622 -0.000429133,0.00252755 -0.00127165,0.00351574 -0.000862203,0.000968502 -0.00204724,0.0014685 -0.00355117,0.0014685 -0.00133071,0 -0.00253149,-0.000429133 -0.00357086,-0.00129134 -0.00105905,-0.000858266 -0.00157874,-0.00202755 -0.00157874,-0.00349605 0,-0.001437 0.000448818,-0.00260236 0.00132677,-0.00351574 0.000897636,-0.000917321 0.00206299,-0.00136614 0.00349999,-0.00136614zm0.00582676 0.0256889l-5.1181e-005 0.0118425 0.000106299 0.0110315 0 0.00830313 -5.5118e-005 0.0062992c0,0.00252755 0.000413385,0.00412597 0.00124015,0.00480708 0.000822833,0.000681101 0.00206299,0.00105905 0.00371259,0.00112992 0.00192126,0.000106299 0.00288976,0.000519684 0.00288976,0.00122047 0,0.000555117 -0.000377952,0.000842518 -0.00111417,0.000842518 -0.000267716,0 -0.00059055,-1.9685e-005 -0.000933069,-5.5118e-005 -0.00326377,-0.000429133 -0.00629526,-0.000645668 -0.00909447,-0.000645668 -0.00448424,0 -0.0075866,0.000145669 -0.009311,0.00043307 -0.000338582,7.0866e-005 -0.000700786,0.000106299 -0.00103937,0.000106299 -0.000842518,0 -0.00127559,-0.000322834 -0.00127559,-0.000948817 0,-0.00062992 0.000988187,-0.00107874 0.00294488,-0.00131102 0.00197244,-0.000251968 0.00322834,-0.000681101 0.00376771,-0.00129134 0.000535432,-0.000610235 0.000807085,-0.00235039 0.000807085,-0.00522046l0.000322834 -0.0217598c0,-0.0058307 -0.000448818,-0.00925588 -0.00131102,-0.0103346 -0.000877951,-0.0010748 -0.00258267,-0.00162992 -0.00511416,-0.00170472 -0.000822833,0 -0.0012559,-0.000283464 -0.0012559,-0.000842518 0,-0.000322834 0.000145669,-0.000555117 0.00043307,-0.000736219 0.000267716,-0.000177165 0.00235039,-0.000409448 0.00624014,-0.000681101 0.00389369,-0.000287401 0.0065866,-0.000448818 0.00809053,-0.000484251zm0.0297598 0.00484645c-0.000484251,0.00774801 -0.000732282,0.0153346 -0.000732282,0.0227992 0,0.00575589 0.000681101,0.00950785 0.0020433,0.011248 0.0013622,0.0017559 0.00333858,0.00263779 0.00588581,0.00263779 0.0018622,0 0.00390944,-0.000685038 0.00614959,-0.00204724 0.000807085,-0.000499999 0.00129134,-0.000736219 0.00147244,-0.000736219 0.000468503,0 0.000681101,0.00023622 0.000681101,0.000736219 0,0.00082677 -0.00123622,0.00216929 -0.00373227,0.00398424 -0.00247244,0.00182677 -0.00552361,0.00274409 -0.0091299,0.00274409 -0.00358661,0 -0.00625983,-0.0012559 -0.0080551,-0.00373227 -0.00177559,-0.00249212 -0.00267322,-0.00620471 -0.00267322,-0.0111575 0,-0.00514959 0.000307086,-0.0139763 0.000952754,-0.0264763 -0.000251968,-7.4803e-005 -0.00192126,-0.000200787 -0.00500393,-0.000377952l-0.00314173 -0.00019685c-0.000771652,-3.5433e-005 -0.00116535,-0.000307086 -0.00116535,-0.000791337 0,-0.000464566 0.000429133,-0.000822833 0.00131102,-0.00111023 0.00143307,-0.000519684 0.00385432,-0.00206299 0.00726376,-0.00462991 0.00338976,-0.00254724 0.00536219,-0.00615353 0.00593699,-0.0108149 0.000125984,-0.00122047 0.000519684,-0.00185039 0.0011496,-0.00185039 0.000625983,0 0.000948817,0.000503936 0.000948817,0.00147244 0,0.000322834 -1.5748e-005,0.000665353 -5.1181e-005,0.00100393 -0.000110236,0.0013622 -0.000161417,0.00294094 -0.000161417,0.00473621l5.1181e-005 0.00819683 0.0115197 -0.000161417c0.00195275,0 0.00297637,0.00023622 0.00304724,0.000681101 -3.5433e-005,0.00161811 -0.000303149,0.00263779 -0.0007874,0.00305117 -0.0018307,0 -0.00642125,0.000267716 -0.0137795,0.000791337zm0.0482558 0.0325747c0.00382283,-0.0103701 0.00627951,-0.0174173 0.00735431,-0.0211496 0.00109449,-0.00373227 0.00163385,-0.00670865 0.00163385,-0.00895274 0,-0.00290551 -0.0018307,-0.00451967 -0.00547243,-0.00484251 -0.00100393,-0.000106299 -0.00152362,-0.000448818 -0.00152362,-0.00105905 0,-0.000555117 0.000413385,-0.000822833 0.00122047,-0.000822833 0.000267716,0 0.00122047,5.1181e-005 0.00283464,0.000141732 0.000625983,3.5433e-005 0.00174015,5.5118e-005 0.00331889,5.5118e-005 0.00464566,0 0.0077677,-7.0866e-005 0.00934644,-0.00019685 0.000696849,-7.4803e-005 0.0011811,-0.000110236 0.0014685,-0.000110236 0.000881888,0 0.00131102,0.000287401 0.00131102,0.000897636 0,0.000519684 -0.000464566,0.000877951 -0.00141732,0.00109449 -0.00279921,0.00062992 -0.00502361,0.00267322 -0.00663778,0.0061181 -0.00163385,0.00346062 -0.00459054,0.0114803 -0.00886218,0.0240551 -0.00417716,0.0122874 -0.00753542,0.0211692 -0.010063,0.026622 -0.00254724,0.005437 -0.00518503,0.00920077 -0.0079488,0.0113031 -0.00274409,0.00207874 -0.00545274,0.0031181 -0.00810628,0.0031181 -0.00272834,0 -0.00489763,-0.0007874 -0.00649211,-0.00236614 -0.00159842,-0.00157874 -0.00238976,-0.00319291 -0.00238976,-0.00484251 0,-0.00133071 0.000539369,-0.00249606 0.00159842,-0.00351574 0.0010748,-0.00100787 0.00216929,-0.00152756 0.00328346,-0.00152756 0.00287007,0 0.00442912,0.001437 0.00468109,0.00430708 0.000145669,0.001937 0.00100393,0.00290551 0.00258267,0.00290551 0.00251181,0 0.0053307,-0.00265354 0.00843305,-0.0079488 0.00310236,-0.00529133 0.00464566,-0.0094173 0.00464566,-0.0123937 0,-0.00235039 -0.00120078,-0.00649605 -0.00360629,-0.0124134 -0.00238582,-0.00592125 -0.00505904,-0.0123228 -0.00799998,-0.0191968 -0.00296062,-0.00688581 -0.00495274,-0.0109409 -0.00602755,-0.0121417 -0.00105905,-0.00122047 -0.0022244,-0.00190157 -0.00349999,-0.00208267 -0.00114567,-0.000141732 -0.00172047,-0.000484251 -0.00172047,-0.00105905 0,-0.000661416 0.000413385,-0.00098425 0.0012559,-0.00098425 0.000338582,0 0.000751967,3.5433e-005 0.00120078,0.000106299 0.00204724,0.000232283 0.00435826,0.000358267 0.00699605,0.000358267 0.00559841,0 0.0090236,-0.000125984 0.0102441,-0.000358267 0.000736219,-0.000141732 0.0012559,-0.000216535 0.00152362,-0.000216535 0.000881888,0 0.00131102,0.000342519 0.00131102,0.00100393 0,0.000559054 -0.000771652,0.00102362 -0.00229527,0.00141732 -0.00278346,0.000736219 -0.00416141,0.00206299 -0.00416141,0.00398424 0,0.0016496 0.00399999,0.0118937 0.0119803,0.0306928z"/>
  </g>
 </g>
</svg>
