<?xml version="1.0" encoding="UTF-8"?>
<svg version="1.1" xmlns="http://www.w3.org/2000/svg" width="266" height="266">
<path d="M0 0 C0.8705141 -0.00569124 1.7410282 -0.01138248 2.63792151 -0.01724619 C3.60005807 -0.01842606 4.56219462 -0.01960594 5.55348682 -0.02082157 C6.5711448 -0.02590939 7.58880278 -0.03099721 8.63729888 -0.03623921 C12.06963131 -0.05201725 15.50194262 -0.06050284 18.93430042 -0.06893253 C21.38626205 -0.07846665 23.83822231 -0.08835761 26.29018116 -0.09858036 C33.6650388 -0.12730112 41.03989616 -0.14705466 48.41478822 -0.16397271 C50.49758794 -0.16876707 52.58038714 -0.17375047 54.66318631 -0.17877793 C67.59496365 -0.20974988 80.52674545 -0.23643762 93.4585495 -0.25319672 C96.45469833 -0.25714627 99.45084707 -0.26114926 102.44699574 -0.2652216 C103.19168225 -0.26622996 103.93636877 -0.26723832 104.70362154 -0.26827724 C116.76540562 -0.28528184 128.82698444 -0.32638759 140.88866832 -0.37724458 C153.2703107 -0.42902141 165.65184755 -0.4581391 178.03359729 -0.4653936 C184.98626402 -0.47005597 191.93859473 -0.48480767 198.89115429 -0.5251379 C205.43207787 -0.563034 211.97253267 -0.57043513 218.513587 -0.55713177 C220.91499467 -0.55718583 223.31642736 -0.56752612 225.71774006 -0.5888834 C228.99579796 -0.61648085 232.27175074 -0.607092 235.54982471 -0.58844852 C236.50080766 -0.60524345 237.4517906 -0.62203838 238.43159121 -0.63934225 C244.2843725 -0.5561232 247.36919934 0.56263032 251.60299617 4.65759796 C253.79911797 7.22853631 253.99638994 8.97739049 254.00892258 12.27069283 C254.01461382 13.14120692 254.02030506 14.01172102 254.02616876 14.90861434 C254.02734864 15.87075089 254.02852852 16.83288744 254.02974415 17.82417965 C254.03737588 19.35066662 254.03737588 19.35066662 254.04516178 20.90799171 C254.06093982 24.34032414 254.06942541 27.77263544 254.07785511 31.20499325 C254.08738923 33.65695487 254.09728019 36.10891513 254.10750294 38.56087399 C254.1362237 45.93573163 254.15597724 53.31058898 254.17289528 60.68548104 C254.17768965 62.76828077 254.18267305 64.85107996 254.18770051 66.93387914 C254.21867245 79.86565648 254.24536019 92.79743828 254.26211929 105.72924232 C254.26606885 108.72539115 254.27007183 111.7215399 254.27414417 114.71768856 C254.27515253 115.46237508 254.27616089 116.20706159 254.27719981 116.97431437 C254.29420441 129.03609844 254.33531017 141.09767727 254.38616716 153.15936115 C254.43794399 165.54100353 254.46706167 177.92254038 254.47431618 190.30429012 C254.47897855 197.25695685 254.49373025 204.20928755 254.53406048 211.16184711 C254.57195658 217.70277069 254.57935771 224.24322549 254.56605434 230.78427982 C254.5661084 233.1856875 254.5764487 235.58712018 254.59780598 237.98843288 C254.62540343 241.26649078 254.61601458 244.54244356 254.5973711 247.82051754 C254.61416603 248.77150048 254.63096096 249.72248343 254.64826483 250.70228404 C254.56504577 256.55506532 253.44629226 259.63989216 249.35132462 263.873689 C246.78038627 266.0698108 245.03153209 266.26708277 241.73822975 266.2796154 C240.86771565 266.28530664 239.99720155 266.29099789 239.10030824 266.29686159 C238.13817169 266.29804147 237.17603513 266.29922134 236.18474293 266.30043697 C235.16708495 266.30552479 234.14942697 266.31061261 233.10093087 266.31585461 C229.66859844 266.33163265 226.23628714 266.34011824 222.80392933 266.34854794 C220.3519677 266.35808205 217.90000744 266.36797301 215.44804859 266.37819576 C208.07319095 266.40691652 200.69833359 266.42667007 193.32344154 266.44358811 C191.24064181 266.44838247 189.15784261 266.45336587 187.07504344 266.45839334 C174.1432661 266.48936528 161.2114843 266.51605302 148.27968025 266.53281212 C145.28353143 266.53676168 142.28738268 266.54076466 139.29123402 266.544837 C138.5465475 266.54584536 137.80186098 266.54685372 137.03460821 266.54789264 C124.97282413 266.56489724 112.91124531 266.60600299 100.84956143 266.65685999 C88.46791905 266.70863682 76.0863822 266.7377545 63.70463246 266.74500901 C56.75196573 266.74967137 49.79963502 266.76442307 42.84707546 266.8047533 C36.30615189 266.84264941 29.76569708 266.85005053 23.22464275 266.83674717 C20.82323508 266.83680123 18.4218024 266.84714152 16.02048969 266.8684988 C12.74243179 266.89609626 9.46647901 266.88670741 6.18840504 266.86806393 C5.23742209 266.88485886 4.28643915 266.90165378 3.30663854 266.91895765 C-2.54614274 266.8357386 -5.63096959 265.71698508 -9.86476642 261.62201744 C-12.06088822 259.0510791 -12.25816019 257.30222491 -12.27069283 254.00892258 C-12.27638407 253.13840848 -12.28207531 252.26789438 -12.28793901 251.37100106 C-12.28911889 250.40886451 -12.29029877 249.44672796 -12.2915144 248.45543575 C-12.29660222 247.43777777 -12.30169004 246.42011979 -12.30693203 245.37162369 C-12.32271007 241.93929126 -12.33119566 238.50697996 -12.33962536 235.07462215 C-12.34915947 232.62266053 -12.35905044 230.17070027 -12.36927319 227.71874142 C-12.39799395 220.34388378 -12.41774749 212.96902642 -12.43466553 205.59413436 C-12.43945989 203.51133464 -12.4444433 201.42853544 -12.44947076 199.34573627 C-12.4804427 186.41395892 -12.50713044 173.48217712 -12.52388954 160.55037308 C-12.5278391 157.55422425 -12.53184208 154.5580755 -12.53591442 151.56192684 C-12.53692278 150.81724032 -12.53793114 150.07255381 -12.53897006 149.30530103 C-12.55597466 137.24351696 -12.59708042 125.18193813 -12.64793741 113.12025426 C-12.69971424 100.73861187 -12.72883192 88.35707503 -12.73608643 75.97532529 C-12.7407488 69.02265855 -12.7555005 62.07032785 -12.79583073 55.11776829 C-12.83372683 48.57684471 -12.84112796 42.03638991 -12.82782459 35.49533558 C-12.82787865 33.0939279 -12.83821894 30.69249522 -12.85957623 28.29118252 C-12.88717368 25.01312462 -12.87778483 21.73717184 -12.85914135 18.45909786 C-12.87593628 17.50811492 -12.89273121 16.55713197 -12.91003507 15.57733136 C-12.82681602 9.72455008 -11.7080625 6.63972324 -7.61309487 2.40592641 C-5.04215652 0.2098046 -3.29330234 0.01253264 0 0 Z M-5.13088512 8.1398077 C-6.84620413 10.98595074 -7.38144142 13.09249518 -7.38536072 16.39743614 C-7.39119291 17.24529857 -7.3970251 18.093161 -7.40303403 18.96671623 C-7.39925471 19.89326375 -7.39547538 20.81981128 -7.39158154 21.774436 C-7.39540708 22.76254554 -7.39923263 23.75065508 -7.4031741 24.76870733 C-7.41351604 28.08899434 -7.40950966 31.4091088 -7.40554333 34.72940731 C-7.40988912 37.1060925 -7.41507183 39.48277628 -7.421031 41.85945797 C-7.43305198 47.65053964 -7.43557071 53.44156735 -7.43323074 59.23265999 C-7.43144834 63.93933515 -7.43319553 68.64599624 -7.43745518 73.35266972 C-7.43805037 74.02232156 -7.43864556 74.69197341 -7.43925878 75.38191773 C-7.44047052 76.74227694 -7.44168465 78.10263615 -7.44290116 79.46299536 C-7.45377973 92.22292206 -7.45161268 104.98282234 -7.44551631 117.74275053 C-7.44034664 129.4176985 -7.45160334 141.09256303 -7.47061453 152.76749449 C-7.48998305 164.75369471 -7.49825068 176.73985544 -7.49449128 188.72607142 C-7.49257776 195.45607725 -7.49508142 202.18601206 -7.50920582 208.91600513 C-7.52174929 215.24349128 -7.51987301 221.57081003 -7.50679493 227.8982935 C-7.50442204 230.22311744 -7.50718918 232.54795304 -7.51541805 234.87276363 C-7.52582676 238.04143722 -7.51783189 241.20954301 -7.50510693 244.37819576 C-7.51248121 245.30251256 -7.5198555 246.22682937 -7.52745324 247.17915577 C-7.48709635 251.94181873 -7.36931277 255.36066756 -4.13088512 259.1398077 C-1.28474208 260.85512671 0.82180235 261.390364 4.12674332 261.39428329 C4.97460575 261.40011549 5.82246817 261.40594768 6.6960234 261.41195661 C8.08584469 261.40628762 8.08584469 261.40628762 9.50374317 261.40050411 C10.49185271 261.40432966 11.47996225 261.40815521 12.49801451 261.41209668 C15.81830151 261.42243861 19.13841597 261.41843223 22.45871449 261.4144659 C24.83539967 261.4188117 27.21208346 261.4239944 29.58876514 261.42995358 C35.37984682 261.44197456 41.17087452 261.44449328 46.96196716 261.44215331 C51.66864233 261.44037091 56.37530341 261.44211811 61.08197689 261.44637775 C62.08645466 261.44727054 62.08645466 261.44727054 63.11122491 261.44818136 C64.47158412 261.4493931 65.83194333 261.45060723 67.19230253 261.45182373 C79.95222923 261.46270231 92.71212951 261.46053526 105.47205771 261.45443889 C117.14700567 261.44926921 128.82187021 261.46052591 140.49680167 261.47953711 C152.48300189 261.49890563 164.46916262 261.50717326 176.45537859 261.50341386 C183.18538442 261.50150034 189.91531923 261.504004 196.64531231 261.5181284 C202.97279845 261.53067187 209.3001172 261.52879559 215.62760067 261.51571751 C217.95242462 261.51334461 220.27726022 261.51611176 222.60207081 261.52434063 C225.77074439 261.53474934 228.93885018 261.52675447 232.10750294 261.5140295 C233.03181974 261.52140379 233.95613654 261.52877807 234.90846294 261.53637582 C239.6711259 261.49601893 243.08997474 261.37823535 246.86911488 258.1398077 C248.58443388 255.29366466 249.11967118 253.18712023 249.12359047 249.88217926 C249.12942266 249.03431683 249.13525486 248.1864544 249.14126378 247.31289917 C249.13748446 246.38635165 249.13370514 245.45980413 249.12981129 244.50517941 C249.13363683 243.51706986 249.13746238 242.52896032 249.14140385 241.51090807 C249.15174579 238.19062106 249.14773941 234.8705066 249.14377308 231.55020809 C249.14811888 229.1735229 249.15330158 226.79683912 249.15926075 224.42015743 C249.17128173 218.62907576 249.17380046 212.83804806 249.17146049 207.04695541 C249.16967809 202.34028025 249.17142528 197.63361917 249.17568493 192.92694569 C249.17657771 191.92246792 249.17657771 191.92246792 249.17748853 190.89769767 C249.17870027 189.53733846 249.17991441 188.17697925 249.18113091 186.81662004 C249.19200949 174.05669334 249.18984243 161.29679306 249.18374606 148.53686487 C249.17857639 136.86191691 249.18983309 125.18705237 249.20884428 113.51212091 C249.22821281 101.52592069 249.23648043 89.53975996 249.23272103 77.55354398 C249.23080751 70.82353816 249.23331117 64.09360334 249.24743557 57.36361027 C249.25997904 51.03612413 249.25810276 44.70880537 249.24502468 38.38132191 C249.24265179 36.05649796 249.24541894 33.73166236 249.2536478 31.40685177 C249.26405651 28.23817819 249.25606165 25.0700724 249.24333668 21.90141964 C249.25071096 20.97710284 249.25808525 20.05278604 249.265683 19.10045964 C249.2253261 14.33779667 249.10754252 10.91894784 245.86911488 7.1398077 C243.02297184 5.42448869 240.9164274 4.8892514 237.61148643 4.88533211 C236.76362401 4.87949991 235.91576158 4.87366772 235.04220635 4.86765879 C234.11565882 4.87143812 233.1891113 4.87521744 232.23448658 4.87911129 C231.24637704 4.87528574 230.2582675 4.8714602 229.24021524 4.86751872 C225.91992824 4.85717679 222.59981378 4.86118317 219.27951527 4.8651495 C216.90283008 4.8608037 214.5261463 4.855621 212.14946461 4.84966183 C206.35838294 4.83764085 200.56735523 4.83512212 194.77626259 4.83746209 C190.06958742 4.83924449 185.36292634 4.83749729 180.65625286 4.83323765 C179.65177509 4.83234486 179.65177509 4.83234486 178.62700484 4.83143404 C177.26664563 4.83022231 175.90628643 4.82900817 174.54592722 4.82779167 C161.78600052 4.81691309 149.02610024 4.81908015 136.26617204 4.82517651 C124.59122408 4.83034619 112.91635954 4.81908949 101.24142808 4.8000783 C89.25522787 4.78070977 77.26906713 4.77244214 65.28285116 4.77620155 C58.55284533 4.77811507 51.82291052 4.77561141 45.09291744 4.76148701 C38.7654313 4.74894353 32.43811255 4.75081981 26.11062908 4.7638979 C23.78580514 4.76627079 21.46096954 4.76350364 19.13615894 4.75527477 C15.96748536 4.74486606 12.79937957 4.75286093 9.63072681 4.7655859 C8.24425161 4.75452447 8.24425161 4.75452447 6.82976681 4.74323958 C2.06710385 4.78359648 -1.35174499 4.90138005 -5.13088512 8.1398077 Z " fill="#FFFFFA" transform="translate(12.130885124206543,-0.13980770111083984)"/>
<path d="M0 0 C4.76309543 -1.1386775 9.33509253 -1.69722071 14 0 C19.58401662 4.03036224 23.9037713 9.59394942 28.25097656 14.87988281 C30.48199623 17.58426232 32.82116372 20.16353941 35.1875 22.75 C35.87070313 23.51570313 36.55390625 24.28140625 37.2578125 25.0703125 C39.42356963 27.4691556 41.68542834 29.74477633 44 32 C44.55816406 32.60328125 45.11632812 33.2065625 45.69140625 33.828125 C55.97041316 44.70933636 68.34758025 50.63067255 83 53 C83 53.66 83 54.32 83 55 C77.17171443 57.91414278 66.79253945 56.53593219 60.6875 54.8125 C59.11168682 54.24396114 57.54829812 53.63968472 56 53 C55.20464844 52.69449219 54.40929687 52.38898438 53.58984375 52.07421875 C45.74693891 48.65615404 39.99521979 42.92344463 34 37 C33.07316406 36.08863281 32.14632812 35.17726562 31.19140625 34.23828125 C28.77890178 31.84011559 26.3866358 29.42386235 24 27 C23.18144531 26.18917969 22.36289063 25.37835938 21.51953125 24.54296875 C5.7535545 8.63033175 5.7535545 8.63033175 0 0 Z " fill="#000000" transform="translate(96,116)"/>
<path d="M0 0 C4.4716149 -1.27986151 8.62359321 -1.7053317 13 0 C19.87063027 4.95785153 25.44378433 11.65706353 31 18 C31.6492041 18.73428223 32.2984082 19.46856445 32.96728516 20.22509766 C35.34133781 22.92080021 37.69202562 25.62629195 39.9765625 28.3984375 C51.53250665 42.25461698 65.44659975 49.56745909 83 53 C83 53.66 83 54.32 83 55 C76.68905837 58.15547082 66.20695106 56.41815696 59.6875 54.375 C43.82956307 48.28232544 31.64084977 35.90061569 20.72265625 23.2109375 C16.23774636 18.04489821 11.33959921 13.32225806 6.43359375 8.56054688 C5.74652344 7.88443359 5.05945313 7.20832031 4.3515625 6.51171875 C3.73104004 5.90803467 3.11051758 5.30435059 2.47119141 4.68237305 C1 3 1 3 0 0 Z " fill="#000000" transform="translate(127,116)"/>
<path d="M0 0 C9.24 0 18.48 0 28 0 C24 4 24 4 19 6 C19 16.56 19 27.12 19 38 C15.7 38 12.4 38 9 38 C8.98018066 37.1121582 8.96036133 36.22431641 8.93994141 35.30957031 C8.86171768 32.00688666 8.77502115 28.70464936 8.68261719 25.40234375 C8.64439976 23.97469602 8.60953428 22.54695437 8.578125 21.11914062 C8.53231599 19.06346132 8.4743502 17.00842446 8.4140625 14.953125 C8.3826416 13.71723633 8.3512207 12.48134766 8.31884766 11.20800781 C8.0186838 8.18798246 7.72129381 6.46515146 6 4 C2.9665533 2.23272142 2.9665533 2.23272142 0 1 C0 0.67 0 0.34 0 0 Z " fill="#000000" transform="translate(64,60)"/>
<path d="M0 0 C8.91 0 17.82 0 27 0 C23.48911096 2.80871123 21.63548344 4.28419006 17.875 6 C11.28677061 9.54666349 6.80228531 15.40949765 2 21 C0.75004029 22.39586941 -0.49995357 23.79170825 -1.75 25.1875 C-3.55703104 27.22631175 -5.1607833 29.23544588 -6.69921875 31.48828125 C-11.03534598 37.75374149 -11.03534598 37.75374149 -14.21875 38.56640625 C-16.4375 38.5625 -16.4375 38.5625 -20 38 C-18.30087074 34.05145531 -15.66940528 30.88514066 -13 27.5625 C-12.01124084 26.31678543 -11.02297125 25.07068214 -10.03515625 23.82421875 C-9.28129639 22.87554932 -9.28129639 22.87554932 -8.51220703 21.90771484 C-6.13630666 18.91041335 -3.78128553 15.89745596 -1.4375 12.875 C-0.22900391 11.32425781 -0.22900391 11.32425781 1.00390625 9.7421875 C2.61903001 7.52336778 3.89458418 5.49764224 5 3 C3.35 2.34 1.7 1.68 0 1 C0 0.67 0 0.34 0 0 Z " fill="#000000" transform="translate(143,60)"/>
<path d="M0 0 C9.24 0 18.48 0 28 0 C25.30061374 1.79959084 22.63482711 3.21688283 19.75 4.6875 C11.63208039 9.11448638 6.75939409 15.17012942 1.125 22.3671875 C-1.81039775 26.00405897 -4.95121696 29.43485744 -8.1171875 32.87109375 C-10.13535665 35.05601736 -10.13535665 35.05601736 -12 38 C-14.1640625 38.29296875 -14.1640625 38.29296875 -16.625 38.1875 C-17.44226563 38.16042969 -18.25953125 38.13335937 -19.1015625 38.10546875 C-19.72804688 38.07066406 -20.35453125 38.03585938 -21 38 C-17.26733953 32.95586423 -13.44326503 27.99288812 -9.5625 23.0625 C-9.08723877 22.45728516 -8.61197754 21.85207031 -8.12231445 21.22851562 C-6.01918726 18.5527923 -3.90793461 15.88600661 -1.76953125 13.23828125 C-0.83173828 12.06845703 -0.83173828 12.06845703 0.125 10.875 C0.66382812 10.21242188 1.20265625 9.54984375 1.7578125 8.8671875 C3.06489484 6.90245367 3.57952108 5.30750625 4 3 C2.68 2.01 1.36 1.02 0 0 Z " fill="#000000" transform="translate(112,60)"/>
<path d="M0 0 C3.3 0 6.6 0 10 0 C10.01981934 0.76666992 10.03963867 1.53333984 10.06005859 2.32324219 C10.15535446 5.79917219 10.26501598 9.27450506 10.375 12.75 C10.4059375 13.9565625 10.436875 15.163125 10.46875 16.40625 C10.50742188 17.56640625 10.54609375 18.7265625 10.5859375 19.921875 C10.63306885 21.52434082 10.63306885 21.52434082 10.68115234 23.15917969 C10.99742791 25.9770836 11.44853032 27.64783619 13 30 C14.63495707 31.05104383 16.29883624 32.05988318 18 33 C18 33.33 18 33.66 18 34 C9.09 34 0.18 34 -9 34 C-4 29 -4 29 -1 27 C-0.48895078 24.19189856 -0.48895078 24.19189856 -0.48828125 20.8984375 C-0.45283203 19.68671875 -0.41738281 18.475 -0.38085938 17.2265625 C-0.35830078 15.95554688 -0.33574219 14.68453125 -0.3125 13.375 C-0.27833984 12.09625 -0.24417969 10.8175 -0.20898438 9.5 C-0.12627521 6.33342068 -0.05719915 3.16712636 0 0 Z " fill="#000000" transform="translate(73,116)"/>
<path d="M0 0 C21.45 0 42.9 0 65 0 C65 1.65 65 3.3 65 5 C43.55 5 22.1 5 0 5 C0 3.35 0 1.7 0 0 Z " fill="#000000" transform="translate(62,156)"/>
<path d="M0 0 C1.65 0 3.3 0 5 0 C5.33 0.99 5.66 1.98 6 3 C11.27804197 3.10304203 16.43529996 3.00491219 21.6875 2.4375 C26.04145087 1.99220957 29.71654151 2.1433083 34 3 C33.01 5.31 32.02 7.62 31 10 C29.68 9.67 28.36 9.34 27 9 C27.99 9 28.98 9 30 9 C29.67 7.35 29.34 5.7 29 4 C28.34 4 27.68 4 27 4 C27.33 5.32 27.66 6.64 28 8 C20.74 8 13.48 8 6 8 C6 6.68 6 5.36 6 4 C5.01 4.495 5.01 4.495 4 5 C3.67 5.99 3.34 6.98 3 8 C2.01 8 1.02 8 0 8 C0 5.36 0 2.72 0 0 Z " fill="#000000" transform="translate(182,196)"/>
<path d="M0 0 C1.9375 0.375 1.9375 0.375 4 1 C4.33 1.66 4.66 2.32 5 3 C9.455 2.505 9.455 2.505 14 2 C15 6 15 6 15 8 C11.125 7.125 11.125 7.125 10 6 C10 6.66 10 7.32 10 8 C6.20847666 8.0867982 2.41720704 8.14032207 -1.375 8.1875 C-2.45523438 8.21263672 -3.53546875 8.23777344 -4.6484375 8.26367188 C-6.1953125 8.27817383 -6.1953125 8.27817383 -7.7734375 8.29296875 C-8.72653809 8.3086792 -9.67963867 8.32438965 -10.66162109 8.34057617 C-11.43328613 8.22818604 -12.20495117 8.1157959 -13 8 C-13.66 7.01 -14.32 6.02 -15 5 C-14.67 4.34 -14.34 3.68 -14 3 C-9.71 3 -5.42 3 -1 3 C-0.67 2.01 -0.34 1.02 0 0 Z M-12 4 C-11 6 -11 6 -11 6 Z " fill="#000000" transform="translate(101,196)"/>
<path d="M0 0 C3 0.25 3 0.25 5 2.25 C5.1953125 4.8515625 5.1953125 4.8515625 5.125 7.875 C5.10695312 8.87789062 5.08890625 9.88078125 5.0703125 10.9140625 C5.03550781 12.07035156 5.03550781 12.07035156 5 13.25 C1.7 13.25 -1.6 13.25 -5 13.25 C-5.05391993 11.45866022 -5.09275571 9.66686101 -5.125 7.875 C-5.14820312 6.87726563 -5.17140625 5.87953125 -5.1953125 4.8515625 C-4.90172037 0.94091533 -3.83781157 0.31981763 0 0 Z " fill="#000000" transform="translate(133,100.75)"/>
<path d="M0 0 C2.38564077 0.57584432 4.66682784 1.22227595 7 2 C8.99673484 2.35236497 10.99650739 2.68834559 13 3 C13 2.01 13 1.02 13 0 C13.99 0 14.98 0 16 0 C16 0.99 16 1.98 16 3 C17.65 3 19.3 3 21 3 C21 3.66 21 4.32 21 5 C20.67 5.33 20.34 5.66 20 6 C20.99 6 21.98 6 23 6 C22.67 6.99 22.34 7.98 22 9 C18.7 8.67 15.4 8.34 12 8 C11.67 8.66 11.34 9.32 11 10 C9.68 9.67 8.36 9.34 7 9 C7.66 8.34 8.32 7.68 9 7 C8.67 7 8.34 7 8 7 C2 7 2 7 0.25 5.75 C-1 4 -1 4 -0.6875 1.8125 C-0.460625 1.214375 -0.23375 0.61625 0 0 Z " fill="#000000" transform="translate(137,196)"/>
<path d="M0 0 C1.32 0.33 2.64 0.66 4 1 C4 4.96 4 8.92 4 13 C1.69 13 -0.62 13 -3 13 C-3.08121924 11.39667209 -3.13929134 9.79215974 -3.1875 8.1875 C-3.22230469 7.29417969 -3.25710937 6.40085937 -3.29296875 5.48046875 C-3 3 -3 3 -1.73828125 1.11328125 C-1.16464844 0.74589844 -0.59101562 0.37851563 0 0 Z " fill="#000000" transform="translate(63,101)"/>
<path d="M0 0 C1.67542976 0.28604898 3.34385343 0.61781233 5 1 C5.98248524 5.0527516 6.08159574 8.83861737 6 13 C3.69 13 1.38 13 -1 13 C-1.02686553 11.02090602 -1.04633375 9.04171029 -1.0625 7.0625 C-1.07410156 5.96035156 -1.08570312 4.85820313 -1.09765625 3.72265625 C-1 1 -1 1 0 0 Z " fill="#000000" transform="translate(72,101)"/>
<path d="M0 0 C1.875 0.6875 1.875 0.6875 2.875 1.6875 C4.55683948 1.92037008 6.2462416 2.10014166 7.9375 2.25 C9.31615234 2.37568359 9.31615234 2.37568359 10.72265625 2.50390625 C11.78806641 2.59478516 11.78806641 2.59478516 12.875 2.6875 C11.885 3.1825 11.885 3.1825 10.875 3.6875 C10.875 5.0075 10.875 6.3275 10.875 7.6875 C0.5 7.6875 0.5 7.6875 -4.125 6.6875 C-4.455 5.0375 -4.785 3.3875 -5.125 1.6875 C-2.125 -0.3125 -2.125 -0.3125 0 0 Z M-2.125 1.6875 C-2.125 3.0075 -2.125 4.3275 -2.125 5.6875 C-1.465 5.6875 -0.805 5.6875 -0.125 5.6875 C-0.125 4.3675 -0.125 3.0475 -0.125 1.6875 C-0.785 1.6875 -1.445 1.6875 -2.125 1.6875 Z M4.875 3.6875 C5.875 5.6875 5.875 5.6875 5.875 5.6875 Z " fill="#000000" transform="translate(167.125,196.3125)"/>
<path d="M0 0 C2.97 0.495 2.97 0.495 6 1 C7.04184255 4.38598829 7.23042499 7.46681687 7 11 C6.34 11.66 5.68 12.32 5 13 C3.35 13 1.7 13 0 13 C0 8.71 0 4.42 0 0 Z " fill="#000000" transform="translate(142,101)"/>
<path d="M0 0 C3.53571429 0.53571429 3.53571429 0.53571429 5 2 C5.36090226 9.45864662 5.36090226 9.45864662 3 13 C1.35 12.67 -0.3 12.34 -2 12 C-2.05395478 10.37536158 -2.09277195 8.75021459 -2.125 7.125 C-2.14820313 6.22007813 -2.17140625 5.31515625 -2.1953125 4.3828125 C-2 2 -2 2 0 0 Z " fill="#000000" transform="translate(155,101)"/>
<path d="M0 0 C3.53571429 0.53571429 3.53571429 0.53571429 5 2 C5.16796875 3.99609375 5.16796875 3.99609375 5.1875 6.4375 C5.20167969 7.24058594 5.21585937 8.04367188 5.23046875 8.87109375 C5 11 5 11 3 13 C-0.53571429 12.46428571 -0.53571429 12.46428571 -2 11 C-2.16796875 9.00390625 -2.16796875 9.00390625 -2.1875 6.5625 C-2.20167969 5.75941406 -2.21585937 4.95632812 -2.23046875 4.12890625 C-2 2 -2 2 0 0 Z " fill="#000000" transform="translate(119,101)"/>
<path d="M0 0 C2.42647513 0.96758202 3.73342524 1.53150481 5.046875 3.83984375 C5.27890625 4.53207031 5.5109375 5.22429687 5.75 5.9375 C6.11351563 6.97197266 6.11351563 6.97197266 6.484375 8.02734375 C7 10 7 10 7 13 C6.01 12.67 5.02 12.34 4 12 C3.67 11.34 3.34 10.68 3 10 C1.68 10 0.36 10 -1 10 C-1.33 10.99 -1.66 11.98 -2 13 C-2.99 13 -3.98 13 -5 13 C-4.39254603 8.14036821 -2.27241033 4.2594482 0 0 Z M1 5 C0.67 5.66 0.34 6.32 0 7 C0.66 7 1.32 7 2 7 C1.67 6.34 1.34 5.68 1 5 Z " fill="#000000" transform="translate(68,177)"/>
<path d="M0 0 C1.98 0 3.96 0 6 0 C7 2 7 2 6.5 4.25 C5.92213458 7.4282598 6.34258069 9.85899662 7 13 C4.69 13 2.38 13 0 13 C0 8.71 0 4.42 0 0 Z " fill="#000000" transform="translate(106,101)"/>
<path d="M0 0 C0 3.96 0 7.92 0 12 C-1.98 12 -3.96 12 -6 12 C-6 8.04 -6 4.08 -6 0 C-4 -1 -4 -1 0 0 Z " fill="#000000" transform="translate(98,102)"/>
<path d="M0 0 C2.64 0.33 5.28 0.66 8 1 C8.625 3.3125 8.625 3.3125 9 6 C8.01 7.485 8.01 7.485 7 9 C7.66 10.32 8.32 11.64 9 13 C7.125 12.6875 7.125 12.6875 5 12 C4.34 11.01 3.68 10.02 3 9 C2.67 10.32 2.34 11.64 2 13 C1.34 13 0.68 13 0 13 C0 8.71 0 4.42 0 0 Z M2 2 C2 3.65 2 5.3 2 7 C3.32 6.67 4.64 6.34 6 6 C5.67 4.68 5.34 3.36 5 2 C4.01 2 3.02 2 2 2 Z " fill="#000000" transform="translate(201,177)"/>
<path d="M0 0 C0.66 0 1.32 0 2 0 C2.33 2.64 2.66 5.28 3 8 C-1.95 8 -6.9 8 -12 8 C-12.33 6.35 -12.66 4.7 -13 3 C-8.71 3 -4.42 3 0 3 C0 2.01 0 1.02 0 0 Z M-1 4 C0 6 0 6 0 6 Z " fill="#000000" transform="translate(131,196)"/>
<path d="M0 0 C1.65 0 3.3 0 5 0 C5 0.99 5 1.98 5 3 C5.165 3.639375 5.33 4.27875 5.5 4.9375 C6.21834139 7.90065824 6.3807101 10.23857981 5 13 C3.35 13 1.7 13 0 13 C0 8.71 0 4.42 0 0 Z " fill="#000000" transform="translate(82,101)"/>
<path d="M0 0 C4.95 0 9.9 0 15 0 C14.01 0.495 14.01 0.495 13 1 C13 2.32 13 3.64 13 5 C8.71 4.67 4.42 4.34 0 4 C0 2.68 0 1.36 0 0 Z M2 1 C3 3 3 3 3 3 Z " fill="#000000" transform="translate(63,199)"/>
<path d="M0 0 C0.33 0.66 0.66 1.32 1 2 C-0.65 2 -2.3 2 -4 2 C-4 2.99 -4 3.98 -4 5 C-3.01 5 -2.02 5 -1 5 C-1 5.66 -1 6.32 -1 7 C-1.99 7 -2.98 7 -4 7 C-4 8.32 -4 9.64 -4 11 C-2.35 11 -0.7 11 1 11 C0.67 11.66 0.34 12.32 0 13 C-2.31 12.67 -4.62 12.34 -7 12 C-7 8.37 -7 4.74 -7 1 C-4.53721199 -0.231394 -2.7204945 -0.07159196 0 0 Z " fill="#000000" transform="translate(185,177)"/>
<path d="M0 0 C0.78375 0.04125 1.5675 0.0825 2.375 0.125 C2.705 0.785 3.035 1.445 3.375 2.125 C1.725 2.125 0.075 2.125 -1.625 2.125 C-1.625 3.115 -1.625 4.105 -1.625 5.125 C-0.635 5.125 0.355 5.125 1.375 5.125 C1.375 5.785 1.375 6.445 1.375 7.125 C0.385 7.125 -0.605 7.125 -1.625 7.125 C-1.625 8.445 -1.625 9.765 -1.625 11.125 C0.025 11.125 1.675 11.125 3.375 11.125 C3.045 11.785 2.715 12.445 2.375 13.125 C-3.5 12.25 -3.5 12.25 -4.625 11.125 C-4.79296875 9.12890625 -4.79296875 9.12890625 -4.8125 6.6875 C-4.82667969 5.88441406 -4.84085937 5.08132812 -4.85546875 4.25390625 C-4.48804017 0.85986255 -3.31968405 0.15808019 0 0 Z " fill="#000000" transform="translate(118.625,176.875)"/>
<path d="M0 0 C1.65 0 3.3 0 5 0 C4.814375 0.845625 4.62875 1.69125 4.4375 2.5625 C3.96470368 6.2773282 4.33935369 9.32974273 5 13 C3.35 13 1.7 13 0 13 C0 8.71 0 4.42 0 0 Z " fill="#000000" transform="translate(51,101)"/>
<path d="M0 0 C0.99 0 1.98 0 3 0 C3 3.3 3 6.6 3 10 C4.32 10.33 5.64 10.66 7 11 C6.67 11.66 6.34 12.32 6 13 C4.02 13 2.04 13 0 13 C0 8.71 0 4.42 0 0 Z " fill="#000000" transform="translate(164,101)"/>
<path d="M0 0 C2.31 0 4.62 0 7 0 C7.33 0.66 7.66 1.32 8 2 C7.01 2 6.02 2 5 2 C5 5.63 5 9.26 5 13 C4.01 12.67 3.02 12.34 2 12 C2 8.7 2 5.4 2 2 C1.34 2 0.68 2 0 2 C0 1.34 0 0.68 0 0 Z " fill="#000000" transform="translate(91,177)"/>
<path d="M0 0 C0.99 0 1.98 0 3 0 C3 4.29 3 8.58 3 13 C2.01 12.67 1.02 12.34 0 12 C0 8.04 0 4.08 0 0 Z " fill="#000000" transform="translate(159,177)"/>
<path d="M0 0 C0.66 0 1.32 0 2 0 C2.33 3.3 2.66 6.6 3 10 C4.65 10.33 6.3 10.66 8 11 C7.67 11.66 7.34 12.32 7 13 C4.69 12.67 2.38 12.34 0 12 C0 8.04 0 4.08 0 0 Z " fill="#000000" transform="translate(137,177)"/>
<path d="M0 0 C0.78375 0.04125 1.5675 0.0825 2.375 0.125 C2.375 1.115 2.375 2.105 2.375 3.125 C1.055 2.795 -0.265 2.465 -1.625 2.125 C-1.625 3.445 -1.625 4.765 -1.625 6.125 C-0.635 6.125 0.355 6.125 1.375 6.125 C1.375 6.785 1.375 7.445 1.375 8.125 C-0.275 7.795 -1.925 7.465 -3.625 7.125 C-4.25 4.75 -4.25 4.75 -4.625 2.125 C-2.625 0.125 -2.625 0.125 0 0 Z " fill="#000000" transform="translate(84.625,195.875)"/>
<path d="M0 0 C0.99 0 1.98 0 3 0 C3.99 2.31 4.98 4.62 6 7 C4.68 7.33 3.36 7.66 2 8 C1.34 5.36 0.68 2.72 0 0 Z " fill="#000000" transform="translate(57,196)"/>
<path d="M0 0 C0.66 0 1.32 0 2 0 C2.33 0.99 2.66 1.98 3 3 C2.01 3 1.02 3 0 3 C0 2.01 0 1.02 0 0 Z " fill="#000000" transform="translate(136,201)"/>
<path d="M0 0 C1.32 0.33 2.64 0.66 4 1 C2.68 1 1.36 1 0 1 C0 0.67 0 0.34 0 0 Z " fill="#000000" transform="translate(61,196)"/>
<path d="M0 0 C0.66 0 1.32 0 2 0 C2 0.66 2 1.32 2 2 C1.34 2 0.68 2 0 2 C0 1.34 0 0.68 0 0 Z " fill="#000000" transform="translate(204,196)"/>
<path d="M0 0 C0.66 0 1.32 0 2 0 C2 0.66 2 1.32 2 2 C1.34 2 0.68 2 0 2 C0 1.34 0 0.68 0 0 Z " fill="#000000" transform="translate(192,196)"/>
</svg>
